<svg width="20" height="20" viewBox="0 0 20 20" fill="none" xmlns="http://www.w3.org/2000/svg">
<g clip-path="url(#clip0_48_332)">
<path fill-rule="evenodd" clip-rule="evenodd" d="M10 1.875C5.51269 1.875 1.875 5.51269 1.875 10C1.875 14.4873 5.51269 18.125 10 18.125C14.4873 18.125 18.125 14.4873 18.125 10C18.1203 5.51465 14.4853 1.87974 10 1.875ZM10.625 16.8461V11.875H12.5C12.8452 11.875 13.125 11.5952 13.125 11.25C13.125 10.9048 12.8452 10.625 12.5 10.625H10.625V8.75C10.625 8.05964 11.1846 7.5 11.875 7.5H13.125C13.4702 7.5 13.75 7.22018 13.75 6.875C13.75 6.52982 13.4702 6.25 13.125 6.25H11.875C10.4943 6.25 9.375 7.36929 9.375 8.75V10.625H7.5C7.15482 10.625 6.875 10.9048 6.875 11.25C6.875 11.5952 7.15482 11.875 7.5 11.875H9.375V16.8461C5.7149 16.512 2.96489 13.3582 3.13212 9.68674C3.29935 6.01523 6.32468 3.12456 10 3.12456C13.6753 3.12456 16.7006 6.01523 16.8679 9.68674C17.0351 13.3582 14.2851 16.512 10.625 16.8461Z" fill="#121712"/>
</g>
<defs>
<clipPath id="clip0_48_332">
<rect width="20" height="20" fill="white"/>
</clipPath>
</defs>
</svg>
