<svg width="5" height="1" viewBox="0 0 20 20" fill="none" xmlns="http://www.w3.org/2000/svg">
<g clip-path="url(#clip0_47_35)">
<path fill-rule="evenodd" clip-rule="evenodd" d="M16.875 1.875H3.125C2.43464 1.875 1.875 2.43464 1.875 3.125V16.875C1.875 17.5654 2.43464 18.125 3.125 18.125H16.875C17.5654 18.125 18.125 17.5654 18.125 16.875V3.125C18.125 2.43464 17.5654 1.875 16.875 1.875ZM16.875 16.875H3.125V3.125H16.875V16.875ZM7.5 8.75V13.75C7.5 14.0952 7.22018 14.375 6.875 14.375C6.52982 14.375 6.25 14.0952 6.25 13.75V8.75C6.25 8.40482 6.52982 8.125 6.875 8.125C7.22018 8.125 7.5 8.40482 7.5 8.75ZM14.375 10.9375V13.75C14.375 14.0952 14.0952 14.375 13.75 14.375C13.4048 14.375 13.125 14.0952 13.125 13.75V10.9375C13.125 10.0746 12.4254 9.375 11.5625 9.375C10.6996 9.375 10 10.0746 10 10.9375V13.75C10 14.0952 9.72018 14.375 9.375 14.375C9.02982 14.375 8.75 14.0952 8.75 13.75V8.75C8.75161 8.43313 8.9901 8.1676 9.30498 8.1321C9.61986 8.0966 9.91148 8.30237 9.98359 8.61094C10.8452 8.02645 11.9592 7.96576 12.8792 8.45317C13.7992 8.94059 14.3747 9.89636 14.375 10.9375ZM7.8125 6.5625C7.8125 7.08027 7.39277 7.5 6.875 7.5C6.35723 7.5 5.9375 7.08027 5.9375 6.5625C5.9375 6.04473 6.35723 5.625 6.875 5.625C7.39277 5.625 7.8125 6.04473 7.8125 6.5625Z" fill="#121712"/>
</g>
<defs>
<clipPath id="clip0_47_35">
<rect width="20" height="20" fill="white"/>
</clipPath>
</defs>
</svg>
