<svg width="20" height="20" viewBox="0 0 20 20" fill="none" xmlns="http://www.w3.org/2000/svg">
<g clip-path="url(#clip0_48_340)">
<path fill-rule="evenodd" clip-rule="evenodd" d="M10.7453 14.5594C10.9892 14.8034 10.9892 15.1989 10.7453 15.443L9.96875 16.2242C8.25861 17.9333 5.4868 17.9324 3.77773 16.2223C2.06867 14.5121 2.06955 11.7403 3.77969 10.0312L5.66406 8.14688C7.30164 6.50799 9.93294 6.42989 11.6648 7.96875C11.9237 8.19829 11.9475 8.59424 11.718 8.85312C11.4884 9.11201 11.0925 9.13579 10.8336 8.90625C9.59666 7.8078 7.71796 7.86363 6.54844 9.03359L4.66406 10.9156C3.44343 12.1363 3.44343 14.1153 4.66406 15.3359C5.8847 16.5566 7.86374 16.5566 9.08438 15.3359L9.86094 14.5594C9.97817 14.442 10.1372 14.3761 10.3031 14.3761C10.469 14.3761 10.6281 14.442 10.7453 14.5594ZM16.2203 3.77813C14.5101 2.07178 11.7414 2.07178 10.0312 3.77813L9.25469 4.55547C9.01069 4.79968 9.01087 5.19546 9.25508 5.43945C9.49929 5.68345 9.89507 5.68328 10.1391 5.43906L10.9156 4.6625C12.1363 3.44186 14.1153 3.44186 15.3359 4.6625C16.5566 5.88314 16.5566 7.86218 15.3359 9.08281L13.4516 10.9688C12.2814 12.138 10.4027 12.1928 9.16641 11.0938C8.99894 10.9453 8.76497 10.8974 8.55264 10.9682C8.34032 11.039 8.18188 11.2177 8.13702 11.4369C8.09216 11.6562 8.16769 11.8828 8.33516 12.0312C10.0666 13.5705 12.6979 13.4931 14.3359 11.8547L16.2203 9.97031C17.9277 8.25995 17.9277 5.49005 16.2203 3.77969V3.77813Z" fill="#121712"/>
</g>
<defs>
<clipPath id="clip0_48_340">
<rect width="20" height="20" fill="white"/>
</clipPath>
</defs>
</svg>
