<svg width="66" height="54" viewBox="0 0 66 54" fill="none" xmlns="http://www.w3.org/2000/svg">
<g clip-path="url(#clip0_40_459)">
<path fill-rule="evenodd" clip-rule="evenodd" d="M31.5923 18.805C33.6562 17.431 34.577 14.8677 33.8593 12.4944C33.1415 10.1211 30.9545 8.49772 28.4751 8.49772C25.9957 8.49772 23.8087 10.1211 23.0909 12.4944C22.3732 14.8677 23.294 17.431 25.3579 18.805C23.5396 19.4752 21.9868 20.7153 20.931 22.3403C20.78 22.5647 20.7616 22.8531 20.8828 23.095C21.0039 23.3368 21.246 23.4947 21.5161 23.5081C21.7863 23.5215 22.0428 23.3884 22.1873 23.1597C23.5709 21.0317 25.9369 19.7479 28.4751 19.7479C31.0133 19.7479 33.3793 21.0317 34.7629 23.1597C34.9918 23.4999 35.4515 23.5932 35.7949 23.3692C36.1383 23.1452 36.2382 22.6869 36.0192 22.3403C34.9634 20.7153 33.4106 19.4752 31.5923 18.805ZM24.3501 14.125C24.3501 11.8468 26.1969 10 28.4751 10C30.7533 10 32.6001 11.8468 32.6001 14.125C32.6001 16.4032 30.7533 18.25 28.4751 18.25C26.198 18.2474 24.3527 16.4021 24.3501 14.125ZM44.0507 23.3781C43.7038 23.6043 43.2392 23.5066 43.0129 23.1597C41.6309 21.0303 39.2637 19.7466 36.7251 19.75C36.3109 19.75 35.9751 19.4142 35.9751 19C35.9751 18.5858 36.3109 18.25 36.7251 18.25C38.3864 18.2484 39.8847 17.2504 40.5262 15.718C41.1678 14.1855 40.8274 12.4178 39.6627 11.2331C38.4981 10.0484 36.7364 9.67805 35.1932 10.2934C34.9428 10.4017 34.6532 10.3654 34.4373 10.1986C34.2213 10.0319 34.1129 9.76096 34.1543 9.49125C34.1957 9.22154 34.3803 8.99558 34.6363 8.90125C37.311 7.83457 40.3593 8.96001 41.6991 11.5088C43.0389 14.0576 42.2375 17.2067 39.8423 18.805C41.6606 19.4752 43.2134 20.7153 44.2692 22.3403C44.4954 22.6872 44.3976 23.1518 44.0507 23.3781Z" fill="#6B806B"/>
</g>
<path d="M4.29612 49H2.89839L6.03902 40.2727H7.56033L10.701 49H9.30322L6.83589 41.858H6.76771L4.29612 49ZM4.5305 45.5824H9.06459V46.6903H4.5305V45.5824ZM14.5042 42.4545V43.4773H10.9289V42.4545H14.5042ZM11.8877 40.8864H13.1619V47.0781C13.1619 47.3253 13.1988 47.5114 13.2727 47.6364C13.3465 47.7585 13.4417 47.8423 13.5582 47.8878C13.6775 47.9304 13.8068 47.9517 13.946 47.9517C14.0483 47.9517 14.1377 47.9446 14.2144 47.9304C14.2911 47.9162 14.3508 47.9048 14.3934 47.8963L14.6235 48.9489C14.5497 48.9773 14.4446 49.0057 14.3082 49.0341C14.1718 49.0653 14.0014 49.0824 13.7968 49.0852C13.4616 49.0909 13.1491 49.0312 12.8593 48.9062C12.5696 48.7812 12.3352 48.5881 12.1562 48.3267C11.9772 48.0653 11.8877 47.7372 11.8877 47.3423V40.8864ZM18.9691 42.4545V43.4773H15.3938V42.4545H18.9691ZM16.3526 40.8864H17.6267V47.0781C17.6267 47.3253 17.6637 47.5114 17.7375 47.6364C17.8114 47.7585 17.9066 47.8423 18.023 47.8878C18.1424 47.9304 18.2716 47.9517 18.4108 47.9517C18.5131 47.9517 18.6026 47.9446 18.6793 47.9304C18.756 47.9162 18.8157 47.9048 18.8583 47.8963L19.0884 48.9489C19.0145 48.9773 18.9094 49.0057 18.773 49.0341C18.6367 49.0653 18.4662 49.0824 18.2617 49.0852C17.9264 49.0909 17.6139 49.0312 17.3242 48.9062C17.0344 48.7812 16.8 48.5881 16.621 48.3267C16.4421 48.0653 16.3526 47.7372 16.3526 47.3423V40.8864ZM23.1292 49.1321C22.4843 49.1321 21.9289 48.9943 21.463 48.7188C21 48.4403 20.642 48.0497 20.3892 47.5469C20.1392 47.0412 20.0142 46.4489 20.0142 45.7699C20.0142 45.0994 20.1392 44.5085 20.3892 43.9972C20.642 43.4858 20.9943 43.0866 21.446 42.7997C21.9005 42.5128 22.4318 42.3693 23.0397 42.3693C23.409 42.3693 23.767 42.4304 24.1136 42.5526C24.4602 42.6747 24.7713 42.8665 25.0468 43.1278C25.3224 43.3892 25.5397 43.7287 25.6988 44.1463C25.8579 44.5611 25.9375 45.0653 25.9375 45.6591V46.1108H20.7343V45.1562H24.6889C24.6889 44.821 24.6207 44.5241 24.4843 44.2656C24.348 44.0043 24.1562 43.7983 23.909 43.6477C23.6647 43.4972 23.3778 43.4219 23.0483 43.4219C22.6903 43.4219 22.3778 43.5099 22.1108 43.6861C21.8465 43.8594 21.642 44.0866 21.4971 44.3679C21.3551 44.6463 21.284 44.9489 21.284 45.2756V46.0213C21.284 46.4588 21.3608 46.831 21.5142 47.1378C21.6704 47.4446 21.8877 47.679 22.1661 47.8409C22.4446 48 22.7698 48.0795 23.142 48.0795C23.3835 48.0795 23.6036 48.0455 23.8025 47.9773C24.0014 47.9062 24.1733 47.8011 24.3181 47.6619C24.463 47.5227 24.5738 47.3509 24.6505 47.1463L25.8565 47.3636C25.7599 47.7187 25.5866 48.0298 25.3366 48.2969C25.0894 48.5611 24.7784 48.767 24.4034 48.9148C24.0312 49.0597 23.6065 49.1321 23.1292 49.1321ZM28.6253 45.1136V49H27.3512V42.4545H28.5742V43.5199H28.6551C28.8057 43.1733 29.0415 42.8949 29.3625 42.6847C29.6864 42.4744 30.0941 42.3693 30.5855 42.3693C31.0316 42.3693 31.4222 42.4631 31.7574 42.6506C32.0926 42.8352 32.3526 43.1108 32.5372 43.4773C32.7219 43.8437 32.8142 44.2969 32.8142 44.8366V49H31.5401V44.9901C31.5401 44.5156 31.4165 44.1449 31.1693 43.8778C30.9222 43.608 30.5827 43.473 30.1509 43.473C29.8554 43.473 29.5926 43.5369 29.3625 43.6648C29.1353 43.7926 28.9549 43.9801 28.8213 44.2273C28.6907 44.4716 28.6253 44.767 28.6253 45.1136ZM36.9733 49.1278C36.4449 49.1278 35.9733 48.9929 35.5585 48.723C35.1466 48.4503 34.8228 48.0625 34.587 47.5597C34.354 47.054 34.2375 46.4474 34.2375 45.7401C34.2375 45.0327 34.3554 44.4276 34.5912 43.9247C34.8299 43.4219 35.1566 43.0369 35.5713 42.7699C35.9861 42.5028 36.4563 42.3693 36.9818 42.3693C37.3881 42.3693 37.7148 42.4375 37.962 42.5739C38.212 42.7074 38.4051 42.8636 38.5415 43.0426C38.6807 43.2216 38.7887 43.3793 38.8654 43.5156H38.9421V40.2727H40.2162V49H38.9719V47.9815H38.8654C38.7887 48.1207 38.6779 48.2798 38.533 48.4588C38.3909 48.6378 38.1949 48.794 37.9449 48.9276C37.6949 49.0611 37.371 49.1278 36.9733 49.1278ZM37.2546 48.0412C37.621 48.0412 37.9307 47.9446 38.1835 47.7514C38.4392 47.5554 38.6324 47.2841 38.7631 46.9375C38.8966 46.5909 38.9634 46.1875 38.9634 45.7273C38.9634 45.2727 38.898 44.875 38.7674 44.5341C38.6367 44.1932 38.4449 43.9276 38.1921 43.7372C37.9392 43.5469 37.6267 43.4517 37.2546 43.4517C36.871 43.4517 36.5514 43.5511 36.2958 43.75C36.0401 43.9489 35.8469 44.2202 35.7162 44.5639C35.5884 44.9077 35.5245 45.2955 35.5245 45.7273C35.5245 46.1648 35.5898 46.5582 35.7205 46.9077C35.8512 47.2571 36.0443 47.5341 36.3 47.7386C36.5585 47.9403 36.8767 48.0412 37.2546 48.0412ZM44.8558 49.1321C44.2109 49.1321 43.6555 48.9943 43.1896 48.7188C42.7265 48.4403 42.3686 48.0497 42.1157 47.5469C41.8657 47.0412 41.7407 46.4489 41.7407 45.7699C41.7407 45.0994 41.8657 44.5085 42.1157 43.9972C42.3686 43.4858 42.7208 43.0866 43.1725 42.7997C43.6271 42.5128 44.1583 42.3693 44.7663 42.3693C45.1356 42.3693 45.4936 42.4304 45.8402 42.5526C46.1867 42.6747 46.4978 42.8665 46.7734 43.1278C47.049 43.3892 47.2663 43.7287 47.4254 44.1463C47.5845 44.5611 47.664 45.0653 47.664 45.6591V46.1108H42.4609V45.1562H46.4154C46.4154 44.821 46.3473 44.5241 46.2109 44.2656C46.0745 44.0043 45.8828 43.7983 45.6356 43.6477C45.3913 43.4972 45.1044 43.4219 44.7748 43.4219C44.4169 43.4219 44.1044 43.5099 43.8373 43.6861C43.5731 43.8594 43.3686 44.0866 43.2237 44.3679C43.0816 44.6463 43.0106 44.9489 43.0106 45.2756V46.0213C43.0106 46.4588 43.0873 46.831 43.2407 47.1378C43.397 47.4446 43.6143 47.679 43.8927 47.8409C44.1711 48 44.4964 48.0795 44.8686 48.0795C45.11 48.0795 45.3302 48.0455 45.5291 47.9773C45.7279 47.9062 45.8998 47.8011 46.0447 47.6619C46.1896 47.5227 46.3004 47.3509 46.3771 47.1463L47.5831 47.3636C47.4865 47.7187 47.3132 48.0298 47.0632 48.2969C46.816 48.5611 46.5049 48.767 46.1299 48.9148C45.7578 49.0597 45.3331 49.1321 44.8558 49.1321ZM51.8987 49.1321C51.2539 49.1321 50.6985 48.9943 50.2326 48.7188C49.7695 48.4403 49.4115 48.0497 49.1587 47.5469C48.9087 47.0412 48.7837 46.4489 48.7837 45.7699C48.7837 45.0994 48.9087 44.5085 49.1587 43.9972C49.4115 43.4858 49.7638 43.0866 50.2155 42.7997C50.6701 42.5128 51.2013 42.3693 51.8093 42.3693C52.1786 42.3693 52.5365 42.4304 52.8831 42.5526C53.2297 42.6747 53.5408 42.8665 53.8164 43.1278C54.0919 43.3892 54.3093 43.7287 54.4684 44.1463C54.6274 44.5611 54.707 45.0653 54.707 45.6591V46.1108H49.5039V45.1562H53.4584C53.4584 44.821 53.3902 44.5241 53.2539 44.2656C53.1175 44.0043 52.9257 43.7983 52.6786 43.6477C52.4343 43.4972 52.1473 43.4219 51.8178 43.4219C51.4598 43.4219 51.1473 43.5099 50.8803 43.6861C50.6161 43.8594 50.4115 44.0866 50.2666 44.3679C50.1246 44.6463 50.0536 44.9489 50.0536 45.2756V46.0213C50.0536 46.4588 50.1303 46.831 50.2837 47.1378C50.4399 47.4446 50.6573 47.679 50.9357 47.8409C51.2141 48 51.5394 48.0795 51.9115 48.0795C52.153 48.0795 52.3732 48.0455 52.572 47.9773C52.7709 47.9062 52.9428 47.8011 53.0877 47.6619C53.2326 47.5227 53.3434 47.3509 53.4201 47.1463L54.626 47.3636C54.5294 47.7187 54.3561 48.0298 54.1061 48.2969C53.859 48.5611 53.5479 48.767 53.1729 48.9148C52.8007 49.0597 52.376 49.1321 51.8987 49.1321ZM61.0255 44.0526L59.8707 44.2571C59.8224 44.1094 59.7457 43.9687 59.6406 43.8352C59.5383 43.7017 59.3991 43.5923 59.223 43.5071C59.0468 43.4219 58.8267 43.3793 58.5625 43.3793C58.2017 43.3793 57.9005 43.4602 57.659 43.6222C57.4176 43.7812 57.2968 43.9872 57.2968 44.2401C57.2968 44.4588 57.3778 44.6349 57.5397 44.7685C57.7017 44.902 57.963 45.0114 58.3238 45.0966L59.3636 45.3352C59.9659 45.4744 60.4147 45.6889 60.7102 45.9787C61.0056 46.2685 61.1534 46.6449 61.1534 47.108C61.1534 47.5 61.0397 47.8494 60.8125 48.1562C60.588 48.4602 60.2741 48.6989 59.8707 48.8722C59.4701 49.0455 59.0056 49.1321 58.4772 49.1321C57.7443 49.1321 57.1463 48.9759 56.6832 48.6634C56.2201 48.348 55.936 47.9006 55.8309 47.321L57.0625 47.1335C57.1392 47.4545 57.2968 47.6974 57.5355 47.8622C57.7741 48.0241 58.0852 48.1051 58.4687 48.1051C58.8863 48.1051 59.2201 48.0185 59.4701 47.8452C59.7201 47.669 59.8451 47.4545 59.8451 47.2017C59.8451 46.9972 59.7684 46.8253 59.615 46.6861C59.4644 46.5469 59.2329 46.4418 58.9204 46.3707L57.8125 46.1278C57.2017 45.9886 56.75 45.767 56.4573 45.4631C56.1676 45.1591 56.0227 44.7741 56.0227 44.3082C56.0227 43.9219 56.1306 43.5838 56.3465 43.294C56.5625 43.0043 56.8608 42.7784 57.2414 42.6165C57.6221 42.4517 58.0582 42.3693 58.5497 42.3693C59.2571 42.3693 59.8139 42.5227 60.2201 42.8295C60.6264 43.1335 60.8948 43.5412 61.0255 44.0526Z" fill="#6B806B"/>
<defs>
<clipPath id="clip0_40_459">
<rect width="24" height="24" fill="white" transform="translate(20.6001 4)"/>
</clipPath>
</defs>
</svg>
