<svg width="66" height="54" viewBox="0 0 66 54" fill="none" xmlns="http://www.w3.org/2000/svg">
<g clip-path="url(#clip0_40_473)">
<path fill-rule="evenodd" clip-rule="evenodd" d="M43.1001 15.25C43.0975 12.7658 41.0843 10.7526 38.6001 10.75H34.8688C34.596 10.7341 29.842 10.3994 25.3148 6.6025C24.8685 6.22765 24.2454 6.14529 23.717 6.3913C23.1886 6.63731 22.8505 7.16714 22.8501 7.75V22.75C22.8502 23.333 23.1881 23.8632 23.7166 24.1094C24.245 24.3557 24.8683 24.2734 25.3148 23.8984C28.8557 20.9284 32.5335 20.0772 34.1001 19.8391V22.8128C34.0995 23.3148 34.35 23.7839 34.7676 24.0625L35.7988 24.7497C36.2033 25.0196 36.7135 25.0768 37.1677 24.903C37.6218 24.7292 37.9636 24.346 38.0845 23.875L39.1879 19.7163C41.427 19.4183 43.0996 17.5088 43.1001 15.25ZM24.3501 22.7434V7.75C28.3635 11.1166 32.4717 11.9688 34.1001 12.1788V18.3175C32.4735 18.5312 28.3663 19.3816 24.3501 22.7434ZM36.6313 23.4934V23.5037L35.6001 22.8166V19.75H37.6251L36.6313 23.4934ZM38.6001 18.25H35.6001V12.25H38.6001C40.257 12.25 41.6001 13.5931 41.6001 15.25C41.6001 16.9069 40.257 18.25 38.6001 18.25Z" fill="#6B806B"/>
</g>
<path d="M9.0589 49V40.2727H12.1697C12.8487 40.2727 13.4112 40.3963 13.8572 40.6435C14.3032 40.8906 14.637 41.2287 14.8586 41.6577C15.0802 42.0838 15.191 42.5639 15.191 43.098C15.191 43.6349 15.0788 44.1179 14.8544 44.5469C14.6328 44.973 14.2975 45.3111 13.8487 45.5611C13.4027 45.8082 12.8416 45.9318 12.1654 45.9318H10.0262V44.8153H12.0461C12.4751 44.8153 12.8231 44.7415 13.0902 44.5938C13.3572 44.4432 13.5532 44.2386 13.6782 43.9801C13.8032 43.7216 13.8657 43.4276 13.8657 43.098C13.8657 42.7685 13.8032 42.4759 13.6782 42.2202C13.5532 41.9645 13.3558 41.7642 13.0859 41.6193C12.8188 41.4744 12.4666 41.402 12.0291 41.402H10.3757V49H9.0589ZM16.6324 49V42.4545H17.8639V43.4943H17.9321C18.0514 43.142 18.2617 42.8651 18.5628 42.6634C18.8668 42.4588 19.2105 42.3565 19.5941 42.3565C19.6736 42.3565 19.7674 42.3594 19.8753 42.3651C19.9861 42.3707 20.0728 42.3778 20.1353 42.3864V43.6051C20.0841 43.5909 19.9932 43.5753 19.8625 43.5582C19.7318 43.5384 19.6012 43.5284 19.4705 43.5284C19.1693 43.5284 18.9009 43.5923 18.6651 43.7202C18.4321 43.8452 18.2475 44.0199 18.1111 44.2443C17.9747 44.4659 17.9066 44.7187 17.9066 45.0028V49H16.6324ZM23.7606 49.1321C23.147 49.1321 22.6115 48.9915 22.1541 48.7102C21.6967 48.429 21.3416 48.0355 21.0887 47.5298C20.8359 47.0241 20.7095 46.4332 20.7095 45.7571C20.7095 45.0781 20.8359 44.4844 21.0887 43.9759C21.3416 43.4673 21.6967 43.0724 22.1541 42.7912C22.6115 42.5099 23.147 42.3693 23.7606 42.3693C24.3742 42.3693 24.9098 42.5099 25.3671 42.7912C25.8245 43.0724 26.1796 43.4673 26.4325 43.9759C26.6853 44.4844 26.8117 45.0781 26.8117 45.7571C26.8117 46.4332 26.6853 47.0241 26.4325 47.5298C26.1796 48.0355 25.8245 48.429 25.3671 48.7102C24.9098 48.9915 24.3742 49.1321 23.7606 49.1321ZM23.7649 48.0625C24.1626 48.0625 24.4921 47.9574 24.7535 47.7472C25.0149 47.5369 25.2081 47.2571 25.3331 46.9077C25.4609 46.5582 25.5248 46.1733 25.5248 45.7528C25.5248 45.3352 25.4609 44.9517 25.3331 44.6023C25.2081 44.25 25.0149 43.9673 24.7535 43.7543C24.4921 43.5412 24.1626 43.4347 23.7649 43.4347C23.3643 43.4347 23.0319 43.5412 22.7677 43.7543C22.5063 43.9673 22.3117 44.25 22.1839 44.6023C22.0589 44.9517 21.9964 45.3352 21.9964 45.7528C21.9964 46.1733 22.0589 46.5582 22.1839 46.9077C22.3117 47.2571 22.5063 47.5369 22.7677 47.7472C23.0319 47.9574 23.3643 48.0625 23.7649 48.0625ZM28.234 49V42.4545H29.457V43.5199H29.538C29.6743 43.1591 29.8973 42.8778 30.207 42.6761C30.5166 42.4716 30.8874 42.3693 31.3192 42.3693C31.7567 42.3693 32.1232 42.4716 32.4186 42.6761C32.7169 42.8807 32.9371 43.1619 33.0791 43.5199H33.1473C33.3036 43.1705 33.5522 42.892 33.8931 42.6847C34.234 42.4744 34.6402 42.3693 35.1118 42.3693C35.7056 42.3693 36.1899 42.5554 36.5649 42.9276C36.9428 43.2997 37.1317 43.8608 37.1317 44.6108V49H35.8576V44.7301C35.8576 44.2869 35.7368 43.9659 35.4953 43.767C35.2539 43.5682 34.9655 43.4688 34.6303 43.4688C34.2155 43.4688 33.8931 43.5966 33.663 43.8523C33.4328 44.1051 33.3178 44.4304 33.3178 44.8281V49H32.0479V44.6491C32.0479 44.294 31.9371 44.0085 31.7155 43.7926C31.4939 43.5767 31.2056 43.4688 30.8505 43.4688C30.609 43.4688 30.386 43.5327 30.1814 43.6605C29.9797 43.7855 29.8164 43.9602 29.6914 44.1847C29.5692 44.4091 29.5081 44.669 29.5081 44.9645V49H28.234ZM41.5965 49.1321C40.9829 49.1321 40.4474 48.9915 39.99 48.7102C39.5326 48.429 39.1775 48.0355 38.9247 47.5298C38.6718 47.0241 38.5454 46.4332 38.5454 45.7571C38.5454 45.0781 38.6718 44.4844 38.9247 43.9759C39.1775 43.4673 39.5326 43.0724 39.99 42.7912C40.4474 42.5099 40.9829 42.3693 41.5965 42.3693C42.2102 42.3693 42.7457 42.5099 43.2031 42.7912C43.6605 43.0724 44.0156 43.4673 44.2684 43.9759C44.5213 44.4844 44.6477 45.0781 44.6477 45.7571C44.6477 46.4332 44.5213 47.0241 44.2684 47.5298C44.0156 48.0355 43.6605 48.429 43.2031 48.7102C42.7457 48.9915 42.2102 49.1321 41.5965 49.1321ZM41.6008 48.0625C41.9985 48.0625 42.3281 47.9574 42.5894 47.7472C42.8508 47.5369 43.044 47.2571 43.169 46.9077C43.2968 46.5582 43.3608 46.1733 43.3608 45.7528C43.3608 45.3352 43.2968 44.9517 43.169 44.6023C43.044 44.25 42.8508 43.9673 42.5894 43.7543C42.3281 43.5412 41.9985 43.4347 41.6008 43.4347C41.2002 43.4347 40.8679 43.5412 40.6036 43.7543C40.3423 43.9673 40.1477 44.25 40.0198 44.6023C39.8948 44.9517 39.8323 45.3352 39.8323 45.7528C39.8323 46.1733 39.8948 46.5582 40.0198 46.9077C40.1477 47.2571 40.3423 47.5369 40.6036 47.7472C40.8679 47.9574 41.2002 48.0625 41.6008 48.0625ZM49.1253 42.4545V43.4773H45.55V42.4545H49.1253ZM46.5088 40.8864H47.783V47.0781C47.783 47.3253 47.8199 47.5114 47.8938 47.6364C47.9676 47.7585 48.0628 47.8423 48.1793 47.8878C48.2986 47.9304 48.4279 47.9517 48.5671 47.9517C48.6693 47.9517 48.7588 47.9446 48.8355 47.9304C48.9122 47.9162 48.9719 47.9048 49.0145 47.8963L49.2446 48.9489C49.1708 48.9773 49.0657 49.0057 48.9293 49.0341C48.7929 49.0653 48.6225 49.0824 48.4179 49.0852C48.0827 49.0909 47.7702 49.0312 47.4804 48.9062C47.1907 48.7812 46.9563 48.5881 46.7773 48.3267C46.5983 48.0653 46.5088 47.7372 46.5088 47.3423V40.8864ZM53.2855 49.1321C52.6406 49.1321 52.0852 48.9943 51.6193 48.7188C51.1562 48.4403 50.7983 48.0497 50.5454 47.5469C50.2954 47.0412 50.1704 46.4489 50.1704 45.7699C50.1704 45.0994 50.2954 44.5085 50.5454 43.9972C50.7983 43.4858 51.1505 43.0866 51.6022 42.7997C52.0568 42.5128 52.588 42.3693 53.196 42.3693C53.5653 42.3693 53.9233 42.4304 54.2698 42.5526C54.6164 42.6747 54.9275 42.8665 55.2031 43.1278C55.4786 43.3892 55.696 43.7287 55.8551 44.1463C56.0142 44.5611 56.0937 45.0653 56.0937 45.6591V46.1108H50.8906V45.1562H54.8451C54.8451 44.821 54.7769 44.5241 54.6406 44.2656C54.5042 44.0043 54.3125 43.7983 54.0653 43.6477C53.821 43.4972 53.534 43.4219 53.2045 43.4219C52.8465 43.4219 52.534 43.5099 52.267 43.6861C52.0028 43.8594 51.7983 44.0866 51.6534 44.3679C51.5113 44.6463 51.4403 44.9489 51.4403 45.2756V46.0213C51.4403 46.4588 51.517 46.831 51.6704 47.1378C51.8267 47.4446 52.044 47.679 52.3224 47.8409C52.6008 48 52.9261 48.0795 53.2983 48.0795C53.5397 48.0795 53.7599 48.0455 53.9588 47.9773C54.1576 47.9062 54.3295 47.8011 54.4744 47.6619C54.6193 47.5227 54.7301 47.3509 54.8068 47.1463L56.0127 47.3636C55.9161 47.7187 55.7429 48.0298 55.4929 48.2969C55.2457 48.5611 54.9346 48.767 54.5596 48.9148C54.1875 49.0597 53.7627 49.1321 53.2855 49.1321Z" fill="#6B806B"/>
<defs>
<clipPath id="clip0_40_473">
<rect width="24" height="24" fill="white" transform="translate(20.6001 4)"/>
</clipPath>
</defs>
</svg>
