<svg width="66" height="54" viewBox="0 0 66 54" fill="none" xmlns="http://www.w3.org/2000/svg">
<g clip-path="url(#clip0_40_480)">
<path fill-rule="evenodd" clip-rule="evenodd" d="M32.6001 11.5C30.1148 11.5 28.1001 13.5147 28.1001 16C28.1001 18.4853 30.1148 20.5 32.6001 20.5C35.0854 20.5 37.1001 18.4853 37.1001 16C37.0975 13.5158 35.0843 11.5026 32.6001 11.5ZM32.6001 19C30.9432 19 29.6001 17.6569 29.6001 16C29.6001 14.3431 30.9432 13 32.6001 13C34.257 13 35.6001 14.3431 35.6001 16C35.6001 17.6569 34.257 19 32.6001 19ZM40.8501 16.2025C40.8538 16.0675 40.8538 15.9325 40.8501 15.7975L42.2488 14.05C42.3976 13.8639 42.4491 13.6183 42.3876 13.3881C42.1583 12.5262 41.8153 11.6986 41.3676 10.9272C41.2487 10.7225 41.0402 10.5859 40.8051 10.5588L38.5813 10.3113C38.4888 10.2138 38.3951 10.12 38.3001 10.03L38.0376 7.80063C38.0102 7.56531 37.8733 7.35677 37.6682 7.23813C36.8965 6.79126 36.069 6.44859 35.2073 6.21906C34.977 6.15784 34.7313 6.20969 34.5454 6.35875L32.8026 7.75C32.6676 7.75 32.5326 7.75 32.3976 7.75L30.6501 6.35406C30.464 6.20533 30.2184 6.15383 29.9882 6.21531C29.1264 6.44503 28.2989 6.78802 27.5273 7.23531C27.3226 7.35417 27.186 7.56268 27.1588 7.79781L26.9113 10.0253C26.8138 10.1184 26.7201 10.2122 26.6301 10.3066L24.4007 10.5625C24.1654 10.5899 23.9569 10.7268 23.8382 10.9319C23.3914 11.7036 23.0487 12.5311 22.8192 13.3928C22.7579 13.6231 22.8098 13.8688 22.9588 14.0547L24.3501 15.7975C24.3501 15.9325 24.3501 16.0675 24.3501 16.2025L22.9542 17.95C22.8054 18.1361 22.7539 18.3817 22.8154 18.6119C23.0447 19.4738 23.3877 20.3014 23.8354 21.0728C23.9543 21.2775 24.1628 21.4141 24.3979 21.4412L26.6217 21.6887C26.7148 21.7862 26.8085 21.88 26.9029 21.97L27.1626 24.1994C27.19 24.4347 27.3269 24.6432 27.532 24.7619C28.3037 25.2087 29.1312 25.5514 29.9929 25.7809C30.2232 25.8422 30.4689 25.7903 30.6548 25.6413L32.3976 24.25C32.5326 24.2537 32.6676 24.2537 32.8026 24.25L34.5501 25.6488C34.7362 25.7975 34.9818 25.849 35.212 25.7875C36.0739 25.5582 36.9015 25.2152 37.6729 24.7675C37.8776 24.6486 38.0142 24.4401 38.0413 24.205L38.2888 21.9813C38.3863 21.8888 38.4801 21.795 38.5701 21.7L40.7995 21.4375C41.0348 21.4101 41.2433 21.2732 41.362 21.0681C41.8088 20.2964 42.1515 19.4689 42.381 18.6072C42.4423 18.3769 42.3904 18.1312 42.2413 17.9453L40.8501 16.2025ZM39.3407 15.5931C39.3567 15.8641 39.3567 16.1359 39.3407 16.4069C39.3296 16.5924 39.3877 16.7755 39.5038 16.9206L40.8342 18.5828C40.6815 19.0679 40.4861 19.5385 40.2501 19.9891L38.1313 20.2291C37.9468 20.2495 37.7765 20.3377 37.6532 20.4766C37.4728 20.6795 37.2806 20.8717 37.0776 21.0522C36.9388 21.1754 36.8506 21.3458 36.8301 21.5303L36.5948 23.6472C36.1443 23.8833 35.6737 24.0787 35.1885 24.2313L33.5254 22.9009C33.3923 22.7946 33.227 22.7367 33.0567 22.7369H33.0117C32.7406 22.7528 32.4689 22.7528 32.1979 22.7369C32.0124 22.7257 31.8293 22.7838 31.6842 22.9L30.0173 24.2313C29.5322 24.0786 29.0616 23.8831 28.611 23.6472L28.371 21.5312C28.3506 21.3467 28.2624 21.1764 28.1235 21.0531C27.9206 20.8727 27.7284 20.6805 27.5479 20.4775C27.4247 20.3387 27.2543 20.2505 27.0698 20.23L24.9529 19.9937C24.7168 19.5433 24.5214 19.0727 24.3688 18.5875L25.6992 16.9244C25.8153 16.7793 25.8735 16.5962 25.8623 16.4106C25.8463 16.1396 25.8463 15.8679 25.8623 15.5969C25.8735 15.4113 25.8153 15.2282 25.6992 15.0831L24.3688 13.4172C24.5215 12.9321 24.717 12.4615 24.9529 12.0109L27.0688 11.7709C27.2534 11.7505 27.4237 11.6623 27.547 11.5234C27.7274 11.3205 27.9196 11.1283 28.1226 10.9478C28.262 10.8245 28.3505 10.6537 28.371 10.4688L28.6063 8.35281C29.0568 8.11674 29.5274 7.92128 30.0126 7.76875L31.6757 9.09906C31.8208 9.21522 32.0039 9.27336 32.1895 9.26219C32.4605 9.24625 32.7322 9.24625 33.0032 9.26219C33.1888 9.27336 33.3719 9.21522 33.517 9.09906L35.1829 7.76875C35.668 7.9214 36.1386 8.11685 36.5892 8.35281L36.8292 10.4688C36.8496 10.6533 36.9378 10.8236 37.0767 10.9469C37.2796 11.1273 37.4718 11.3195 37.6523 11.5225C37.7755 11.6613 37.9459 11.7495 38.1304 11.77L40.2473 12.0053C40.4834 12.4558 40.6788 12.9264 40.8313 13.4116L39.501 15.0747C39.3838 15.221 39.3256 15.406 39.3379 15.5931H39.3407Z" fill="#6B806B"/>
</g>
<path d="M14.3188 42.5653C14.2734 42.1619 14.0859 41.8494 13.7563 41.6278C13.4268 41.4034 13.012 41.2912 12.512 41.2912C12.1541 41.2912 11.8444 41.348 11.5831 41.4616C11.3217 41.5724 11.1186 41.7259 10.9737 41.9219C10.8316 42.1151 10.7606 42.3352 10.7606 42.5824C10.7606 42.7898 10.8089 42.9687 10.9055 43.1193C11.0049 43.2699 11.1342 43.3963 11.2933 43.4986C11.4552 43.598 11.6285 43.6818 11.8132 43.75C11.9978 43.8153 12.1754 43.8693 12.3458 43.9119L13.1981 44.1335C13.4765 44.2017 13.762 44.294 14.0546 44.4105C14.3473 44.527 14.6186 44.6804 14.8686 44.8707C15.1186 45.0611 15.3203 45.2969 15.4737 45.5781C15.6299 45.8594 15.7081 46.196 15.7081 46.5881C15.7081 47.0824 15.5802 47.5213 15.3245 47.9048C15.0717 48.2884 14.7038 48.5909 14.2208 48.8125C13.7407 49.0341 13.1598 49.1449 12.4779 49.1449C11.8245 49.1449 11.2592 49.0412 10.7819 48.8338C10.3046 48.6264 9.93106 48.3324 9.66118 47.9517C9.39129 47.5682 9.24214 47.1136 9.21373 46.5881H10.5348C10.5603 46.9034 10.6626 47.1662 10.8416 47.3764C11.0234 47.5838 11.2549 47.7386 11.5362 47.8409C11.8203 47.9403 12.1313 47.9901 12.4694 47.9901C12.8416 47.9901 13.1725 47.9318 13.4623 47.8153C13.7549 47.696 13.985 47.5312 14.1527 47.321C14.3203 47.108 14.4041 46.8594 14.4041 46.5753C14.4041 46.3168 14.3302 46.1051 14.1825 45.9403C14.0376 45.7756 13.8402 45.6392 13.5902 45.5312C13.343 45.4233 13.0632 45.3281 12.7507 45.2457L11.7194 44.9645C11.0206 44.7741 10.4666 44.4943 10.0575 44.125C9.65123 43.7557 9.44811 43.267 9.44811 42.6591C9.44811 42.1562 9.58447 41.7173 9.8572 41.3423C10.1299 40.9673 10.4992 40.6761 10.9652 40.4688C11.4311 40.2585 11.9566 40.1534 12.5419 40.1534C13.1328 40.1534 13.6541 40.2571 14.1058 40.4645C14.5603 40.6719 14.9183 40.9574 15.1796 41.321C15.441 41.6818 15.5774 42.0966 15.5887 42.5653H14.3188ZM20.0003 49.1321C19.3554 49.1321 18.8 48.9943 18.3341 48.7188C17.871 48.4403 17.5131 48.0497 17.2603 47.5469C17.0103 47.0412 16.8853 46.4489 16.8853 45.7699C16.8853 45.0994 17.0103 44.5085 17.2603 43.9972C17.5131 43.4858 17.8654 43.0866 18.3171 42.7997C18.7716 42.5128 19.3029 42.3693 19.9108 42.3693C20.2801 42.3693 20.6381 42.4304 20.9847 42.5526C21.3313 42.6747 21.6424 42.8665 21.9179 43.1278C22.1935 43.3892 22.4108 43.7287 22.5699 44.1463C22.729 44.5611 22.8085 45.0653 22.8085 45.6591V46.1108H17.6054V45.1562H21.56C21.56 44.821 21.4918 44.5241 21.3554 44.2656C21.2191 44.0043 21.0273 43.7983 20.7801 43.6477C20.5358 43.4972 20.2489 43.4219 19.9193 43.4219C19.5614 43.4219 19.2489 43.5099 18.9818 43.6861C18.7176 43.8594 18.5131 44.0866 18.3682 44.3679C18.2262 44.6463 18.1551 44.9489 18.1551 45.2756V46.0213C18.1551 46.4588 18.2318 46.831 18.3853 47.1378C18.5415 47.4446 18.7588 47.679 19.0372 47.8409C19.3157 48 19.6409 48.0795 20.0131 48.0795C20.2546 48.0795 20.4747 48.0455 20.6736 47.9773C20.8725 47.9062 21.0443 47.8011 21.1892 47.6619C21.3341 47.5227 21.4449 47.3509 21.5216 47.1463L22.7276 47.3636C22.631 47.7187 22.4577 48.0298 22.2077 48.2969C21.9605 48.5611 21.6495 48.767 21.2745 48.9148C20.9023 49.0597 20.4776 49.1321 20.0003 49.1321ZM27.2777 42.4545V43.4773H23.7024V42.4545H27.2777ZM24.6612 40.8864H25.9353V47.0781C25.9353 47.3253 25.9723 47.5114 26.0461 47.6364C26.12 47.7585 26.2152 47.8423 26.3316 47.8878C26.451 47.9304 26.5802 47.9517 26.7194 47.9517C26.8217 47.9517 26.9112 47.9446 26.9879 47.9304C27.0646 47.9162 27.1242 47.9048 27.1669 47.8963L27.397 48.9489C27.3231 48.9773 27.218 49.0057 27.0816 49.0341C26.9453 49.0653 26.7748 49.0824 26.5703 49.0852C26.235 49.0909 25.9225 49.0312 25.6328 48.9062C25.343 48.7812 25.1086 48.5881 24.9296 48.3267C24.7507 48.0653 24.6612 47.7372 24.6612 47.3423V40.8864ZM31.7425 42.4545V43.4773H28.1672V42.4545H31.7425ZM29.126 40.8864H30.4002V47.0781C30.4002 47.3253 30.4371 47.5114 30.511 47.6364C30.5848 47.7585 30.68 47.8423 30.7965 47.8878C30.9158 47.9304 31.0451 47.9517 31.1843 47.9517C31.2865 47.9517 31.376 47.9446 31.4527 47.9304C31.5294 47.9162 31.5891 47.9048 31.6317 47.8963L31.8618 48.9489C31.788 48.9773 31.6828 49.0057 31.5465 49.0341C31.4101 49.0653 31.2397 49.0824 31.0351 49.0852C30.6999 49.0909 30.3874 49.0312 30.0976 48.9062C29.8078 48.7812 29.5735 48.5881 29.3945 48.3267C29.2155 48.0653 29.126 47.7372 29.126 47.3423V40.8864ZM33.1519 49V42.4545H34.4261V49H33.1519ZM33.7954 41.4446C33.5738 41.4446 33.3835 41.3707 33.2244 41.223C33.0681 41.0724 32.99 40.8935 32.99 40.6861C32.99 40.4759 33.0681 40.2969 33.2244 40.1491C33.3835 39.9986 33.5738 39.9233 33.7954 39.9233C34.017 39.9233 34.2059 39.9986 34.3622 40.1491C34.5213 40.2969 34.6008 40.4759 34.6008 40.6861C34.6008 40.8935 34.5213 41.0724 34.3622 41.223C34.2059 41.3707 34.017 41.4446 33.7954 41.4446ZM37.4144 45.1136V49H36.1402V42.4545H37.3632V43.5199H37.4442C37.5948 43.1733 37.8306 42.8949 38.1516 42.6847C38.4755 42.4744 38.8831 42.3693 39.3746 42.3693C39.8206 42.3693 40.2112 42.4631 40.5465 42.6506C40.8817 42.8352 41.1416 43.1108 41.3263 43.4773C41.511 43.8437 41.6033 44.2969 41.6033 44.8366V49H40.3291V44.9901C40.3291 44.5156 40.2056 44.1449 39.9584 43.8778C39.7112 43.608 39.3718 43.473 38.9399 43.473C38.6445 43.473 38.3817 43.5369 38.1516 43.6648C37.9243 43.7926 37.7439 43.9801 37.6104 44.2273C37.4797 44.4716 37.4144 44.767 37.4144 45.1136ZM46.0564 51.5909C45.5365 51.5909 45.0891 51.5227 44.7141 51.3864C44.3419 51.25 44.038 51.0696 43.8022 50.8452C43.5664 50.6207 43.3902 50.375 43.2737 50.108L44.3689 49.6562C44.4456 49.7812 44.5479 49.9134 44.6757 50.0526C44.8064 50.1946 44.9826 50.3153 45.2041 50.4148C45.4286 50.5142 45.7169 50.5639 46.0692 50.5639C46.5522 50.5639 46.9513 50.446 47.2666 50.2102C47.582 49.9773 47.7397 49.6051 47.7397 49.0938V47.8068H47.6587C47.582 47.946 47.4712 48.1009 47.3263 48.2713C47.1843 48.4418 46.9882 48.5895 46.7382 48.7145C46.4882 48.8395 46.163 48.902 45.7624 48.902C45.2453 48.902 44.7794 48.7812 44.3647 48.5398C43.9527 48.2955 43.626 47.9361 43.3845 47.4616C43.1459 46.9844 43.0266 46.3977 43.0266 45.7017C43.0266 45.0057 43.1445 44.4091 43.3803 43.9119C43.6189 43.4148 43.9456 43.0341 44.3604 42.7699C44.7752 42.5028 45.2453 42.3693 45.7709 42.3693C46.1772 42.3693 46.5053 42.4375 46.7553 42.5739C47.0053 42.7074 47.1999 42.8636 47.3391 43.0426C47.4811 43.2216 47.5905 43.3793 47.6672 43.5156H47.761V42.4545H49.0095V49.1449C49.0095 49.7074 48.8789 50.169 48.6175 50.5298C48.3561 50.8906 48.0024 51.1577 47.5564 51.331C47.1132 51.5043 46.6132 51.5909 46.0564 51.5909ZM46.0436 47.8452C46.4101 47.8452 46.7198 47.7599 46.9726 47.5895C47.2283 47.4162 47.4215 47.169 47.5522 46.848C47.6857 46.5241 47.7524 46.1364 47.7524 45.6847C47.7524 45.2443 47.6871 44.8565 47.5564 44.5213C47.4257 44.1861 47.234 43.9247 46.9811 43.7372C46.7283 43.5469 46.4158 43.4517 46.0436 43.4517C45.6601 43.4517 45.3405 43.5511 45.0848 43.75C44.8291 43.946 44.636 44.2131 44.5053 44.5511C44.3774 44.8892 44.3135 45.267 44.3135 45.6847C44.3135 46.1136 44.3789 46.4901 44.5095 46.8139C44.6402 47.1378 44.8334 47.3906 45.0891 47.5724C45.3476 47.7543 45.6658 47.8452 46.0436 47.8452ZM55.6232 44.0526L54.4684 44.2571C54.4201 44.1094 54.3434 43.9687 54.2382 43.8352C54.136 43.7017 53.9968 43.5923 53.8206 43.5071C53.6445 43.4219 53.4243 43.3793 53.1601 43.3793C52.7993 43.3793 52.4982 43.4602 52.2567 43.6222C52.0152 43.7812 51.8945 43.9872 51.8945 44.2401C51.8945 44.4588 51.9755 44.6349 52.1374 44.7685C52.2993 44.902 52.5607 45.0114 52.9215 45.0966L53.9612 45.3352C54.5635 45.4744 55.0124 45.6889 55.3078 45.9787C55.6033 46.2685 55.751 46.6449 55.751 47.108C55.751 47.5 55.6374 47.8494 55.4101 48.1562C55.1857 48.4602 54.8718 48.6989 54.4684 48.8722C54.0678 49.0455 53.6033 49.1321 53.0749 49.1321C52.3419 49.1321 51.7439 48.9759 51.2809 48.6634C50.8178 48.348 50.5337 47.9006 50.4286 47.321L51.6601 47.1335C51.7368 47.4545 51.8945 47.6974 52.1331 47.8622C52.3718 48.0241 52.6828 48.1051 53.0664 48.1051C53.484 48.1051 53.8178 48.0185 54.0678 47.8452C54.3178 47.669 54.4428 47.4545 54.4428 47.2017C54.4428 46.9972 54.3661 46.8253 54.2127 46.6861C54.0621 46.5469 53.8306 46.4418 53.5181 46.3707L52.4101 46.1278C51.7993 45.9886 51.3476 45.767 51.055 45.4631C50.7652 45.1591 50.6203 44.7741 50.6203 44.3082C50.6203 43.9219 50.7283 43.5838 50.9442 43.294C51.1601 43.0043 51.4584 42.7784 51.8391 42.6165C52.2198 42.4517 52.6559 42.3693 53.1473 42.3693C53.8547 42.3693 54.4115 42.5227 54.8178 42.8295C55.224 43.1335 55.4925 43.5412 55.6232 44.0526Z" fill="#6B806B"/>
<defs>
<clipPath id="clip0_40_480">
<rect width="24" height="24" fill="white" transform="translate(20.6001 4)"/>
</clipPath>
</defs>
</svg>
