<svg width="66" height="54" viewBox="0 0 66 54" fill="none" xmlns="http://www.w3.org/2000/svg">
<g clip-path="url(#clip0_40_466)">
<path fill-rule="evenodd" clip-rule="evenodd" d="M40.1001 7H37.8501V6.25C37.8501 5.83579 37.5143 5.5 37.1001 5.5C36.6859 5.5 36.3501 5.83579 36.3501 6.25V7H28.8501V6.25C28.8501 5.83579 28.5143 5.5 28.1001 5.5C27.6859 5.5 27.3501 5.83579 27.3501 6.25V7H25.1001C24.2717 7 23.6001 7.67157 23.6001 8.5V23.5C23.6001 24.3284 24.2717 25 25.1001 25H40.1001C40.9285 25 41.6001 24.3284 41.6001 23.5V8.5C41.6001 7.67157 40.9285 7 40.1001 7ZM27.3501 8.5V9.25C27.3501 9.66421 27.6859 10 28.1001 10C28.5143 10 28.8501 9.66421 28.8501 9.25V8.5H36.3501V9.25C36.3501 9.66421 36.6859 10 37.1001 10C37.5143 10 37.8501 9.66421 37.8501 9.25V8.5H40.1001V11.5H25.1001V8.5H27.3501ZM40.1001 23.5H25.1001V13H40.1001V23.5ZM31.1001 15.25V21.25C31.1001 21.6642 30.7643 22 30.3501 22C29.9359 22 29.6001 21.6642 29.6001 21.25V16.4631L29.1857 16.6713C28.815 16.8566 28.3642 16.7063 28.1788 16.3356C27.9935 15.9649 28.1438 15.5141 28.5145 15.3287L30.0145 14.5787C30.2471 14.4624 30.5233 14.4748 30.7445 14.6116C30.9657 14.7483 31.1003 14.9899 31.1001 15.25ZM36.6463 18.1047L34.8501 20.5H36.3501C36.7643 20.5 37.1001 20.8358 37.1001 21.25C37.1001 21.6642 36.7643 22 36.3501 22H33.3501C33.066 22 32.8063 21.8395 32.6793 21.5854C32.5522 21.3313 32.5796 21.0273 32.7501 20.8L35.4482 17.2028C35.6154 16.9802 35.6456 16.6833 35.5265 16.4316C35.4074 16.1799 35.1587 16.0149 34.8805 16.003C34.6024 15.9912 34.3405 16.1344 34.2004 16.375C34.0703 16.6146 33.8204 16.7647 33.5477 16.7671C33.2751 16.7694 33.0227 16.6236 32.8885 16.3863C32.7542 16.1489 32.7594 15.8574 32.902 15.625C33.4113 14.7435 34.4491 14.3139 35.4325 14.5774C36.4159 14.8409 37.0998 15.7319 37.1001 16.75C37.1017 17.2391 36.9422 17.7152 36.6463 18.1047Z" fill="#6B806B"/>
</g>
<path d="M11.3188 42.5653C11.2734 42.1619 11.0859 41.8494 10.7563 41.6278C10.4268 41.4034 10.012 41.2912 9.51203 41.2912C9.15408 41.2912 8.84442 41.348 8.58305 41.4616C8.32169 41.5724 8.11856 41.7259 7.97368 41.9219C7.83163 42.1151 7.76061 42.3352 7.76061 42.5824C7.76061 42.7898 7.8089 42.9687 7.9055 43.1193C8.00493 43.2699 8.13419 43.3963 8.29328 43.4986C8.45521 43.598 8.62851 43.6818 8.81317 43.75C8.99782 43.8153 9.17538 43.8693 9.34584 43.9119L10.1981 44.1335C10.4765 44.2017 10.762 44.294 11.0546 44.4105C11.3473 44.527 11.6186 44.6804 11.8686 44.8707C12.1186 45.0611 12.3203 45.2969 12.4737 45.5781C12.6299 45.8594 12.7081 46.196 12.7081 46.5881C12.7081 47.0824 12.5802 47.5213 12.3245 47.9048C12.0717 48.2884 11.7038 48.5909 11.2208 48.8125C10.7407 49.0341 10.1598 49.1449 9.47794 49.1449C8.82453 49.1449 8.25919 49.0412 7.78192 48.8338C7.30464 48.6264 6.93106 48.3324 6.66118 47.9517C6.39129 47.5682 6.24214 47.1136 6.21373 46.5881H7.53476C7.56033 46.9034 7.6626 47.1662 7.84158 47.3764C8.02339 47.5838 8.25493 47.7386 8.53618 47.8409C8.82027 47.9403 9.13135 47.9901 9.46942 47.9901C9.84158 47.9901 10.1725 47.9318 10.4623 47.8153C10.7549 47.696 10.985 47.5312 11.1527 47.321C11.3203 47.108 11.4041 46.8594 11.4041 46.5753C11.4041 46.3168 11.3302 46.1051 11.1825 45.9403C11.0376 45.7756 10.8402 45.6392 10.5902 45.5312C10.343 45.4233 10.0632 45.3281 9.75067 45.2457L8.71942 44.9645C8.02055 44.7741 7.46657 44.4943 7.05748 44.125C6.65123 43.7557 6.44811 43.267 6.44811 42.6591C6.44811 42.1562 6.58447 41.7173 6.8572 41.3423C7.12993 40.9673 7.49925 40.6761 7.96515 40.4688C8.43106 40.2585 8.95663 40.1534 9.54186 40.1534C10.1328 40.1534 10.6541 40.2571 11.1058 40.4645C11.5603 40.6719 11.9183 40.9574 12.1796 41.321C12.441 41.6818 12.5774 42.0966 12.5887 42.5653H11.3188ZM16.9364 49.1321C16.3029 49.1321 15.7574 48.9886 15.3 48.7017C14.8455 48.4119 14.496 48.0128 14.2517 47.5043C14.0074 46.9957 13.8853 46.4134 13.8853 45.7571C13.8853 45.0923 14.0103 44.5057 14.2603 43.9972C14.5103 43.4858 14.8625 43.0866 15.3171 42.7997C15.7716 42.5128 16.3071 42.3693 16.9236 42.3693C17.4208 42.3693 17.8639 42.4616 18.2532 42.6463C18.6424 42.8281 18.9563 43.0838 19.1949 43.4134C19.4364 43.7429 19.5799 44.1278 19.6253 44.5682H18.3853C18.3171 44.2614 18.1608 43.9972 17.9165 43.7756C17.675 43.554 17.3512 43.4432 16.9449 43.4432C16.5898 43.4432 16.2787 43.5369 16.0117 43.7244C15.7475 43.9091 15.5415 44.1733 15.3938 44.517C15.246 44.858 15.1722 45.2614 15.1722 45.7273C15.1722 46.2045 15.2446 46.6165 15.3895 46.9631C15.5344 47.3097 15.7389 47.5781 16.0032 47.7685C16.2702 47.9588 16.5841 48.054 16.9449 48.054C17.1864 48.054 17.4051 48.0099 17.6012 47.9219C17.8 47.831 17.9662 47.7017 18.0997 47.5341C18.2361 47.3665 18.3313 47.1648 18.3853 46.929H19.6253C19.5799 47.3523 19.4421 47.7301 19.212 48.0625C18.9818 48.3949 18.6736 48.6562 18.2872 48.8466C17.9037 49.0369 17.4534 49.1321 16.9364 49.1321ZM22.262 45.1136V49H20.9879V40.2727H22.245V43.5199H22.326C22.4794 43.1676 22.7137 42.8878 23.0291 42.6804C23.3444 42.473 23.7563 42.3693 24.2649 42.3693C24.7137 42.3693 25.1058 42.4616 25.441 42.6463C25.7791 42.831 26.0404 43.1065 26.2251 43.473C26.4126 43.8366 26.5063 44.2912 26.5063 44.8366V49H25.2322V44.9901C25.2322 44.5099 25.1086 44.1378 24.8615 43.8736C24.6143 43.6065 24.2706 43.473 23.8302 43.473C23.5291 43.473 23.2592 43.5369 23.0206 43.6648C22.7848 43.7926 22.5987 43.9801 22.4623 44.2273C22.3288 44.4716 22.262 44.767 22.262 45.1136ZM31.0277 49.1321C30.3828 49.1321 29.8274 48.9943 29.3615 48.7188C28.8984 48.4403 28.5404 48.0497 28.2876 47.5469C28.0376 47.0412 27.9126 46.4489 27.9126 45.7699C27.9126 45.0994 28.0376 44.5085 28.2876 43.9972C28.5404 43.4858 28.8927 43.0866 29.3444 42.7997C29.799 42.5128 30.3302 42.3693 30.9382 42.3693C31.3075 42.3693 31.6654 42.4304 32.012 42.5526C32.3586 42.6747 32.6697 42.8665 32.9453 43.1278C33.2208 43.3892 33.4382 43.7287 33.5973 44.1463C33.7563 44.5611 33.8359 45.0653 33.8359 45.6591V46.1108H28.6328V45.1562H32.5873C32.5873 44.821 32.5191 44.5241 32.3828 44.2656C32.2464 44.0043 32.0546 43.7983 31.8075 43.6477C31.5632 43.4972 31.2762 43.4219 30.9467 43.4219C30.5887 43.4219 30.2762 43.5099 30.0092 43.6861C29.745 43.8594 29.5404 44.0866 29.3956 44.3679C29.2535 44.6463 29.1825 44.9489 29.1825 45.2756V46.0213C29.1825 46.4588 29.2592 46.831 29.4126 47.1378C29.5688 47.4446 29.7862 47.679 30.0646 47.8409C30.343 48 30.6683 48.0795 31.0404 48.0795C31.2819 48.0795 31.5021 48.0455 31.701 47.9773C31.8998 47.9062 32.0717 47.8011 32.2166 47.6619C32.3615 47.5227 32.4723 47.3509 32.549 47.1463L33.7549 47.3636C33.6583 47.7187 33.485 48.0298 33.235 48.2969C32.9879 48.5611 32.6768 48.767 32.3018 48.9148C31.9296 49.0597 31.5049 49.1321 31.0277 49.1321ZM37.6999 49.1278C37.1715 49.1278 36.6999 48.9929 36.2851 48.723C35.8732 48.4503 35.5493 48.0625 35.3135 47.5597C35.0806 47.054 34.9641 46.4474 34.9641 45.7401C34.9641 45.0327 35.082 44.4276 35.3178 43.9247C35.5564 43.4219 35.8831 43.0369 36.2979 42.7699C36.7127 42.5028 37.1828 42.3693 37.7084 42.3693C38.1147 42.3693 38.4414 42.4375 38.6885 42.5739C38.9385 42.7074 39.1317 42.8636 39.2681 43.0426C39.4073 43.2216 39.5152 43.3793 39.5919 43.5156H39.6686V40.2727H40.9428V49H39.6985V47.9815H39.5919C39.5152 48.1207 39.4044 48.2798 39.2595 48.4588C39.1175 48.6378 38.9215 48.794 38.6715 48.9276C38.4215 49.0611 38.0976 49.1278 37.6999 49.1278ZM37.9811 48.0412C38.3476 48.0412 38.6573 47.9446 38.9101 47.7514C39.1658 47.5554 39.359 47.2841 39.4897 46.9375C39.6232 46.5909 39.6899 46.1875 39.6899 45.7273C39.6899 45.2727 39.6246 44.875 39.4939 44.5341C39.3632 44.1932 39.1715 43.9276 38.9186 43.7372C38.6658 43.5469 38.3533 43.4517 37.9811 43.4517C37.5976 43.4517 37.278 43.5511 37.0223 43.75C36.7666 43.9489 36.5735 44.2202 36.4428 44.5639C36.3149 44.9077 36.251 45.2955 36.251 45.7273C36.251 46.1648 36.3164 46.5582 36.447 46.9077C36.5777 47.2571 36.7709 47.5341 37.0266 47.7386C37.2851 47.9403 37.6033 48.0412 37.9811 48.0412ZM46.9076 46.2855V42.4545H48.186V49H46.9332V47.8665H46.865C46.7144 48.2159 46.473 48.5071 46.1406 48.7401C45.811 48.9702 45.4005 49.0852 44.909 49.0852C44.4886 49.0852 44.1164 48.9929 43.7926 48.8082C43.4715 48.6207 43.2187 48.3438 43.034 47.9773C42.8522 47.6108 42.7613 47.1577 42.7613 46.6179V42.4545H44.0355V46.4645C44.0355 46.9105 44.159 47.2656 44.4062 47.5298C44.6534 47.794 44.9744 47.9261 45.3693 47.9261C45.6079 47.9261 45.8451 47.8665 46.0809 47.7472C46.3196 47.6278 46.517 47.4474 46.6733 47.206C46.8323 46.9645 46.9105 46.6577 46.9076 46.2855ZM51.1722 40.2727V49H49.898V40.2727H51.1722ZM55.7073 49.1321C55.0625 49.1321 54.5071 48.9943 54.0411 48.7188C53.5781 48.4403 53.2201 48.0497 52.9673 47.5469C52.7173 47.0412 52.5923 46.4489 52.5923 45.7699C52.5923 45.0994 52.7173 44.5085 52.9673 43.9972C53.2201 43.4858 53.5724 43.0866 54.0241 42.7997C54.4786 42.5128 55.0099 42.3693 55.6179 42.3693C55.9872 42.3693 56.3451 42.4304 56.6917 42.5526C57.0383 42.6747 57.3494 42.8665 57.625 43.1278C57.9005 43.3892 58.1179 43.7287 58.2769 44.1463C58.436 44.5611 58.5156 45.0653 58.5156 45.6591V46.1108H53.3125V45.1562H57.267C57.267 44.821 57.1988 44.5241 57.0625 44.2656C56.9261 44.0043 56.7343 43.7983 56.4872 43.6477C56.2429 43.4972 55.9559 43.4219 55.6264 43.4219C55.2684 43.4219 54.9559 43.5099 54.6889 43.6861C54.4247 43.8594 54.2201 44.0866 54.0752 44.3679C53.9332 44.6463 53.8622 44.9489 53.8622 45.2756V46.0213C53.8622 46.4588 53.9389 46.831 54.0923 47.1378C54.2485 47.4446 54.4659 47.679 54.7443 47.8409C55.0227 48 55.348 48.0795 55.7201 48.0795C55.9616 48.0795 56.1818 48.0455 56.3806 47.9773C56.5795 47.9062 56.7514 47.8011 56.8963 47.6619C57.0411 47.5227 57.1519 47.3509 57.2286 47.1463L58.4346 47.3636C58.338 47.7187 58.1647 48.0298 57.9147 48.2969C57.6676 48.5611 57.3565 48.767 56.9815 48.9148C56.6093 49.0597 56.1846 49.1321 55.7073 49.1321Z" fill="#6B806B"/>
<defs>
<clipPath id="clip0_40_466">
<rect width="24" height="24" fill="white" transform="translate(20.6001 4)"/>
</clipPath>
</defs>
</svg>
