<svg width="84" height="54" viewBox="0 0 84 54" fill="none" xmlns="http://www.w3.org/2000/svg">
<g clip-path="url(#clip0_48_425)">
<path fill-rule="evenodd" clip-rule="evenodd" d="M50.2653 13.7284L42.7653 6.65219C42.7616 6.64899 42.7582 6.64554 42.755 6.64188C42.1828 6.1215 41.3088 6.1215 40.7366 6.64188L40.7262 6.65219L33.2347 13.7284C32.9257 14.0125 32.7499 14.4131 32.75 14.8328V23.5C32.75 24.3284 33.4216 25 34.25 25H38.75C39.5784 25 40.25 24.3284 40.25 23.5V19H43.25V23.5C43.25 24.3284 43.9216 25 44.75 25H49.25C50.0784 25 50.75 24.3284 50.75 23.5V14.8328C50.7501 14.4131 50.5743 14.0125 50.2653 13.7284ZM49.25 23.5H44.75V19C44.75 18.1716 44.0784 17.5 43.25 17.5H40.25C39.4216 17.5 38.75 18.1716 38.75 19V23.5H34.25V14.8328L34.2603 14.8234L41.75 7.75L49.2406 14.8216L49.2509 14.8309L49.25 23.5Z" fill="#618561"/>
</g>
<path d="M25.7088 49V40.2727H27.0256V44.0653H31.3764V40.2727H32.6974V49H31.3764V45.1946H27.0256V49H25.7088ZM37.2699 49.1321C36.6563 49.1321 36.1207 48.9915 35.6634 48.7102C35.206 48.429 34.8509 48.0355 34.598 47.5298C34.3452 47.0241 34.2188 46.4332 34.2188 45.7571C34.2188 45.0781 34.3452 44.4844 34.598 43.9759C34.8509 43.4673 35.206 43.0724 35.6634 42.7912C36.1207 42.5099 36.6563 42.3693 37.2699 42.3693C37.8835 42.3693 38.419 42.5099 38.8764 42.7912C39.3338 43.0724 39.6889 43.4673 39.9418 43.9759C40.1946 44.4844 40.321 45.0781 40.321 45.7571C40.321 46.4332 40.1946 47.0241 39.9418 47.5298C39.6889 48.0355 39.3338 48.429 38.8764 48.7102C38.419 48.9915 37.8835 49.1321 37.2699 49.1321ZM37.2741 48.0625C37.6719 48.0625 38.0014 47.9574 38.2628 47.7472C38.5241 47.5369 38.7173 47.2571 38.8423 46.9077C38.9702 46.5582 39.0341 46.1733 39.0341 45.7528C39.0341 45.3352 38.9702 44.9517 38.8423 44.6023C38.7173 44.25 38.5241 43.9673 38.2628 43.7543C38.0014 43.5412 37.6719 43.4347 37.2741 43.4347C36.8736 43.4347 36.5412 43.5412 36.277 43.7543C36.0156 43.9673 35.821 44.25 35.6932 44.6023C35.5682 44.9517 35.5057 45.3352 35.5057 45.7528C35.5057 46.1733 35.5682 46.5582 35.6932 46.9077C35.821 47.2571 36.0156 47.5369 36.277 47.7472C36.5412 47.9574 36.8736 48.0625 37.2741 48.0625ZM41.7433 49V42.4545H42.9663V43.5199H43.0472C43.1836 43.1591 43.4066 42.8778 43.7163 42.6761C44.0259 42.4716 44.3967 42.3693 44.8285 42.3693C45.266 42.3693 45.6325 42.4716 45.9279 42.6761C46.2262 42.8807 46.4464 43.1619 46.5884 43.5199H46.6566C46.8129 43.1705 47.0614 42.892 47.4023 42.6847C47.7433 42.4744 48.1495 42.3693 48.6211 42.3693C49.2148 42.3693 49.6992 42.5554 50.0742 42.9276C50.4521 43.2997 50.641 43.8608 50.641 44.6108V49H49.3668V44.7301C49.3668 44.2869 49.2461 43.9659 49.0046 43.767C48.7631 43.5682 48.4748 43.4688 48.1396 43.4688C47.7248 43.4688 47.4023 43.5966 47.1722 43.8523C46.9421 44.1051 46.8271 44.4304 46.8271 44.8281V49H45.5572V44.6491C45.5572 44.294 45.4464 44.0085 45.2248 43.7926C45.0032 43.5767 44.7148 43.4688 44.3597 43.4688C44.1183 43.4688 43.8952 43.5327 43.6907 43.6605C43.489 43.7855 43.3256 43.9602 43.2006 44.1847C43.0785 44.4091 43.0174 44.669 43.0174 44.9645V49H41.7433ZM55.1697 49.1321C54.5249 49.1321 53.9695 48.9943 53.5036 48.7188C53.0405 48.4403 52.6825 48.0497 52.4297 47.5469C52.1797 47.0412 52.0547 46.4489 52.0547 45.7699C52.0547 45.0994 52.1797 44.5085 52.4297 43.9972C52.6825 43.4858 53.0348 43.0866 53.4865 42.7997C53.9411 42.5128 54.4723 42.3693 55.0803 42.3693C55.4496 42.3693 55.8075 42.4304 56.1541 42.5526C56.5007 42.6747 56.8118 42.8665 57.0874 43.1278C57.3629 43.3892 57.5803 43.7287 57.7393 44.1463C57.8984 44.5611 57.978 45.0653 57.978 45.6591V46.1108H52.7749V45.1562H56.7294C56.7294 44.821 56.6612 44.5241 56.5249 44.2656C56.3885 44.0043 56.1967 43.7983 55.9496 43.6477C55.7053 43.4972 55.4183 43.4219 55.0888 43.4219C54.7308 43.4219 54.4183 43.5099 54.1513 43.6861C53.8871 43.8594 53.6825 44.0866 53.5376 44.3679C53.3956 44.6463 53.3246 44.9489 53.3246 45.2756V46.0213C53.3246 46.4588 53.4013 46.831 53.5547 47.1378C53.7109 47.4446 53.9283 47.679 54.2067 47.8409C54.4851 48 54.8104 48.0795 55.1825 48.0795C55.424 48.0795 55.6442 48.0455 55.843 47.9773C56.0419 47.9062 56.2138 47.8011 56.3587 47.6619C56.5036 47.5227 56.6143 47.3509 56.6911 47.1463L57.897 47.3636C57.8004 47.7187 57.6271 48.0298 57.3771 48.2969C57.13 48.5611 56.8189 48.767 56.4439 48.9148C56.0717 49.0597 55.647 49.1321 55.1697 49.1321Z" fill="#618561"/>
<defs>
<clipPath id="clip0_48_425">
<rect width="24" height="24" fill="white" transform="translate(29.75 4)"/>
</clipPath>
</defs>
</svg>
