<svg width="84" height="54" viewBox="0 0 84 54" fill="none" xmlns="http://www.w3.org/2000/svg">
<g clip-path="url(#clip0_48_439)">
<path fill-rule="evenodd" clip-rule="evenodd" d="M51.0491 13.795C51.7476 13.6529 52.2496 13.0388 52.25 12.3259V10C52.25 9.17157 51.5784 8.5 50.75 8.5H32.75C31.9216 8.5 31.25 9.17157 31.25 10V12.3259C31.2504 13.0388 31.7524 13.6529 32.4509 13.795C33.4953 14.0116 34.2441 14.9316 34.2441 15.9981C34.2441 17.0647 33.4953 17.9847 32.4509 18.2013C31.751 18.3437 31.2486 18.9598 31.25 19.6741V22C31.25 22.8284 31.9216 23.5 32.75 23.5H50.75C51.5784 23.5 52.25 22.8284 52.25 22V19.6741C52.2496 18.9612 51.7476 18.3471 51.0491 18.205C50.0047 17.9884 49.2559 17.0684 49.2559 16.0019C49.2559 14.9353 50.0047 14.0153 51.0491 13.7987V13.795ZM32.75 19.675C34.4967 19.3192 35.7515 17.783 35.7515 16.0005C35.7515 14.2179 34.4967 12.6818 32.75 12.3259V10H38V22H32.75V19.675ZM50.75 19.675V22H39.5V10H50.75V12.325C49.0033 12.6808 47.7485 14.217 47.7485 15.9995C47.7485 17.7821 49.0033 19.3182 50.75 19.6741V19.675Z" fill="#618561"/>
</g>
<path d="M21.2784 41.4062V40.2727H28.0327V41.4062H25.3097V49H23.9972V41.4062H21.2784ZM29.4229 49V42.4545H30.6971V49H29.4229ZM30.0664 41.4446C29.8448 41.4446 29.6545 41.3707 29.4954 41.223C29.3391 41.0724 29.261 40.8935 29.261 40.6861C29.261 40.4759 29.3391 40.2969 29.4954 40.1491C29.6545 39.9986 29.8448 39.9233 30.0664 39.9233C30.288 39.9233 30.4769 39.9986 30.6332 40.1491C30.7923 40.2969 30.8718 40.4759 30.8718 40.6861C30.8718 40.8935 30.7923 41.0724 30.6332 41.223C30.4769 41.3707 30.288 41.4446 30.0664 41.4446ZM35.1683 49.1321C34.5348 49.1321 33.9893 48.9886 33.532 48.7017C33.0774 48.4119 32.728 48.0128 32.4837 47.5043C32.2393 46.9957 32.1172 46.4134 32.1172 45.7571C32.1172 45.0923 32.2422 44.5057 32.4922 43.9972C32.7422 43.4858 33.0945 43.0866 33.549 42.7997C34.0036 42.5128 34.5391 42.3693 35.1555 42.3693C35.6527 42.3693 36.0959 42.4616 36.4851 42.6463C36.8743 42.8281 37.1882 43.0838 37.4268 43.4134C37.6683 43.7429 37.8118 44.1278 37.8572 44.5682H36.6172C36.549 44.2614 36.3928 43.9972 36.1484 43.7756C35.907 43.554 35.5831 43.4432 35.1768 43.4432C34.8217 43.4432 34.5107 43.5369 34.2436 43.7244C33.9794 43.9091 33.7734 44.1733 33.6257 44.517C33.478 44.858 33.4041 45.2614 33.4041 45.7273C33.4041 46.2045 33.4766 46.6165 33.6214 46.9631C33.7663 47.3097 33.9709 47.5781 34.2351 47.7685C34.5021 47.9588 34.8161 48.054 35.1768 48.054C35.4183 48.054 35.6371 48.0099 35.8331 47.9219C36.032 47.831 36.1982 47.7017 36.3317 47.5341C36.468 47.3665 36.5632 47.1648 36.6172 46.929H37.8572C37.8118 47.3523 37.674 47.7301 37.4439 48.0625C37.2138 48.3949 36.9055 48.6562 36.5192 48.8466C36.1357 49.0369 35.6854 49.1321 35.1683 49.1321ZM40.3917 46.7798L40.3832 45.2244H40.6048L43.2127 42.4545H44.7383L41.7638 45.608H41.5636L40.3917 46.7798ZM39.2198 49V40.2727H40.494V49H39.2198ZM43.3533 49L41.0096 45.8892L41.8874 44.9986L44.9173 49H43.3533ZM48.451 49.1321C47.8061 49.1321 47.2507 48.9943 46.7848 48.7188C46.3217 48.4403 45.9638 48.0497 45.7109 47.5469C45.4609 47.0412 45.3359 46.4489 45.3359 45.7699C45.3359 45.0994 45.4609 44.5085 45.7109 43.9972C45.9638 43.4858 46.3161 43.0866 46.7678 42.7997C47.2223 42.5128 47.7536 42.3693 48.3615 42.3693C48.7308 42.3693 49.0888 42.4304 49.4354 42.5526C49.782 42.6747 50.093 42.8665 50.3686 43.1278C50.6442 43.3892 50.8615 43.7287 51.0206 44.1463C51.1797 44.5611 51.2592 45.0653 51.2592 45.6591V46.1108H46.0561V45.1562H50.0107C50.0107 44.821 49.9425 44.5241 49.8061 44.2656C49.6697 44.0043 49.478 43.7983 49.2308 43.6477C48.9865 43.4972 48.6996 43.4219 48.37 43.4219C48.0121 43.4219 47.6996 43.5099 47.4325 43.6861C47.1683 43.8594 46.9638 44.0866 46.8189 44.3679C46.6768 44.6463 46.6058 44.9489 46.6058 45.2756V46.0213C46.6058 46.4588 46.6825 46.831 46.8359 47.1378C46.9922 47.4446 47.2095 47.679 47.4879 47.8409C47.7663 48 48.0916 48.0795 48.4638 48.0795C48.7053 48.0795 48.9254 48.0455 49.1243 47.9773C49.3232 47.9062 49.495 47.8011 49.6399 47.6619C49.7848 47.5227 49.8956 47.3509 49.9723 47.1463L51.1783 47.3636C51.0817 47.7187 50.9084 48.0298 50.6584 48.2969C50.4112 48.5611 50.1001 48.767 49.7251 48.9148C49.353 49.0597 48.9283 49.1321 48.451 49.1321ZM55.7283 42.4545V43.4773H52.1531V42.4545H55.7283ZM53.1119 40.8864H54.386V47.0781C54.386 47.3253 54.4229 47.5114 54.4968 47.6364C54.5707 47.7585 54.6658 47.8423 54.7823 47.8878C54.9016 47.9304 55.0309 47.9517 55.1701 47.9517C55.2724 47.9517 55.3619 47.9446 55.4386 47.9304C55.5153 47.9162 55.5749 47.9048 55.6175 47.8963L55.8477 48.9489C55.7738 48.9773 55.6687 49.0057 55.5323 49.0341C55.396 49.0653 55.2255 49.0824 55.021 49.0852C54.6857 49.0909 54.3732 49.0312 54.0835 48.9062C53.7937 48.7812 53.5593 48.5881 53.3803 48.3267C53.2013 48.0653 53.1119 47.7372 53.1119 47.3423V40.8864ZM61.9371 44.0526L60.7823 44.2571C60.734 44.1094 60.6573 43.9687 60.5522 43.8352C60.4499 43.7017 60.3107 43.5923 60.1346 43.5071C59.9585 43.4219 59.7383 43.3793 59.4741 43.3793C59.1133 43.3793 58.8121 43.4602 58.5707 43.6222C58.3292 43.7812 58.2085 43.9872 58.2085 44.2401C58.2085 44.4588 58.2894 44.6349 58.4513 44.7685C58.6133 44.902 58.8746 45.0114 59.2354 45.0966L60.2752 45.3352C60.8775 45.4744 61.3263 45.6889 61.6218 45.9787C61.9173 46.2685 62.065 46.6449 62.065 47.108C62.065 47.5 61.9513 47.8494 61.7241 48.1562C61.4996 48.4602 61.1857 48.6989 60.7823 48.8722C60.3817 49.0455 59.9173 49.1321 59.3888 49.1321C58.6559 49.1321 58.0579 48.9759 57.5948 48.6634C57.1317 48.348 56.8477 47.9006 56.7425 47.321L57.9741 47.1335C58.0508 47.4545 58.2085 47.6974 58.4471 47.8622C58.6857 48.0241 58.9968 48.1051 59.3803 48.1051C59.7979 48.1051 60.1317 48.0185 60.3817 47.8452C60.6317 47.669 60.7567 47.4545 60.7567 47.2017C60.7567 46.9972 60.68 46.8253 60.5266 46.6861C60.3761 46.5469 60.1445 46.4418 59.832 46.3707L58.7241 46.1278C58.1133 45.9886 57.6616 45.767 57.369 45.4631C57.0792 45.1591 56.9343 44.7741 56.9343 44.3082C56.9343 43.9219 57.0423 43.5838 57.2582 43.294C57.4741 43.0043 57.7724 42.7784 58.1531 42.6165C58.5337 42.4517 58.9698 42.3693 59.4613 42.3693C60.1687 42.3693 60.7255 42.5227 61.1317 42.8295C61.538 43.1335 61.8065 43.5412 61.9371 44.0526Z" fill="#618561"/>
<defs>
<clipPath id="clip0_48_439">
<rect width="24" height="24" fill="white" transform="translate(29.75 4)"/>
</clipPath>
</defs>
</svg>
