<svg width="84" height="54" viewBox="0 0 84 54" fill="none" xmlns="http://www.w3.org/2000/svg">
<g clip-path="url(#clip0_48_446)">
<path fill-rule="evenodd" clip-rule="evenodd" d="M51.3988 23.875C49.9709 21.4066 47.7706 19.6366 45.2028 18.7975C47.8135 17.2433 49.0641 14.1364 48.2582 11.2069C47.4522 8.27741 44.7883 6.24745 41.75 6.24745C38.7117 6.24745 36.0478 8.27741 35.2418 11.2069C34.4358 14.1364 35.6865 17.2433 38.2972 18.7975C35.7294 19.6356 33.5291 21.4056 32.1012 23.875C31.9587 24.1074 31.9535 24.3989 32.0877 24.6363C32.2219 24.8736 32.4744 25.0194 32.747 25.0171C33.0197 25.0147 33.2696 24.8646 33.3997 24.625C35.1659 21.5725 38.2878 19.75 41.75 19.75C45.2122 19.75 48.3341 21.5725 50.1003 24.625C50.2304 24.8646 50.4803 25.0147 50.753 25.0171C51.0256 25.0194 51.2781 24.8736 51.4123 24.6363C51.5465 24.3989 51.5413 24.1074 51.3988 23.875ZM36.5 13C36.5 10.1005 38.8505 7.75 41.75 7.75C44.6495 7.75 47 10.1005 47 13C47 15.8995 44.6495 18.25 41.75 18.25C38.8518 18.2469 36.5031 15.8982 36.5 13Z" fill="#618561"/>
</g>
<path d="M24.2088 49V40.2727H27.3196C27.9986 40.2727 28.5611 40.3963 29.0071 40.6435C29.4531 40.8906 29.7869 41.2287 30.0085 41.6577C30.2301 42.0838 30.3409 42.5639 30.3409 43.098C30.3409 43.6349 30.2287 44.1179 30.0043 44.5469C29.7827 44.973 29.4474 45.3111 28.9986 45.5611C28.5526 45.8082 27.9915 45.9318 27.3153 45.9318H25.1761V44.8153H27.196C27.625 44.8153 27.973 44.7415 28.2401 44.5938C28.5071 44.4432 28.7031 44.2386 28.8281 43.9801C28.9531 43.7216 29.0156 43.4276 29.0156 43.098C29.0156 42.7685 28.9531 42.4759 28.8281 42.2202C28.7031 41.9645 28.5057 41.7642 28.2358 41.6193C27.9688 41.4744 27.6165 41.402 27.179 41.402H25.5256V49H24.2088ZM31.7823 49V42.4545H33.0138V43.4943H33.082C33.2013 43.142 33.4116 42.8651 33.7127 42.6634C34.0167 42.4588 34.3604 42.3565 34.744 42.3565C34.8235 42.3565 34.9173 42.3594 35.0252 42.3651C35.136 42.3707 35.2227 42.3778 35.2852 42.3864V43.6051C35.234 43.5909 35.1431 43.5753 35.0124 43.5582C34.8817 43.5384 34.7511 43.5284 34.6204 43.5284C34.3192 43.5284 34.0508 43.5923 33.815 43.7202C33.582 43.8452 33.3974 44.0199 33.261 44.2443C33.1246 44.4659 33.0565 44.7187 33.0565 45.0028V49H31.7823ZM38.9105 49.1321C38.2969 49.1321 37.7614 48.9915 37.304 48.7102C36.8466 48.429 36.4915 48.0355 36.2386 47.5298C35.9858 47.0241 35.8594 46.4332 35.8594 45.7571C35.8594 45.0781 35.9858 44.4844 36.2386 43.9759C36.4915 43.4673 36.8466 43.0724 37.304 42.7912C37.7614 42.5099 38.2969 42.3693 38.9105 42.3693C39.5241 42.3693 40.0597 42.5099 40.517 42.7912C40.9744 43.0724 41.3295 43.4673 41.5824 43.9759C41.8352 44.4844 41.9616 45.0781 41.9616 45.7571C41.9616 46.4332 41.8352 47.0241 41.5824 47.5298C41.3295 48.0355 40.9744 48.429 40.517 48.7102C40.0597 48.9915 39.5241 49.1321 38.9105 49.1321ZM38.9148 48.0625C39.3125 48.0625 39.642 47.9574 39.9034 47.7472C40.1648 47.5369 40.358 47.2571 40.483 46.9077C40.6108 46.5582 40.6747 46.1733 40.6747 45.7528C40.6747 45.3352 40.6108 44.9517 40.483 44.6023C40.358 44.25 40.1648 43.9673 39.9034 43.7543C39.642 43.5412 39.3125 43.4347 38.9148 43.4347C38.5142 43.4347 38.1818 43.5412 37.9176 43.7543C37.6563 43.9673 37.4616 44.25 37.3338 44.6023C37.2088 44.9517 37.1463 45.3352 37.1463 45.7528C37.1463 46.1733 37.2088 46.5582 37.3338 46.9077C37.4616 47.2571 37.6563 47.5369 37.9176 47.7472C38.1818 47.9574 38.5142 48.0625 38.9148 48.0625ZM46.4989 42.4545V43.4773H42.8001V42.4545H46.4989ZM43.8143 49V41.696C43.8143 41.2869 43.9038 40.9474 44.0827 40.6776C44.2617 40.4048 44.4989 40.2017 44.7944 40.0682C45.0898 39.9318 45.4109 39.8636 45.7575 39.8636C46.0131 39.8636 46.2319 39.8849 46.4137 39.9276C46.5955 39.9673 46.7305 40.0043 46.8185 40.0384L46.5202 41.0696C46.4606 41.0526 46.3839 41.0327 46.2901 41.0099C46.1964 40.9844 46.0827 40.9716 45.9492 40.9716C45.6396 40.9716 45.418 41.0483 45.2844 41.2017C45.1538 41.3551 45.0884 41.5767 45.0884 41.8665V49H43.8143ZM47.8136 49V42.4545H49.0877V49H47.8136ZM48.457 41.4446C48.2354 41.4446 48.0451 41.3707 47.886 41.223C47.7298 41.0724 47.6516 40.8935 47.6516 40.6861C47.6516 40.4759 47.7298 40.2969 47.886 40.1491C48.0451 39.9986 48.2354 39.9233 48.457 39.9233C48.6786 39.9233 48.8675 39.9986 49.0238 40.1491C49.1829 40.2969 49.2624 40.4759 49.2624 40.6861C49.2624 40.8935 49.1829 41.0724 49.0238 41.223C48.8675 41.3707 48.6786 41.4446 48.457 41.4446ZM52.076 40.2727V49H50.8018V40.2727H52.076ZM56.6112 49.1321C55.9663 49.1321 55.4109 48.9943 54.945 48.7188C54.4819 48.4403 54.1239 48.0497 53.8711 47.5469C53.6211 47.0412 53.4961 46.4489 53.4961 45.7699C53.4961 45.0994 53.6211 44.5085 53.8711 43.9972C54.1239 43.4858 54.4762 43.0866 54.9279 42.7997C55.3825 42.5128 55.9137 42.3693 56.5217 42.3693C56.891 42.3693 57.2489 42.4304 57.5955 42.5526C57.9421 42.6747 58.2532 42.8665 58.5288 43.1278C58.8043 43.3892 59.0217 43.7287 59.1808 44.1463C59.3398 44.5611 59.4194 45.0653 59.4194 45.6591V46.1108H54.2163V45.1562H58.1708C58.1708 44.821 58.1026 44.5241 57.9663 44.2656C57.8299 44.0043 57.6381 43.7983 57.391 43.6477C57.1467 43.4972 56.8597 43.4219 56.5302 43.4219C56.1722 43.4219 55.8597 43.5099 55.5927 43.6861C55.3285 43.8594 55.1239 44.0866 54.979 44.3679C54.837 44.6463 54.766 44.9489 54.766 45.2756V46.0213C54.766 46.4588 54.8427 46.831 54.9961 47.1378C55.1523 47.4446 55.3697 47.679 55.6481 47.8409C55.9265 48 56.2518 48.0795 56.6239 48.0795C56.8654 48.0795 57.0856 48.0455 57.2844 47.9773C57.4833 47.9062 57.6552 47.8011 57.8001 47.6619C57.945 47.5227 58.0558 47.3509 58.1325 47.1463L59.3384 47.3636C59.2418 47.7187 59.0685 48.0298 58.8185 48.2969C58.5714 48.5611 58.2603 48.767 57.8853 48.9148C57.5131 49.0597 57.0884 49.1321 56.6112 49.1321Z" fill="#618561"/>
<defs>
<clipPath id="clip0_48_446">
<rect width="24" height="24" fill="white" transform="translate(29.75 4)"/>
</clipPath>
</defs>
</svg>
