<svg width="24" height="48" viewBox="0 0 24 48" fill="none" xmlns="http://www.w3.org/2000/svg">
<g clip-path="url(#clip0_48_359)">
<path fill-rule="evenodd" clip-rule="evenodd" d="M21.5306 22.2806L17.0306 26.7806C16.7376 27.0737 16.2624 27.0737 15.9694 26.7806C15.6763 26.4876 15.6763 26.0124 15.9694 25.7194L19.1897 22.5H15.4688C11.7059 22.499 8.41915 25.0441 7.47844 28.6875C7.37488 29.0888 6.96564 29.3301 6.56437 29.2266C6.16311 29.123 5.92176 28.7138 6.02531 28.3125C7.13533 24.0054 11.021 20.9966 15.4688 21H19.1916L15.9694 17.7806C15.6763 17.4876 15.6763 17.0124 15.9694 16.7194C16.2624 16.4263 16.7376 16.4263 17.0306 16.7194L21.5306 21.2194C21.6715 21.3601 21.7506 21.5509 21.7506 21.75C21.7506 21.9491 21.6715 22.1399 21.5306 22.2806ZM18 31.5H3.75V20.25C3.75 19.8358 3.41421 19.5 3 19.5C2.58579 19.5 2.25 19.8358 2.25 20.25V31.5C2.25 32.3284 2.92157 33 3.75 33H18C18.4142 33 18.75 32.6642 18.75 32.25C18.75 31.8358 18.4142 31.5 18 31.5Z" fill="#121712"/>
</g>
<defs>
<clipPath id="clip0_48_359">
<rect width="24" height="24" fill="white" transform="translate(0 12)"/>
</clipPath>
</defs>
</svg>
