<svg width="66" height="54" viewBox="0 0 66 54" fill="none" xmlns="http://www.w3.org/2000/svg">
<g clip-path="url(#clip0_51_983)">
<path fill-rule="evenodd" clip-rule="evenodd" d="M26.6113 17.8562C26.6165 17.9589 26.5793 18.0592 26.5084 18.1336C26.4375 18.2081 26.3391 18.2501 26.2363 18.25H22.1001C21.7516 18.2505 21.4486 18.0109 21.3688 17.6716C21.32 17.4432 21.3757 17.2049 21.5207 17.0219C22.1824 16.1444 23.0604 15.4534 24.0688 15.0166C22.8525 13.9075 22.5015 12.1349 23.2036 10.6461C23.9056 9.15725 25.4965 8.30028 27.126 8.53319C28.7555 8.7661 30.0426 10.0344 30.2995 11.6603C30.3243 11.8239 30.2373 11.9839 30.0867 12.0522C27.9627 13.0341 26.6021 15.16 26.6001 17.5C26.6001 17.62 26.6001 17.7381 26.6113 17.8562ZM43.6738 17.0209C43.0137 16.1444 42.1377 15.4539 41.1313 15.0166C42.3477 13.9075 42.6987 12.1349 41.9966 10.6461C41.2946 9.15725 39.7037 8.30028 38.0742 8.53319C36.4447 8.7661 35.1576 10.0344 34.9007 11.6603C34.8759 11.8239 34.9629 11.9839 35.1135 12.0522C37.2375 13.0341 38.5981 15.16 38.6001 17.5C38.6001 17.62 38.6001 17.7381 38.5888 17.8562C38.5837 17.9589 38.6209 18.0592 38.6918 18.1336C38.7627 18.2081 38.8611 18.2501 38.9638 18.25H43.1001C43.4486 18.2505 43.7516 18.0109 43.8313 17.6716C43.8805 17.4427 43.8244 17.204 43.6785 17.0209H43.6738ZM35.3301 21.0691C36.8613 19.8964 37.4749 17.8785 36.8559 16.0519C36.2368 14.2254 34.5226 12.9964 32.594 12.9964C30.6654 12.9964 28.9512 14.2254 28.3321 16.0519C27.7131 17.8785 28.3267 19.8964 29.8579 21.0691C28.5328 21.6432 27.4263 22.6265 26.7004 23.875C26.5664 24.1071 26.5664 24.393 26.7005 24.6251C26.8345 24.8571 27.0821 25.0001 27.3501 25H37.8501C38.1181 25.0001 38.3657 24.8571 38.4997 24.6251C38.6338 24.393 38.6338 24.1071 38.4998 23.875C37.7724 22.6257 36.6638 21.6423 35.3367 21.0691H35.3301Z" fill="#121717"/>
</g>
<path d="M10.3217 40.2727L12.7507 47.3807H12.8487L15.2777 40.2727H16.701L13.5603 49H12.039L8.89839 40.2727H10.3217ZM20.0237 49.1321C19.3789 49.1321 18.8235 48.9943 18.3576 48.7188C17.8945 48.4403 17.5365 48.0497 17.2837 47.5469C17.0337 47.0412 16.9087 46.4489 16.9087 45.7699C16.9087 45.0994 17.0337 44.5085 17.2837 43.9972C17.5365 43.4858 17.8888 43.0866 18.3405 42.7997C18.7951 42.5128 19.3263 42.3693 19.9343 42.3693C20.3036 42.3693 20.6615 42.4304 21.0081 42.5526C21.3547 42.6747 21.6658 42.8665 21.9414 43.1278C22.2169 43.3892 22.4343 43.7287 22.5934 44.1463C22.7524 44.5611 22.832 45.0653 22.832 45.6591V46.1108H17.6289V45.1562H21.5834C21.5834 44.821 21.5152 44.5241 21.3789 44.2656C21.2425 44.0043 21.0507 43.7983 20.8036 43.6477C20.5593 43.4972 20.2723 43.4219 19.9428 43.4219C19.5848 43.4219 19.2723 43.5099 19.0053 43.6861C18.7411 43.8594 18.5365 44.0866 18.3916 44.3679C18.2496 44.6463 18.1786 44.9489 18.1786 45.2756V46.0213C18.1786 46.4588 18.2553 46.831 18.4087 47.1378C18.5649 47.4446 18.7823 47.679 19.0607 47.8409C19.3391 48 19.6644 48.0795 20.0365 48.0795C20.278 48.0795 20.4982 48.0455 20.697 47.9773C20.8959 47.9062 21.0678 47.8011 21.2127 47.6619C21.3576 47.5227 21.4684 47.3509 21.5451 47.1463L22.751 47.3636C22.6544 47.7187 22.4811 48.0298 22.2311 48.2969C21.984 48.5611 21.6729 48.767 21.2979 48.9148C20.9257 49.0597 20.501 49.1321 20.0237 49.1321ZM25.5198 45.1136V49H24.2457V42.4545H25.4687V43.5199H25.5497C25.7002 43.1733 25.936 42.8949 26.2571 42.6847C26.5809 42.4744 26.9886 42.3693 27.4801 42.3693C27.9261 42.3693 28.3167 42.4631 28.6519 42.6506C28.9872 42.8352 29.2471 43.1108 29.4318 43.4773C29.6164 43.8437 29.7088 44.2969 29.7088 44.8366V49H28.4346V44.9901C28.4346 44.5156 28.311 44.1449 28.0639 43.8778C27.8167 43.608 27.4772 43.473 27.0454 43.473C26.75 43.473 26.4872 43.5369 26.2571 43.6648C26.0298 43.7926 25.8494 43.9801 25.7159 44.2273C25.5852 44.4716 25.5198 44.767 25.5198 45.1136ZM33.8679 49.1278C33.3394 49.1278 32.8679 48.9929 32.4531 48.723C32.0411 48.4503 31.7173 48.0625 31.4815 47.5597C31.2485 47.054 31.1321 46.4474 31.1321 45.7401C31.1321 45.0327 31.25 44.4276 31.4858 43.9247C31.7244 43.4219 32.0511 43.0369 32.4659 42.7699C32.8806 42.5028 33.3508 42.3693 33.8764 42.3693C34.2826 42.3693 34.6093 42.4375 34.8565 42.5739C35.1065 42.7074 35.2997 42.8636 35.436 43.0426C35.5752 43.2216 35.6832 43.3793 35.7599 43.5156H35.8366V40.2727H37.1108V49H35.8664V47.9815H35.7599C35.6832 48.1207 35.5724 48.2798 35.4275 48.4588C35.2855 48.6378 35.0894 48.794 34.8394 48.9276C34.5894 49.0611 34.2656 49.1278 33.8679 49.1278ZM34.1491 48.0412C34.5156 48.0412 34.8252 47.9446 35.0781 47.7514C35.3338 47.5554 35.5269 47.2841 35.6576 46.9375C35.7911 46.5909 35.8579 46.1875 35.8579 45.7273C35.8579 45.2727 35.7926 44.875 35.6619 44.5341C35.5312 44.1932 35.3394 43.9276 35.0866 43.7372C34.8338 43.5469 34.5213 43.4517 34.1491 43.4517C33.7656 43.4517 33.446 43.5511 33.1903 43.75C32.9346 43.9489 32.7414 44.2202 32.6108 44.5639C32.4829 44.9077 32.419 45.2955 32.419 45.7273C32.419 46.1648 32.4843 46.5582 32.615 46.9077C32.7457 47.2571 32.9389 47.5341 33.1946 47.7386C33.4531 47.9403 33.7713 48.0412 34.1491 48.0412ZM41.6864 49.1321C41.0728 49.1321 40.5372 48.9915 40.0799 48.7102C39.6225 48.429 39.2674 48.0355 39.0145 47.5298C38.7617 47.0241 38.6353 46.4332 38.6353 45.7571C38.6353 45.0781 38.7617 44.4844 39.0145 43.9759C39.2674 43.4673 39.6225 43.0724 40.0799 42.7912C40.5372 42.5099 41.0728 42.3693 41.6864 42.3693C42.3 42.3693 42.8355 42.5099 43.2929 42.7912C43.7503 43.0724 44.1054 43.4673 44.3583 43.9759C44.6111 44.4844 44.7375 45.0781 44.7375 45.7571C44.7375 46.4332 44.6111 47.0241 44.3583 47.5298C44.1054 48.0355 43.7503 48.429 43.2929 48.7102C42.8355 48.9915 42.3 49.1321 41.6864 49.1321ZM41.6907 48.0625C42.0884 48.0625 42.4179 47.9574 42.6793 47.7472C42.9407 47.5369 43.1338 47.2571 43.2588 46.9077C43.3867 46.5582 43.4506 46.1733 43.4506 45.7528C43.4506 45.3352 43.3867 44.9517 43.2588 44.6023C43.1338 44.25 42.9407 43.9673 42.6793 43.7543C42.4179 43.5412 42.0884 43.4347 41.6907 43.4347C41.2901 43.4347 40.9577 43.5412 40.6935 43.7543C40.4321 43.9673 40.2375 44.25 40.1097 44.6023C39.9847 44.9517 39.9222 45.3352 39.9222 45.7528C39.9222 46.1733 39.9847 46.5582 40.1097 46.9077C40.2375 47.2571 40.4321 47.5369 40.6935 47.7472C40.9577 47.9574 41.2901 48.0625 41.6907 48.0625ZM46.1598 49V42.4545H47.3913V43.4943H47.4595C47.5788 43.142 47.789 42.8651 48.0902 42.6634C48.3941 42.4588 48.7379 42.3565 49.1214 42.3565C49.2009 42.3565 49.2947 42.3594 49.4027 42.3651C49.5135 42.3707 49.6001 42.3778 49.6626 42.3864V43.6051C49.6115 43.5909 49.5206 43.5753 49.3899 43.5582C49.2592 43.5384 49.1285 43.5284 48.9978 43.5284C48.6967 43.5284 48.4282 43.5923 48.1924 43.7202C47.9595 43.8452 47.7748 44.0199 47.6385 44.2443C47.5021 44.4659 47.4339 44.7187 47.4339 45.0028V49H46.1598ZM55.6701 44.0526L54.5152 44.2571C54.4669 44.1094 54.3902 43.9687 54.2851 43.8352C54.1828 43.7017 54.0436 43.5923 53.8675 43.5071C53.6914 43.4219 53.4712 43.3793 53.207 43.3793C52.8462 43.3793 52.5451 43.4602 52.3036 43.6222C52.0621 43.7812 51.9414 43.9872 51.9414 44.2401C51.9414 44.4588 52.0223 44.6349 52.1843 44.7685C52.3462 44.902 52.6076 45.0114 52.9684 45.0966L54.0081 45.3352C54.6104 45.4744 55.0593 45.6889 55.3547 45.9787C55.6502 46.2685 55.7979 46.6449 55.7979 47.108C55.7979 47.5 55.6843 47.8494 55.457 48.1562C55.2326 48.4602 54.9186 48.6989 54.5152 48.8722C54.1147 49.0455 53.6502 49.1321 53.1218 49.1321C52.3888 49.1321 51.7908 48.9759 51.3277 48.6634C50.8647 48.348 50.5806 47.9006 50.4755 47.321L51.707 47.1335C51.7837 47.4545 51.9414 47.6974 52.18 47.8622C52.4186 48.0241 52.7297 48.1051 53.1132 48.1051C53.5309 48.1051 53.8647 48.0185 54.1147 47.8452C54.3647 47.669 54.4897 47.4545 54.4897 47.2017C54.4897 46.9972 54.413 46.8253 54.2595 46.6861C54.109 46.5469 53.8774 46.4418 53.5649 46.3707L52.457 46.1278C51.8462 45.9886 51.3945 45.767 51.1019 45.4631C50.8121 45.1591 50.6672 44.7741 50.6672 44.3082C50.6672 43.9219 50.7752 43.5838 50.9911 43.294C51.207 43.0043 51.5053 42.7784 51.886 42.6165C52.2666 42.4517 52.7027 42.3693 53.1942 42.3693C53.9016 42.3693 54.4584 42.5227 54.8647 42.8295C55.2709 43.1335 55.5394 43.5412 55.6701 44.0526Z" fill="#121717"/>
<defs>
<clipPath id="clip0_51_983">
<rect width="24" height="24" fill="white" transform="translate(20.6001 4)"/>
</clipPath>
</defs>
</svg>
