<svg width="66" height="54" viewBox="0 0 66 54" fill="none" xmlns="http://www.w3.org/2000/svg">
<g clip-path="url(#clip0_51_990)">
<path fill-rule="evenodd" clip-rule="evenodd" d="M40.1001 7H37.8501V6.25C37.8501 5.83579 37.5143 5.5 37.1001 5.5C36.6859 5.5 36.3501 5.83579 36.3501 6.25V7H28.8501V6.25C28.8501 5.83579 28.5143 5.5 28.1001 5.5C27.6859 5.5 27.3501 5.83579 27.3501 6.25V7H25.1001C24.2717 7 23.6001 7.67157 23.6001 8.5V23.5C23.6001 24.3284 24.2717 25 25.1001 25H40.1001C40.9285 25 41.6001 24.3284 41.6001 23.5V8.5C41.6001 7.67157 40.9285 7 40.1001 7ZM27.3501 8.5V9.25C27.3501 9.66421 27.6859 10 28.1001 10C28.5143 10 28.8501 9.66421 28.8501 9.25V8.5H36.3501V9.25C36.3501 9.66421 36.6859 10 37.1001 10C37.5143 10 37.8501 9.66421 37.8501 9.25V8.5H40.1001V11.5H25.1001V8.5H27.3501ZM40.1001 23.5H25.1001V13H40.1001V23.5ZM31.1001 15.25V21.25C31.1001 21.6642 30.7643 22 30.3501 22C29.9359 22 29.6001 21.6642 29.6001 21.25V16.4631L29.1857 16.6713C28.815 16.8566 28.3642 16.7063 28.1788 16.3356C27.9935 15.9649 28.1438 15.5141 28.5145 15.3287L30.0145 14.5787C30.2471 14.4624 30.5233 14.4748 30.7445 14.6116C30.9657 14.7483 31.1003 14.9899 31.1001 15.25ZM36.6463 18.1047L34.8501 20.5H36.3501C36.7643 20.5 37.1001 20.8358 37.1001 21.25C37.1001 21.6642 36.7643 22 36.3501 22H33.3501C33.066 22 32.8063 21.8395 32.6793 21.5854C32.5522 21.3313 32.5796 21.0273 32.7501 20.8L35.4482 17.2028C35.6154 16.9802 35.6456 16.6833 35.5265 16.4316C35.4074 16.1799 35.1587 16.0149 34.8805 16.003C34.6024 15.9912 34.3405 16.1344 34.2004 16.375C34.0703 16.6146 33.8204 16.7647 33.5477 16.7671C33.2751 16.7694 33.0227 16.6236 32.8885 16.3863C32.7542 16.1489 32.7594 15.8574 32.902 15.625C33.4113 14.7435 34.4491 14.3139 35.4325 14.5774C36.4159 14.8409 37.0998 15.7319 37.1001 16.75C37.1017 17.2391 36.9422 17.7152 36.6463 18.1047Z" fill="#617D8A"/>
</g>
<path d="M14.0589 49V40.2727H19.5305V41.4062H15.3757V44.0653H19.245V45.1946H15.3757V47.8665H19.5816V49H14.0589ZM26.7865 42.4545L24.413 49H23.0493L20.6715 42.4545H22.0394L23.697 47.4915H23.7652L25.4186 42.4545H26.7865ZM30.5823 49.1321C29.9375 49.1321 29.3821 48.9943 28.9161 48.7188C28.4531 48.4403 28.0951 48.0497 27.8423 47.5469C27.5923 47.0412 27.4673 46.4489 27.4673 45.7699C27.4673 45.0994 27.5923 44.5085 27.8423 43.9972C28.0951 43.4858 28.4474 43.0866 28.8991 42.7997C29.3536 42.5128 29.8849 42.3693 30.4929 42.3693C30.8622 42.3693 31.2201 42.4304 31.5667 42.5526C31.9133 42.6747 32.2244 42.8665 32.5 43.1278C32.7755 43.3892 32.9929 43.7287 33.1519 44.1463C33.311 44.5611 33.3906 45.0653 33.3906 45.6591V46.1108H28.1875V45.1562H32.142C32.142 44.821 32.0738 44.5241 31.9375 44.2656C31.8011 44.0043 31.6093 43.7983 31.3622 43.6477C31.1179 43.4972 30.8309 43.4219 30.5014 43.4219C30.1434 43.4219 29.8309 43.5099 29.5639 43.6861C29.2997 43.8594 29.0951 44.0866 28.9502 44.3679C28.8082 44.6463 28.7372 44.9489 28.7372 45.2756V46.0213C28.7372 46.4588 28.8139 46.831 28.9673 47.1378C29.1235 47.4446 29.3409 47.679 29.6193 47.8409C29.8977 48 30.223 48.0795 30.5951 48.0795C30.8366 48.0795 31.0568 48.0455 31.2556 47.9773C31.4545 47.9062 31.6264 47.8011 31.7713 47.6619C31.9161 47.5227 32.0269 47.3509 32.1036 47.1463L33.3096 47.3636C33.213 47.7187 33.0397 48.0298 32.7897 48.2969C32.5426 48.5611 32.2315 48.767 31.8565 48.9148C31.4843 49.0597 31.0596 49.1321 30.5823 49.1321ZM36.0784 45.1136V49H34.8043V42.4545H36.0273V43.5199H36.1083C36.2588 43.1733 36.4946 42.8949 36.8157 42.6847C37.1395 42.4744 37.5472 42.3693 38.0387 42.3693C38.4847 42.3693 38.8753 42.4631 39.2105 42.6506C39.5458 42.8352 39.8057 43.1108 39.9904 43.4773C40.175 43.8437 40.2674 44.2969 40.2674 44.8366V49H38.9932V44.9901C38.9932 44.5156 38.8696 44.1449 38.6225 43.8778C38.3753 43.608 38.0358 43.473 37.604 43.473C37.3085 43.473 37.0458 43.5369 36.8157 43.6648C36.5884 43.7926 36.408 43.9801 36.2745 44.2273C36.1438 44.4716 36.0784 44.767 36.0784 45.1136ZM45.0316 42.4545V43.4773H41.4563V42.4545H45.0316ZM42.4151 40.8864H43.6892V47.0781C43.6892 47.3253 43.7262 47.5114 43.8 47.6364C43.8739 47.7585 43.9691 47.8423 44.0855 47.8878C44.2049 47.9304 44.3341 47.9517 44.4733 47.9517C44.5756 47.9517 44.6651 47.9446 44.7418 47.9304C44.8185 47.9162 44.8782 47.9048 44.9208 47.8963L45.1509 48.9489C45.077 48.9773 44.9719 49.0057 44.8355 49.0341C44.6992 49.0653 44.5287 49.0824 44.3242 49.0852C43.9889 49.0909 43.6764 49.0312 43.3867 48.9062C43.0969 48.7812 42.8625 48.5881 42.6835 48.3267C42.5046 48.0653 42.4151 47.7372 42.4151 47.3423V40.8864ZM51.2404 44.0526L50.0855 44.2571C50.0372 44.1094 49.9605 43.9687 49.8554 43.8352C49.7532 43.7017 49.6139 43.5923 49.4378 43.5071C49.2617 43.4219 49.0415 43.3793 48.7773 43.3793C48.4165 43.3793 48.1154 43.4602 47.8739 43.6222C47.6324 43.7812 47.5117 43.9872 47.5117 44.2401C47.5117 44.4588 47.5926 44.6349 47.7546 44.7685C47.9165 44.902 48.1779 45.0114 48.5387 45.0966L49.5784 45.3352C50.1807 45.4744 50.6296 45.6889 50.925 45.9787C51.2205 46.2685 51.3682 46.6449 51.3682 47.108C51.3682 47.5 51.2546 47.8494 51.0273 48.1562C50.8029 48.4602 50.4889 48.6989 50.0855 48.8722C49.685 49.0455 49.2205 49.1321 48.6921 49.1321C47.9591 49.1321 47.3611 48.9759 46.898 48.6634C46.435 48.348 46.1509 47.9006 46.0458 47.321L47.2773 47.1335C47.354 47.4545 47.5117 47.6974 47.7503 47.8622C47.9889 48.0241 48.3 48.1051 48.6835 48.1051C49.1012 48.1051 49.435 48.0185 49.685 47.8452C49.935 47.669 50.06 47.4545 50.06 47.2017C50.06 46.9972 49.9833 46.8253 49.8299 46.6861C49.6793 46.5469 49.4478 46.4418 49.1353 46.3707L48.0273 46.1278C47.4165 45.9886 46.9648 45.767 46.6722 45.4631C46.3824 45.1591 46.2375 44.7741 46.2375 44.3082C46.2375 43.9219 46.3455 43.5838 46.5614 43.294C46.7773 43.0043 47.0756 42.7784 47.4563 42.6165C47.837 42.4517 48.273 42.3693 48.7645 42.3693C49.4719 42.3693 50.0287 42.5227 50.435 42.8295C50.8412 43.1335 51.1097 43.5412 51.2404 44.0526Z" fill="#617D8A"/>
<defs>
<clipPath id="clip0_51_990">
<rect width="24" height="24" fill="white" transform="translate(20.6001 4)"/>
</clipPath>
</defs>
</svg>
