<svg width="66" height="54" viewBox="0 0 66 54" fill="none" xmlns="http://www.w3.org/2000/svg">
<g clip-path="url(#clip0_51_997)">
<path fill-rule="evenodd" clip-rule="evenodd" d="M42.0163 12.3756L33.0163 6.37562C32.7643 6.20748 32.4359 6.20748 32.1838 6.37562L23.1838 12.3756C22.9752 12.5148 22.8499 12.7492 22.8501 13V22.75C22.8501 23.5784 23.5217 24.25 24.3501 24.25H40.8501C41.6785 24.25 42.3501 23.5784 42.3501 22.75V13C42.3503 12.7492 42.225 12.5148 42.0163 12.3756ZM29.6676 18.25L24.3501 22V14.4559L29.6676 18.25ZM31.2023 19H33.9979L39.307 22.75H25.8932L31.2023 19ZM35.5326 18.25L40.8501 14.4559V22L35.5326 18.25ZM32.6001 7.90094L40.2792 13.0206L33.9979 17.5H31.2042L24.9229 13.0206L32.6001 7.90094Z" fill="#617D8A"/>
</g>
<path d="M4.0589 40.2727H5.65692L8.43533 47.0568H8.5376L11.316 40.2727H12.914V49H11.6612V42.6847H11.5802L9.00635 48.9872H7.96658L5.39271 42.6804H5.31175V49H4.0589V40.2727ZM17.5472 49.1321C16.9023 49.1321 16.3469 48.9943 15.881 48.7188C15.4179 48.4403 15.06 48.0497 14.8071 47.5469C14.5571 47.0412 14.4321 46.4489 14.4321 45.7699C14.4321 45.0994 14.5571 44.5085 14.8071 43.9972C15.06 43.4858 15.4122 43.0866 15.8639 42.7997C16.3185 42.5128 16.8497 42.3693 17.4577 42.3693C17.827 42.3693 18.185 42.4304 18.5316 42.5526C18.8782 42.6747 19.1892 42.8665 19.4648 43.1278C19.7404 43.3892 19.9577 43.7287 20.1168 44.1463C20.2759 44.5611 20.3554 45.0653 20.3554 45.6591V46.1108H15.1523V45.1562H19.1068C19.1068 44.821 19.0387 44.5241 18.9023 44.2656C18.7659 44.0043 18.5742 43.7983 18.327 43.6477C18.0827 43.4972 17.7958 43.4219 17.4662 43.4219C17.1083 43.4219 16.7958 43.5099 16.5287 43.6861C16.2645 43.8594 16.06 44.0866 15.9151 44.3679C15.773 44.6463 15.702 44.9489 15.702 45.2756V46.0213C15.702 46.4588 15.7787 46.831 15.9321 47.1378C16.0884 47.4446 16.3057 47.679 16.5841 47.8409C16.8625 48 17.1878 48.0795 17.56 48.0795C17.8014 48.0795 18.0216 48.0455 18.2205 47.9773C18.4193 47.9062 18.5912 47.8011 18.7361 47.6619C18.881 47.5227 18.9918 47.3509 19.0685 47.1463L20.2745 47.3636C20.1779 47.7187 20.0046 48.0298 19.7546 48.2969C19.5074 48.5611 19.1963 48.767 18.8213 48.9148C18.4492 49.0597 18.0245 49.1321 17.5472 49.1321ZM26.674 44.0526L25.5191 44.2571C25.4708 44.1094 25.3941 43.9687 25.289 43.8352C25.1867 43.7017 25.0475 43.5923 24.8714 43.5071C24.6953 43.4219 24.4751 43.3793 24.2109 43.3793C23.8501 43.3793 23.549 43.4602 23.3075 43.6222C23.066 43.7812 22.9453 43.9872 22.9453 44.2401C22.9453 44.4588 23.0262 44.6349 23.1882 44.7685C23.3501 44.902 23.6115 45.0114 23.9723 45.0966L25.012 45.3352C25.6143 45.4744 26.0632 45.6889 26.3586 45.9787C26.6541 46.2685 26.8018 46.6449 26.8018 47.108C26.8018 47.5 26.6882 47.8494 26.4609 48.1562C26.2365 48.4602 25.9225 48.6989 25.5191 48.8722C25.1186 49.0455 24.6541 49.1321 24.1257 49.1321C23.3927 49.1321 22.7947 48.9759 22.3316 48.6634C21.8686 48.348 21.5845 47.9006 21.4794 47.321L22.7109 47.1335C22.7876 47.4545 22.9453 47.6974 23.1839 47.8622C23.4225 48.0241 23.7336 48.1051 24.1171 48.1051C24.5348 48.1051 24.8686 48.0185 25.1186 47.8452C25.3686 47.669 25.4936 47.4545 25.4936 47.2017C25.4936 46.9972 25.4169 46.8253 25.2635 46.6861C25.1129 46.5469 24.8813 46.4418 24.5688 46.3707L23.4609 46.1278C22.8501 45.9886 22.3984 45.767 22.1058 45.4631C21.816 45.1591 21.6711 44.7741 21.6711 44.3082C21.6711 43.9219 21.7791 43.5838 21.995 43.294C22.2109 43.0043 22.5092 42.7784 22.8899 42.6165C23.2706 42.4517 23.7066 42.3693 24.1981 42.3693C24.9055 42.3693 25.4623 42.5227 25.8686 42.8295C26.2748 43.1335 26.5433 43.5412 26.674 44.0526ZM33.1076 44.0526L31.9527 44.2571C31.9044 44.1094 31.8277 43.9687 31.7226 43.8352C31.6203 43.7017 31.4811 43.5923 31.305 43.5071C31.1289 43.4219 30.9087 43.3793 30.6445 43.3793C30.2837 43.3793 29.9826 43.4602 29.7411 43.6222C29.4996 43.7812 29.3789 43.9872 29.3789 44.2401C29.3789 44.4588 29.4598 44.6349 29.6218 44.7685C29.7837 44.902 30.0451 45.0114 30.4059 45.0966L31.4456 45.3352C32.0479 45.4744 32.4968 45.6889 32.7922 45.9787C33.0877 46.2685 33.2354 46.6449 33.2354 47.108C33.2354 47.5 33.1218 47.8494 32.8945 48.1562C32.6701 48.4602 32.3561 48.6989 31.9527 48.8722C31.5522 49.0455 31.0877 49.1321 30.5593 49.1321C29.8263 49.1321 29.2283 48.9759 28.7652 48.6634C28.3022 48.348 28.0181 47.9006 27.913 47.321L29.1445 47.1335C29.2212 47.4545 29.3789 47.6974 29.6175 47.8622C29.8561 48.0241 30.1672 48.1051 30.5507 48.1051C30.9684 48.1051 31.3022 48.0185 31.5522 47.8452C31.8022 47.669 31.9272 47.4545 31.9272 47.2017C31.9272 46.9972 31.8505 46.8253 31.697 46.6861C31.5465 46.5469 31.3149 46.4418 31.0024 46.3707L29.8945 46.1278C29.2837 45.9886 28.832 45.767 28.5394 45.4631C28.2496 45.1591 28.1047 44.7741 28.1047 44.3082C28.1047 43.9219 28.2127 43.5838 28.4286 43.294C28.6445 43.0043 28.9428 42.7784 29.3235 42.6165C29.7041 42.4517 30.1402 42.3693 30.6317 42.3693C31.3391 42.3693 31.8959 42.5227 32.3022 42.8295C32.7084 43.1335 32.9769 43.5412 33.1076 44.0526ZM36.5411 49.1449C36.1264 49.1449 35.7514 49.0682 35.4161 48.9148C35.0809 48.7585 34.8153 48.5327 34.6193 48.2372C34.4261 47.9418 34.3295 47.5795 34.3295 47.1506C34.3295 46.7812 34.4005 46.4773 34.5426 46.2386C34.6846 46 34.8764 45.8111 35.1179 45.6719C35.3593 45.5327 35.6292 45.4276 35.9275 45.3565C36.2258 45.2855 36.5298 45.2315 36.8394 45.1946C37.2315 45.1491 37.5497 45.1122 37.794 45.0838C38.0383 45.0526 38.2159 45.0028 38.3267 44.9347C38.4375 44.8665 38.4929 44.7557 38.4929 44.6023V44.5724C38.4929 44.2003 38.3877 43.9119 38.1775 43.7074C37.9701 43.5028 37.6605 43.4006 37.2485 43.4006C36.8196 43.4006 36.4815 43.4957 36.2343 43.6861C35.99 43.8736 35.821 44.0824 35.7272 44.3125L34.5298 44.0398C34.6718 43.642 34.8792 43.321 35.1519 43.0767C35.4275 42.8295 35.7443 42.6506 36.1022 42.5398C36.4602 42.4261 36.8366 42.3693 37.2315 42.3693C37.4929 42.3693 37.7698 42.4006 38.0625 42.4631C38.3579 42.5227 38.6335 42.6335 38.8892 42.7955C39.1477 42.9574 39.3593 43.1889 39.5241 43.4901C39.6889 43.7884 39.7713 44.1761 39.7713 44.6534V49H38.5269V48.1051H38.4758C38.3934 48.2699 38.2698 48.4318 38.1051 48.5909C37.9403 48.75 37.7286 48.8821 37.4701 48.9872C37.2116 49.0923 36.9019 49.1449 36.5411 49.1449ZM36.8181 48.1222C37.1704 48.1222 37.4715 48.0526 37.7215 47.9134C37.9744 47.7741 38.1661 47.5923 38.2968 47.3679C38.4304 47.1406 38.4971 46.8977 38.4971 46.6392V45.7955C38.4517 45.8409 38.3636 45.8835 38.2329 45.9233C38.1051 45.9602 37.9588 45.9929 37.794 46.0213C37.6292 46.0469 37.4687 46.071 37.3125 46.0938C37.1562 46.1136 37.0255 46.1307 36.9204 46.1449C36.6733 46.1761 36.4474 46.2287 36.2429 46.3026C36.0411 46.3764 35.8792 46.483 35.7571 46.6222C35.6377 46.7585 35.5781 46.9403 35.5781 47.1676C35.5781 47.483 35.6946 47.7216 35.9275 47.8835C36.1605 48.0426 36.4573 48.1222 36.8181 48.1222ZM44.2127 51.5909C43.6928 51.5909 43.2453 51.5227 42.8703 51.3864C42.4982 51.25 42.1942 51.0696 41.9584 50.8452C41.7226 50.6207 41.5465 50.375 41.43 50.108L42.5252 49.6562C42.6019 49.7812 42.7041 49.9134 42.832 50.0526C42.9627 50.1946 43.1388 50.3153 43.3604 50.4148C43.5848 50.5142 43.8732 50.5639 44.2255 50.5639C44.7084 50.5639 45.1076 50.446 45.4229 50.2102C45.7382 49.9773 45.8959 49.6051 45.8959 49.0938V47.8068H45.8149C45.7382 47.946 45.6274 48.1009 45.4826 48.2713C45.3405 48.4418 45.1445 48.5895 44.8945 48.7145C44.6445 48.8395 44.3192 48.902 43.9186 48.902C43.4016 48.902 42.9357 48.7812 42.5209 48.5398C42.109 48.2955 41.7823 47.9361 41.5408 47.4616C41.3022 46.9844 41.1828 46.3977 41.1828 45.7017C41.1828 45.0057 41.3007 44.4091 41.5365 43.9119C41.7752 43.4148 42.1019 43.0341 42.5166 42.7699C42.9314 42.5028 43.4016 42.3693 43.9272 42.3693C44.3334 42.3693 44.6615 42.4375 44.9115 42.5739C45.1615 42.7074 45.3561 42.8636 45.4953 43.0426C45.6374 43.2216 45.7468 43.3793 45.8235 43.5156H45.9172V42.4545H47.1658V49.1449C47.1658 49.7074 47.0351 50.169 46.7737 50.5298C46.5124 50.8906 46.1587 51.1577 45.7127 51.331C45.2695 51.5043 44.7695 51.5909 44.2127 51.5909ZM44.1999 47.8452C44.5664 47.8452 44.876 47.7599 45.1289 47.5895C45.3845 47.4162 45.5777 47.169 45.7084 46.848C45.8419 46.5241 45.9087 46.1364 45.9087 45.6847C45.9087 45.2443 45.8434 44.8565 45.7127 44.5213C45.582 44.1861 45.3902 43.9247 45.1374 43.7372C44.8845 43.5469 44.572 43.4517 44.1999 43.4517C43.8164 43.4517 43.4968 43.5511 43.2411 43.75C42.9854 43.946 42.7922 44.2131 42.6615 44.5511C42.5337 44.8892 42.4698 45.267 42.4698 45.6847C42.4698 46.1136 42.5351 46.4901 42.6658 46.8139C42.7965 47.1378 42.9897 47.3906 43.2453 47.5724C43.5039 47.7543 43.822 47.8452 44.1999 47.8452ZM51.6956 49.1321C51.0507 49.1321 50.4953 48.9943 50.0294 48.7188C49.5664 48.4403 49.2084 48.0497 48.9556 47.5469C48.7056 47.0412 48.5806 46.4489 48.5806 45.7699C48.5806 45.0994 48.7056 44.5085 48.9556 43.9972C49.2084 43.4858 49.5607 43.0866 50.0124 42.7997C50.4669 42.5128 50.9982 42.3693 51.6061 42.3693C51.9755 42.3693 52.3334 42.4304 52.68 42.5526C53.0266 42.6747 53.3377 42.8665 53.6132 43.1278C53.8888 43.3892 54.1061 43.7287 54.2652 44.1463C54.4243 44.5611 54.5039 45.0653 54.5039 45.6591V46.1108H49.3007V45.1562H53.2553C53.2553 44.821 53.1871 44.5241 53.0507 44.2656C52.9144 44.0043 52.7226 43.7983 52.4755 43.6477C52.2311 43.4972 51.9442 43.4219 51.6147 43.4219C51.2567 43.4219 50.9442 43.5099 50.6772 43.6861C50.413 43.8594 50.2084 44.0866 50.0635 44.3679C49.9215 44.6463 49.8505 44.9489 49.8505 45.2756V46.0213C49.8505 46.4588 49.9272 46.831 50.0806 47.1378C50.2368 47.4446 50.4541 47.679 50.7326 47.8409C51.011 48 51.3362 48.0795 51.7084 48.0795C51.9499 48.0795 52.1701 48.0455 52.3689 47.9773C52.5678 47.9062 52.7397 47.8011 52.8845 47.6619C53.0294 47.5227 53.1402 47.3509 53.2169 47.1463L54.4229 47.3636C54.3263 47.7187 54.153 48.0298 53.903 48.2969C53.6559 48.5611 53.3448 48.767 52.9698 48.9148C52.5976 49.0597 52.1729 49.1321 51.6956 49.1321ZM60.8224 44.0526L59.6676 44.2571C59.6193 44.1094 59.5426 43.9687 59.4375 43.8352C59.3352 43.7017 59.196 43.5923 59.0198 43.5071C58.8437 43.4219 58.6235 43.3793 58.3593 43.3793C57.9985 43.3793 57.6974 43.4602 57.4559 43.6222C57.2144 43.7812 57.0937 43.9872 57.0937 44.2401C57.0937 44.4588 57.1747 44.6349 57.3366 44.7685C57.4985 44.902 57.7599 45.0114 58.1207 45.0966L59.1605 45.3352C59.7627 45.4744 60.2116 45.6889 60.5071 45.9787C60.8025 46.2685 60.9502 46.6449 60.9502 47.108C60.9502 47.5 60.8366 47.8494 60.6093 48.1562C60.3849 48.4602 60.071 48.6989 59.6676 48.8722C59.267 49.0455 58.8025 49.1321 58.2741 49.1321C57.5411 49.1321 56.9431 48.9759 56.4801 48.6634C56.017 48.348 55.7329 47.9006 55.6278 47.321L56.8593 47.1335C56.936 47.4545 57.0937 47.6974 57.3323 47.8622C57.571 48.0241 57.8821 48.1051 58.2656 48.1051C58.6832 48.1051 59.017 48.0185 59.267 47.8452C59.517 47.669 59.642 47.4545 59.642 47.2017C59.642 46.9972 59.5653 46.8253 59.4119 46.6861C59.2613 46.5469 59.0298 46.4418 58.7173 46.3707L57.6093 46.1278C56.9985 45.9886 56.5468 45.767 56.2542 45.4631C55.9644 45.1591 55.8196 44.7741 55.8196 44.3082C55.8196 43.9219 55.9275 43.5838 56.1434 43.294C56.3593 43.0043 56.6576 42.7784 57.0383 42.6165C57.419 42.4517 57.8551 42.3693 58.3465 42.3693C59.0539 42.3693 59.6108 42.5227 60.017 42.8295C60.4233 43.1335 60.6917 43.5412 60.8224 44.0526Z" fill="#617D8A"/>
<defs>
<clipPath id="clip0_51_997">
<rect width="24" height="24" fill="white" transform="translate(20.6001 4)"/>
</clipPath>
</defs>
</svg>
