<svg width="66" height="54" viewBox="0 0 66 54" fill="none" xmlns="http://www.w3.org/2000/svg">
<g clip-path="url(#clip0_51_1169)">
<path fill-rule="evenodd" clip-rule="evenodd" d="M25.8501 16C25.8501 16.8284 25.1785 17.5 24.3501 17.5C23.5217 17.5 22.8501 16.8284 22.8501 16C22.8501 15.1716 23.5217 14.5 24.3501 14.5C25.1785 14.5 25.8501 15.1716 25.8501 16ZM24.3501 8.5C23.5217 8.5 22.8501 9.17157 22.8501 10C22.8501 10.8284 23.5217 11.5 24.3501 11.5C25.1785 11.5 25.8501 10.8284 25.8501 10C25.8501 9.17157 25.1785 8.5 24.3501 8.5ZM24.3501 20.5C23.5217 20.5 22.8501 21.1716 22.8501 22C22.8501 22.8284 23.5217 23.5 24.3501 23.5C25.1785 23.5 25.8501 22.8284 25.8501 22C25.8501 21.1716 25.1785 20.5 24.3501 20.5ZM40.8501 14.5H28.8501C28.4359 14.5 28.1001 14.8358 28.1001 15.25V16.75C28.1001 17.1642 28.4359 17.5 28.8501 17.5H40.8501C41.2643 17.5 41.6001 17.1642 41.6001 16.75V15.25C41.6001 14.8358 41.2643 14.5 40.8501 14.5ZM40.8501 8.5H28.8501C28.4359 8.5 28.1001 8.83579 28.1001 9.25V10.75C28.1001 11.1642 28.4359 11.5 28.8501 11.5H40.8501C41.2643 11.5 41.6001 11.1642 41.6001 10.75V9.25C41.6001 8.83579 41.2643 8.5 40.8501 8.5ZM40.8501 20.5H28.8501C28.4359 20.5 28.1001 20.8358 28.1001 21.25V22.75C28.1001 23.1642 28.4359 23.5 28.8501 23.5H40.8501C41.2643 23.5 41.6001 23.1642 41.6001 22.75V21.25C41.6001 20.8358 41.2643 20.5 40.8501 20.5Z" fill="#121712"/>
</g>
<path d="M9.30748 43.1108H7.97794C7.9268 42.8267 7.83163 42.5767 7.69243 42.3608C7.55322 42.1449 7.38277 41.9616 7.18106 41.8111C6.97936 41.6605 6.75351 41.5469 6.50351 41.4702C6.25635 41.3935 5.99356 41.3551 5.71515 41.3551C5.21231 41.3551 4.76203 41.4815 4.3643 41.7344C3.96942 41.9872 3.65692 42.358 3.4268 42.8466C3.19953 43.3352 3.08589 43.9318 3.08589 44.6364C3.08589 45.3466 3.19953 45.946 3.4268 46.4347C3.65692 46.9233 3.97084 47.2926 4.36856 47.5426C4.76629 47.7926 5.21373 47.9176 5.71089 47.9176C5.98646 47.9176 6.24783 47.8807 6.49498 47.8068C6.74498 47.7301 6.97084 47.6179 7.17254 47.4702C7.37425 47.3224 7.5447 47.142 7.6839 46.929C7.82595 46.7131 7.92396 46.4659 7.97794 46.1875L9.30748 46.1918C9.23646 46.6207 9.09868 47.0156 8.89413 47.3764C8.69243 47.7344 8.43248 48.044 8.1143 48.3054C7.79896 48.5639 7.43817 48.7642 7.03192 48.9062C6.62567 49.0483 6.18248 49.1193 5.70237 49.1193C4.94669 49.1193 4.27339 48.9403 3.68248 48.5824C3.09158 48.2216 2.62567 47.706 2.28476 47.0355C1.94669 46.3651 1.77765 45.5653 1.77765 44.6364C1.77765 43.7045 1.94811 42.9048 2.28902 42.2372C2.62993 41.5668 3.09584 41.0526 3.68675 40.6946C4.27765 40.3338 4.94953 40.1534 5.70237 40.1534C6.16544 40.1534 6.59726 40.2202 6.99783 40.3537C7.40123 40.4844 7.76345 40.6776 8.08447 40.9332C8.4055 41.1861 8.67112 41.4957 8.88135 41.8622C9.09158 42.2259 9.23362 42.642 9.30748 43.1108ZM12.6857 49.1449C12.2709 49.1449 11.8959 49.0682 11.5607 48.9148C11.2255 48.7585 10.9598 48.5327 10.7638 48.2372C10.5706 47.9418 10.474 47.5795 10.474 47.1506C10.474 46.7812 10.5451 46.4773 10.6871 46.2386C10.8291 46 11.0209 45.8111 11.2624 45.6719C11.5039 45.5327 11.7737 45.4276 12.072 45.3565C12.3703 45.2855 12.6743 45.2315 12.984 45.1946C13.376 45.1491 13.6942 45.1122 13.9385 45.0838C14.1828 45.0526 14.3604 45.0028 14.4712 44.9347C14.582 44.8665 14.6374 44.7557 14.6374 44.6023V44.5724C14.6374 44.2003 14.5323 43.9119 14.322 43.7074C14.1147 43.5028 13.805 43.4006 13.3931 43.4006C12.9641 43.4006 12.626 43.4957 12.3789 43.6861C12.1345 43.8736 11.9655 44.0824 11.8718 44.3125L10.6743 44.0398C10.8164 43.642 11.0237 43.321 11.2965 43.0767C11.572 42.8295 11.8888 42.6506 12.2468 42.5398C12.6047 42.4261 12.9811 42.3693 13.376 42.3693C13.6374 42.3693 13.9144 42.4006 14.207 42.4631C14.5024 42.5227 14.778 42.6335 15.0337 42.7955C15.2922 42.9574 15.5039 43.1889 15.6686 43.4901C15.8334 43.7884 15.9158 44.1761 15.9158 44.6534V49H14.6715V48.1051H14.6203C14.538 48.2699 14.4144 48.4318 14.2496 48.5909C14.0848 48.75 13.8732 48.8821 13.6147 48.9872C13.3561 49.0923 13.0465 49.1449 12.6857 49.1449ZM12.9627 48.1222C13.3149 48.1222 13.6161 48.0526 13.8661 47.9134C14.1189 47.7741 14.3107 47.5923 14.4414 47.3679C14.5749 47.1406 14.6416 46.8977 14.6416 46.6392V45.7955C14.5962 45.8409 14.5081 45.8835 14.3774 45.9233C14.2496 45.9602 14.1033 45.9929 13.9385 46.0213C13.7737 46.0469 13.6132 46.071 13.457 46.0938C13.3007 46.1136 13.1701 46.1307 13.0649 46.1449C12.8178 46.1761 12.5919 46.2287 12.3874 46.3026C12.1857 46.3764 12.0237 46.483 11.9016 46.6222C11.7823 46.7585 11.7226 46.9403 11.7226 47.1676C11.7226 47.483 11.8391 47.7216 12.072 47.8835C12.305 48.0426 12.6019 48.1222 12.9627 48.1222ZM20.6683 42.4545V43.4773H17.093V42.4545H20.6683ZM18.0518 40.8864H19.326V47.0781C19.326 47.3253 19.3629 47.5114 19.4367 47.6364C19.5106 47.7585 19.6058 47.8423 19.7223 47.8878C19.8416 47.9304 19.9708 47.9517 20.11 47.9517C20.2123 47.9517 20.3018 47.9446 20.3785 47.9304C20.4552 47.9162 20.5149 47.9048 20.5575 47.8963L20.7876 48.9489C20.7137 48.9773 20.6086 49.0057 20.4723 49.0341C20.3359 49.0653 20.1654 49.0824 19.9609 49.0852C19.6257 49.0909 19.3132 49.0312 19.0234 48.9062C18.7336 48.7812 18.4992 48.5881 18.3203 48.3267C18.1413 48.0653 18.0518 47.7372 18.0518 47.3423V40.8864ZM24.8284 49.1321C24.1835 49.1321 23.6282 48.9943 23.1622 48.7188C22.6992 48.4403 22.3412 48.0497 22.0884 47.5469C21.8384 47.0412 21.7134 46.4489 21.7134 45.7699C21.7134 45.0994 21.8384 44.5085 22.0884 43.9972C22.3412 43.4858 22.6935 43.0866 23.1452 42.7997C23.5997 42.5128 24.131 42.3693 24.7389 42.3693C25.1083 42.3693 25.4662 42.4304 25.8128 42.5526C26.1594 42.6747 26.4705 42.8665 26.746 43.1278C27.0216 43.3892 27.2389 43.7287 27.398 44.1463C27.5571 44.5611 27.6367 45.0653 27.6367 45.6591V46.1108H22.4335V45.1562H26.3881C26.3881 44.821 26.3199 44.5241 26.1835 44.2656C26.0472 44.0043 25.8554 43.7983 25.6083 43.6477C25.3639 43.4972 25.077 43.4219 24.7475 43.4219C24.3895 43.4219 24.077 43.5099 23.81 43.6861C23.5458 43.8594 23.3412 44.0866 23.1963 44.3679C23.0543 44.6463 22.9833 44.9489 22.9833 45.2756V46.0213C22.9833 46.4588 23.06 46.831 23.2134 47.1378C23.3696 47.4446 23.587 47.679 23.8654 47.8409C24.1438 48 24.4691 48.0795 24.8412 48.0795C25.0827 48.0795 25.3029 48.0455 25.5017 47.9773C25.7006 47.9062 25.8725 47.8011 26.0174 47.6619C26.1622 47.5227 26.273 47.3509 26.3497 47.1463L27.5557 47.3636C27.4591 47.7187 27.2858 48.0298 27.0358 48.2969C26.7887 48.5611 26.4776 48.767 26.1026 48.9148C25.7304 49.0597 25.3057 49.1321 24.8284 49.1321ZM31.7947 51.5909C31.2748 51.5909 30.8274 51.5227 30.4524 51.3864C30.0802 51.25 29.7762 51.0696 29.5404 50.8452C29.3046 50.6207 29.1285 50.375 29.012 50.108L30.1072 49.6562C30.1839 49.7812 30.2862 49.9134 30.414 50.0526C30.5447 50.1946 30.7208 50.3153 30.9424 50.4148C31.1669 50.5142 31.4552 50.5639 31.8075 50.5639C32.2904 50.5639 32.6896 50.446 33.0049 50.2102C33.3203 49.9773 33.4779 49.6051 33.4779 49.0938V47.8068H33.397C33.3203 47.946 33.2095 48.1009 33.0646 48.2713C32.9225 48.4418 32.7265 48.5895 32.4765 48.7145C32.2265 48.8395 31.9012 48.902 31.5007 48.902C30.9836 48.902 30.5177 48.7812 30.1029 48.5398C29.691 48.2955 29.3643 47.9361 29.1228 47.4616C28.8842 46.9844 28.7649 46.3977 28.7649 45.7017C28.7649 45.0057 28.8828 44.4091 29.1186 43.9119C29.3572 43.4148 29.6839 43.0341 30.0987 42.7699C30.5134 42.5028 30.9836 42.3693 31.5092 42.3693C31.9154 42.3693 32.2436 42.4375 32.4936 42.5739C32.7436 42.7074 32.9382 42.8636 33.0774 43.0426C33.2194 43.2216 33.3288 43.3793 33.4055 43.5156H33.4992V42.4545H34.7478V49.1449C34.7478 49.7074 34.6171 50.169 34.3558 50.5298C34.0944 50.8906 33.7407 51.1577 33.2947 51.331C32.8515 51.5043 32.3515 51.5909 31.7947 51.5909ZM31.7819 47.8452C32.1484 47.8452 32.4581 47.7599 32.7109 47.5895C32.9666 47.4162 33.1598 47.169 33.2904 46.848C33.424 46.5241 33.4907 46.1364 33.4907 45.6847C33.4907 45.2443 33.4254 44.8565 33.2947 44.5213C33.164 44.1861 32.9723 43.9247 32.7194 43.7372C32.4666 43.5469 32.1541 43.4517 31.7819 43.4517C31.3984 43.4517 31.0788 43.5511 30.8231 43.75C30.5674 43.946 30.3742 44.2131 30.2436 44.5511C30.1157 44.8892 30.0518 45.267 30.0518 45.6847C30.0518 46.1136 30.1171 46.4901 30.2478 46.8139C30.3785 47.1378 30.5717 47.3906 30.8274 47.5724C31.0859 47.7543 31.4041 47.8452 31.7819 47.8452ZM39.2137 49.1321C38.6001 49.1321 38.0646 48.9915 37.6072 48.7102C37.1498 48.429 36.7947 48.0355 36.5419 47.5298C36.289 47.0241 36.1626 46.4332 36.1626 45.7571C36.1626 45.0781 36.289 44.4844 36.5419 43.9759C36.7947 43.4673 37.1498 43.0724 37.6072 42.7912C38.0646 42.5099 38.6001 42.3693 39.2137 42.3693C39.8274 42.3693 40.3629 42.5099 40.8203 42.7912C41.2777 43.0724 41.6328 43.4673 41.8856 43.9759C42.1385 44.4844 42.2649 45.0781 42.2649 45.7571C42.2649 46.4332 42.1385 47.0241 41.8856 47.5298C41.6328 48.0355 41.2777 48.429 40.8203 48.7102C40.3629 48.9915 39.8274 49.1321 39.2137 49.1321ZM39.218 48.0625C39.6157 48.0625 39.9453 47.9574 40.2066 47.7472C40.468 47.5369 40.6612 47.2571 40.7862 46.9077C40.914 46.5582 40.9779 46.1733 40.9779 45.7528C40.9779 45.3352 40.914 44.9517 40.7862 44.6023C40.6612 44.25 40.468 43.9673 40.2066 43.7543C39.9453 43.5412 39.6157 43.4347 39.218 43.4347C38.8174 43.4347 38.485 43.5412 38.2208 43.7543C37.9595 43.9673 37.7649 44.25 37.637 44.6023C37.512 44.9517 37.4495 45.3352 37.4495 45.7528C37.4495 46.1733 37.512 46.5582 37.637 46.9077C37.7649 47.2571 37.9595 47.5369 38.2208 47.7472C38.485 47.9574 38.8174 48.0625 39.218 48.0625ZM43.6871 49V42.4545H44.9186V43.4943H44.9868C45.1061 43.142 45.3164 42.8651 45.6175 42.6634C45.9215 42.4588 46.2652 42.3565 46.6487 42.3565C46.7283 42.3565 46.822 42.3594 46.93 42.3651C47.0408 42.3707 47.1274 42.3778 47.1899 42.3864V43.6051C47.1388 43.5909 47.0479 43.5753 46.9172 43.5582C46.7865 43.5384 46.6559 43.5284 46.5252 43.5284C46.224 43.5284 45.9556 43.5923 45.7198 43.7202C45.4868 43.8452 45.3022 44.0199 45.1658 44.2443C45.0294 44.4659 44.9612 44.7187 44.9612 45.0028V49H43.6871ZM48.2926 49V42.4545H49.5667V49H48.2926ZM48.936 41.4446C48.7144 41.4446 48.5241 41.3707 48.365 41.223C48.2088 41.0724 48.1306 40.8935 48.1306 40.6861C48.1306 40.4759 48.2088 40.2969 48.365 40.1491C48.5241 39.9986 48.7144 39.9233 48.936 39.9233C49.1576 39.9233 49.3465 39.9986 49.5028 40.1491C49.6619 40.2969 49.7414 40.4759 49.7414 40.6861C49.7414 40.8935 49.6619 41.0724 49.5028 41.223C49.3465 41.3707 49.1576 41.4446 48.936 41.4446ZM54.1019 49.1321C53.457 49.1321 52.9016 48.9943 52.4357 48.7188C51.9726 48.4403 51.6147 48.0497 51.3618 47.5469C51.1118 47.0412 50.9868 46.4489 50.9868 45.7699C50.9868 45.0994 51.1118 44.5085 51.3618 43.9972C51.6147 43.4858 51.9669 43.0866 52.4186 42.7997C52.8732 42.5128 53.4044 42.3693 54.0124 42.3693C54.3817 42.3693 54.7397 42.4304 55.0862 42.5526C55.4328 42.6747 55.7439 42.8665 56.0195 43.1278C56.2951 43.3892 56.5124 43.7287 56.6715 44.1463C56.8306 44.5611 56.9101 45.0653 56.9101 45.6591V46.1108H51.707V45.1562H55.6615C55.6615 44.821 55.5934 44.5241 55.457 44.2656C55.3206 44.0043 55.1289 43.7983 54.8817 43.6477C54.6374 43.4972 54.3505 43.4219 54.0209 43.4219C53.663 43.4219 53.3505 43.5099 53.0834 43.6861C52.8192 43.8594 52.6147 44.0866 52.4698 44.3679C52.3277 44.6463 52.2567 44.9489 52.2567 45.2756V46.0213C52.2567 46.4588 52.3334 46.831 52.4868 47.1378C52.6431 47.4446 52.8604 47.679 53.1388 47.8409C53.4172 48 53.7425 48.0795 54.1147 48.0795C54.3561 48.0795 54.5763 48.0455 54.7752 47.9773C54.974 47.9062 55.1459 47.8011 55.2908 47.6619C55.4357 47.5227 55.5465 47.3509 55.6232 47.1463L56.8291 47.3636C56.7326 47.7187 56.5593 48.0298 56.3093 48.2969C56.0621 48.5611 55.751 48.767 55.376 48.9148C55.0039 49.0597 54.5791 49.1321 54.1019 49.1321ZM63.2286 44.0526L62.0738 44.2571C62.0255 44.1094 61.9488 43.9687 61.8437 43.8352C61.7414 43.7017 61.6022 43.5923 61.4261 43.5071C61.25 43.4219 61.0298 43.3793 60.7656 43.3793C60.4048 43.3793 60.1036 43.4602 59.8622 43.6222C59.6207 43.7812 59.5 43.9872 59.5 44.2401C59.5 44.4588 59.5809 44.6349 59.7429 44.7685C59.9048 44.902 60.1661 45.0114 60.5269 45.0966L61.5667 45.3352C62.169 45.4744 62.6179 45.6889 62.9133 45.9787C63.2088 46.2685 63.3565 46.6449 63.3565 47.108C63.3565 47.5 63.2429 47.8494 63.0156 48.1562C62.7911 48.4602 62.4772 48.6989 62.0738 48.8722C61.6733 49.0455 61.2088 49.1321 60.6804 49.1321C59.9474 49.1321 59.3494 48.9759 58.8863 48.6634C58.4233 48.348 58.1392 47.9006 58.034 47.321L59.2656 47.1335C59.3423 47.4545 59.5 47.6974 59.7386 47.8622C59.9772 48.0241 60.2883 48.1051 60.6718 48.1051C61.0894 48.1051 61.4233 48.0185 61.6733 47.8452C61.9233 47.669 62.0483 47.4545 62.0483 47.2017C62.0483 46.9972 61.9715 46.8253 61.8181 46.6861C61.6676 46.5469 61.436 46.4418 61.1235 46.3707L60.0156 46.1278C59.4048 45.9886 58.9531 45.767 58.6605 45.4631C58.3707 45.1591 58.2258 44.7741 58.2258 44.3082C58.2258 43.9219 58.3338 43.5838 58.5497 43.294C58.7656 43.0043 59.0639 42.7784 59.4446 42.6165C59.8252 42.4517 60.2613 42.3693 60.7528 42.3693C61.4602 42.3693 62.017 42.5227 62.4233 42.8295C62.8295 43.1335 63.098 43.5412 63.2286 44.0526Z" fill="#121712"/>
<defs>
<clipPath id="clip0_51_1169">
<rect width="24" height="24" fill="white" transform="translate(20.6001 4)"/>
</clipPath>
</defs>
</svg>
