<svg width="66" height="54" viewBox="0 0 66 54" fill="none" xmlns="http://www.w3.org/2000/svg">
<g clip-path="url(#clip0_52_1526)">
<path fill-rule="evenodd" clip-rule="evenodd" d="M42.5845 14.7231L38.3563 18.4131L39.6229 23.9069C39.7599 24.494 39.5321 25.1062 39.0445 25.4608C38.5569 25.8155 37.9043 25.8437 37.3879 25.5325L32.5963 22.6262L27.8151 25.5325C27.2987 25.8437 26.6461 25.8155 26.1585 25.4608C25.6709 25.1062 25.4431 24.494 25.5801 23.9069L26.8448 18.4187L22.6157 14.7231C22.1584 14.3287 21.9822 13.6985 22.1687 13.124C22.3552 12.5496 22.868 12.1431 23.4698 12.0925L29.0442 11.6097L31.2201 6.41969C31.4524 5.86283 31.9967 5.50019 32.6001 5.50019C33.2035 5.50019 33.7477 5.86283 33.9801 6.41969L36.1626 11.6097L41.7351 12.0925C42.3369 12.1431 42.8497 12.5496 43.0362 13.124C43.2227 13.6985 43.0465 14.3287 42.5892 14.7231H42.5845Z" fill="#0F171A"/>
</g>
<path d="M9.5589 49V40.2727H12.6697C13.3458 40.2727 13.9069 40.3892 14.3529 40.6222C14.8018 40.8551 15.137 41.1776 15.3586 41.5895C15.5802 41.9986 15.691 42.4716 15.691 43.0085C15.691 43.5426 15.5788 44.0128 15.3544 44.419C15.1328 44.8224 14.7975 45.1364 14.3487 45.3608C13.9027 45.5852 13.3416 45.6974 12.6654 45.6974H10.3089V44.5639H12.5461C12.9723 44.5639 13.3188 44.5028 13.5859 44.3807C13.8558 44.2585 14.0532 44.081 14.1782 43.848C14.3032 43.6151 14.3657 43.3352 14.3657 43.0085C14.3657 42.679 14.3018 42.3935 14.174 42.152C14.049 41.9105 13.8515 41.7259 13.5816 41.598C13.3146 41.4673 12.9637 41.402 12.5291 41.402H10.8757V49H9.5589ZM13.8671 45.0625L16.0234 49H14.5234L12.4098 45.0625H13.8671ZM19.93 49.1321C19.2851 49.1321 18.7297 48.9943 18.2638 48.7188C17.8007 48.4403 17.4428 48.0497 17.1899 47.5469C16.9399 47.0412 16.8149 46.4489 16.8149 45.7699C16.8149 45.0994 16.9399 44.5085 17.1899 43.9972C17.4428 43.4858 17.7951 43.0866 18.2468 42.7997C18.7013 42.5128 19.2326 42.3693 19.8405 42.3693C20.2098 42.3693 20.5678 42.4304 20.9144 42.5526C21.261 42.6747 21.572 42.8665 21.8476 43.1278C22.1232 43.3892 22.3405 43.7287 22.4996 44.1463C22.6587 44.5611 22.7382 45.0653 22.7382 45.6591V46.1108H17.5351V45.1562H21.4897C21.4897 44.821 21.4215 44.5241 21.2851 44.2656C21.1487 44.0043 20.957 43.7983 20.7098 43.6477C20.4655 43.4972 20.1786 43.4219 19.849 43.4219C19.4911 43.4219 19.1786 43.5099 18.9115 43.6861C18.6473 43.8594 18.4428 44.0866 18.2979 44.3679C18.1559 44.6463 18.0848 44.9489 18.0848 45.2756V46.0213C18.0848 46.4588 18.1615 46.831 18.3149 47.1378C18.4712 47.4446 18.6885 47.679 18.9669 47.8409C19.2453 48 19.5706 48.0795 19.9428 48.0795C20.1843 48.0795 20.4044 48.0455 20.6033 47.9773C20.8022 47.9062 20.974 47.8011 21.1189 47.6619C21.2638 47.5227 21.3746 47.3509 21.4513 47.1463L22.6573 47.3636C22.5607 47.7187 22.3874 48.0298 22.1374 48.2969C21.8902 48.5611 21.5791 48.767 21.2041 48.9148C20.832 49.0597 20.4073 49.1321 19.93 49.1321ZM29.5639 42.4545L27.1903 49H25.8267L23.4488 42.4545H24.8167L26.4744 47.4915H26.5426L28.196 42.4545H29.5639ZM30.7613 49V42.4545H32.0355V49H30.7613ZM31.4048 41.4446C31.1832 41.4446 30.9929 41.3707 30.8338 41.223C30.6775 41.0724 30.5994 40.8935 30.5994 40.6861C30.5994 40.4759 30.6775 40.2969 30.8338 40.1491C30.9929 39.9986 31.1832 39.9233 31.4048 39.9233C31.6264 39.9233 31.8153 39.9986 31.9715 40.1491C32.1306 40.2969 32.2102 40.4759 32.2102 40.6861C32.2102 40.8935 32.1306 41.0724 31.9715 41.223C31.8153 41.3707 31.6264 41.4446 31.4048 41.4446ZM36.5706 49.1321C35.9257 49.1321 35.3703 48.9943 34.9044 48.7188C34.4414 48.4403 34.0834 48.0497 33.8306 47.5469C33.5806 47.0412 33.4556 46.4489 33.4556 45.7699C33.4556 45.0994 33.5806 44.5085 33.8306 43.9972C34.0834 43.4858 34.4357 43.0866 34.8874 42.7997C35.3419 42.5128 35.8732 42.3693 36.4811 42.3693C36.8505 42.3693 37.2084 42.4304 37.555 42.5526C37.9016 42.6747 38.2127 42.8665 38.4882 43.1278C38.7638 43.3892 38.9811 43.7287 39.1402 44.1463C39.2993 44.5611 39.3789 45.0653 39.3789 45.6591V46.1108H34.1757V45.1562H38.1303C38.1303 44.821 38.0621 44.5241 37.9257 44.2656C37.7894 44.0043 37.5976 43.7983 37.3505 43.6477C37.1061 43.4972 36.8192 43.4219 36.4897 43.4219C36.1317 43.4219 35.8192 43.5099 35.5522 43.6861C35.288 43.8594 35.0834 44.0866 34.9385 44.3679C34.7965 44.6463 34.7255 44.9489 34.7255 45.2756V46.0213C34.7255 46.4588 34.8022 46.831 34.9556 47.1378C35.1118 47.4446 35.3291 47.679 35.6076 47.8409C35.886 48 36.2112 48.0795 36.5834 48.0795C36.8249 48.0795 37.0451 48.0455 37.2439 47.9773C37.4428 47.9062 37.6147 47.8011 37.7595 47.6619C37.9044 47.5227 38.0152 47.3509 38.0919 47.1463L39.2979 47.3636C39.2013 47.7187 39.028 48.0298 38.778 48.2969C38.5309 48.5611 38.2198 48.767 37.8448 48.9148C37.4726 49.0597 37.0479 49.1321 36.5706 49.1321ZM42.1999 49L40.2737 42.4545H41.5905L42.8732 47.2614H42.9371L44.224 42.4545H45.5408L46.8192 47.2401H46.8831L48.1573 42.4545H49.474L47.5522 49H46.2524L44.9229 44.2741H44.8249L43.4953 49H42.1999ZM55.588 44.0526L54.4332 44.2571C54.3849 44.1094 54.3082 43.9687 54.2031 43.8352C54.1008 43.7017 53.9616 43.5923 53.7855 43.5071C53.6093 43.4219 53.3892 43.3793 53.125 43.3793C52.7642 43.3793 52.463 43.4602 52.2215 43.6222C51.9801 43.7812 51.8593 43.9872 51.8593 44.2401C51.8593 44.4588 51.9403 44.6349 52.1022 44.7685C52.2642 44.902 52.5255 45.0114 52.8863 45.0966L53.9261 45.3352C54.5284 45.4744 54.9772 45.6889 55.2727 45.9787C55.5681 46.2685 55.7159 46.6449 55.7159 47.108C55.7159 47.5 55.6022 47.8494 55.375 48.1562C55.1505 48.4602 54.8366 48.6989 54.4332 48.8722C54.0326 49.0455 53.5681 49.1321 53.0397 49.1321C52.3068 49.1321 51.7088 48.9759 51.2457 48.6634C50.7826 48.348 50.4985 47.9006 50.3934 47.321L51.625 47.1335C51.7017 47.4545 51.8593 47.6974 52.098 47.8622C52.3366 48.0241 52.6477 48.1051 53.0312 48.1051C53.4488 48.1051 53.7826 48.0185 54.0326 47.8452C54.2826 47.669 54.4076 47.4545 54.4076 47.2017C54.4076 46.9972 54.3309 46.8253 54.1775 46.6861C54.0269 46.5469 53.7954 46.4418 53.4829 46.3707L52.375 46.1278C51.7642 45.9886 51.3125 45.767 51.0198 45.4631C50.7301 45.1591 50.5852 44.7741 50.5852 44.3082C50.5852 43.9219 50.6931 43.5838 50.909 43.294C51.125 43.0043 51.4233 42.7784 51.8039 42.6165C52.1846 42.4517 52.6207 42.3693 53.1122 42.3693C53.8196 42.3693 54.3764 42.5227 54.7826 42.8295C55.1889 43.1335 55.4573 43.5412 55.588 44.0526Z" fill="#0F171A"/>
<defs>
<clipPath id="clip0_52_1526">
<rect width="24" height="24" fill="white" transform="translate(20.6001 4)"/>
</clipPath>
</defs>
</svg>
