<svg width="84" height="54" viewBox="0 0 84 54" fill="none" xmlns="http://www.w3.org/2000/svg">
<g clip-path="url(#clip0_53_1911)">
<path fill-rule="evenodd" clip-rule="evenodd" d="M46.4375 7C44.5016 7 42.8066 7.8325 41.75 9.23969C40.6934 7.8325 38.9984 7 37.0625 7C33.8538 7.00362 31.2536 9.60384 31.25 12.8125C31.25 19.375 40.9803 24.6869 41.3947 24.9062C41.6165 25.0256 41.8835 25.0256 42.1053 24.9062C42.5197 24.6869 52.25 19.375 52.25 12.8125C52.2464 9.60384 49.6462 7.00362 46.4375 7ZM41.75 23.3875C40.0381 22.39 32.75 17.8459 32.75 12.8125C32.7531 10.4321 34.6821 8.5031 37.0625 8.5C38.8859 8.5 40.4169 9.47125 41.0562 11.0312C41.1718 11.3126 41.4459 11.4963 41.75 11.4963C42.0541 11.4963 42.3282 11.3126 42.4438 11.0312C43.0831 9.46844 44.6141 8.5 46.4375 8.5C48.8179 8.5031 50.7469 10.4321 50.75 12.8125C50.75 17.8384 43.46 22.3891 41.75 23.3875Z" fill="#528294"/>
</g>
<path d="M16.2088 49V40.2727H21.6207V41.4062H17.5256V44.0653H21.233V45.1946H17.5256V49H16.2088ZM25.0192 49.1449C24.6044 49.1449 24.2294 49.0682 23.8942 48.9148C23.5589 48.7585 23.2933 48.5327 23.0973 48.2372C22.9041 47.9418 22.8075 47.5795 22.8075 47.1506C22.8075 46.7812 22.8786 46.4773 23.0206 46.2386C23.1626 46 23.3544 45.8111 23.5959 45.6719C23.8374 45.5327 24.1072 45.4276 24.4055 45.3565C24.7038 45.2855 25.0078 45.2315 25.3175 45.1946C25.7095 45.1491 26.0277 45.1122 26.272 45.0838C26.5163 45.0526 26.6939 45.0028 26.8047 44.9347C26.9155 44.8665 26.9709 44.7557 26.9709 44.6023V44.5724C26.9709 44.2003 26.8658 43.9119 26.6555 43.7074C26.4482 43.5028 26.1385 43.4006 25.7266 43.4006C25.2976 43.4006 24.9595 43.4957 24.7124 43.6861C24.468 43.8736 24.299 44.0824 24.2053 44.3125L23.0078 44.0398C23.1499 43.642 23.3572 43.321 23.63 43.0767C23.9055 42.8295 24.2223 42.6506 24.5803 42.5398C24.9382 42.4261 25.3146 42.3693 25.7095 42.3693C25.9709 42.3693 26.2479 42.4006 26.5405 42.4631C26.8359 42.5227 27.1115 42.6335 27.3672 42.7955C27.6257 42.9574 27.8374 43.1889 28.0021 43.4901C28.1669 43.7884 28.2493 44.1761 28.2493 44.6534V49H27.005V48.1051H26.9538C26.8714 48.2699 26.7479 48.4318 26.5831 48.5909C26.4183 48.75 26.2067 48.8821 25.9482 48.9872C25.6896 49.0923 25.38 49.1449 25.0192 49.1449ZM25.2962 48.1222C25.6484 48.1222 25.9496 48.0526 26.1996 47.9134C26.4524 47.7741 26.6442 47.5923 26.7749 47.3679C26.9084 47.1406 26.9751 46.8977 26.9751 46.6392V45.7955C26.9297 45.8409 26.8416 45.8835 26.7109 45.9233C26.5831 45.9602 26.4368 45.9929 26.272 46.0213C26.1072 46.0469 25.9467 46.071 25.7905 46.0938C25.6342 46.1136 25.5036 46.1307 25.3984 46.1449C25.1513 46.1761 24.9254 46.2287 24.7209 46.3026C24.5192 46.3764 24.3572 46.483 24.2351 46.6222C24.1158 46.7585 24.0561 46.9403 24.0561 47.1676C24.0561 47.483 24.1726 47.7216 24.4055 47.8835C24.6385 48.0426 24.9354 48.1222 25.2962 48.1222ZM35.3114 42.4545L32.9379 49H31.5742L29.1964 42.4545H30.5643L32.2219 47.4915H32.2901L33.9435 42.4545H35.3114ZM39.0433 49.1321C38.4297 49.1321 37.8942 48.9915 37.4368 48.7102C36.9794 48.429 36.6243 48.0355 36.3714 47.5298C36.1186 47.0241 35.9922 46.4332 35.9922 45.7571C35.9922 45.0781 36.1186 44.4844 36.3714 43.9759C36.6243 43.4673 36.9794 43.0724 37.4368 42.7912C37.8942 42.5099 38.4297 42.3693 39.0433 42.3693C39.657 42.3693 40.1925 42.5099 40.6499 42.7912C41.1072 43.0724 41.4624 43.4673 41.7152 43.9759C41.968 44.4844 42.0945 45.0781 42.0945 45.7571C42.0945 46.4332 41.968 47.0241 41.7152 47.5298C41.4624 48.0355 41.1072 48.429 40.6499 48.7102C40.1925 48.9915 39.657 49.1321 39.0433 49.1321ZM39.0476 48.0625C39.4453 48.0625 39.7749 47.9574 40.0362 47.7472C40.2976 47.5369 40.4908 47.2571 40.6158 46.9077C40.7436 46.5582 40.8075 46.1733 40.8075 45.7528C40.8075 45.3352 40.7436 44.9517 40.6158 44.6023C40.4908 44.25 40.2976 43.9673 40.0362 43.7543C39.7749 43.5412 39.4453 43.4347 39.0476 43.4347C38.647 43.4347 38.3146 43.5412 38.0504 43.7543C37.7891 43.9673 37.5945 44.25 37.4666 44.6023C37.3416 44.9517 37.2791 45.3352 37.2791 45.7528C37.2791 46.1733 37.3416 46.5582 37.4666 46.9077C37.5945 47.2571 37.7891 47.5369 38.0504 47.7472C38.3146 47.9574 38.647 48.0625 39.0476 48.0625ZM43.5167 49V42.4545H44.7482V43.4943H44.8164C44.9357 43.142 45.146 42.8651 45.4471 42.6634C45.7511 42.4588 46.0948 42.3565 46.4783 42.3565C46.5579 42.3565 46.6516 42.3594 46.7596 42.3651C46.8704 42.3707 46.957 42.3778 47.0195 42.3864V43.6051C46.9684 43.5909 46.8775 43.5753 46.7468 43.5582C46.6161 43.5384 46.4854 43.5284 46.3548 43.5284C46.0536 43.5284 45.7852 43.5923 45.5494 43.7202C45.3164 43.8452 45.1317 44.0199 44.9954 44.2443C44.859 44.4659 44.7908 44.7187 44.7908 45.0028V49H43.5167ZM48.1222 49V42.4545H49.3963V49H48.1222ZM48.7656 41.4446C48.544 41.4446 48.3537 41.3707 48.1946 41.223C48.0384 41.0724 47.9602 40.8935 47.9602 40.6861C47.9602 40.4759 48.0384 40.2969 48.1946 40.1491C48.3537 39.9986 48.544 39.9233 48.7656 39.9233C48.9872 39.9233 49.1761 39.9986 49.3324 40.1491C49.4915 40.2969 49.571 40.4759 49.571 40.6861C49.571 40.8935 49.4915 41.0724 49.3324 41.223C49.1761 41.3707 48.9872 41.4446 48.7656 41.4446ZM54.1658 42.4545V43.4773H50.5906V42.4545H54.1658ZM51.5494 40.8864H52.8235V47.0781C52.8235 47.3253 52.8604 47.5114 52.9343 47.6364C53.0082 47.7585 53.1033 47.8423 53.2198 47.8878C53.3391 47.9304 53.4684 47.9517 53.6076 47.9517C53.7099 47.9517 53.7994 47.9446 53.8761 47.9304C53.9528 47.9162 54.0124 47.9048 54.055 47.8963L54.2852 48.9489C54.2113 48.9773 54.1062 49.0057 53.9698 49.0341C53.8335 49.0653 53.663 49.0824 53.4585 49.0852C53.1232 49.0909 52.8107 49.0312 52.521 48.9062C52.2312 48.7812 51.9968 48.5881 51.8178 48.3267C51.6388 48.0653 51.5494 47.7372 51.5494 47.3423V40.8864ZM58.326 49.1321C57.6811 49.1321 57.1257 48.9943 56.6598 48.7188C56.1967 48.4403 55.8388 48.0497 55.5859 47.5469C55.3359 47.0412 55.2109 46.4489 55.2109 45.7699C55.2109 45.0994 55.3359 44.5085 55.5859 43.9972C55.8388 43.4858 56.1911 43.0866 56.6428 42.7997C57.0973 42.5128 57.6286 42.3693 58.2365 42.3693C58.6058 42.3693 58.9638 42.4304 59.3104 42.5526C59.657 42.6747 59.968 42.8665 60.2436 43.1278C60.5192 43.3892 60.7365 43.7287 60.8956 44.1463C61.0547 44.5611 61.1342 45.0653 61.1342 45.6591V46.1108H55.9311V45.1562H59.8857C59.8857 44.821 59.8175 44.5241 59.6811 44.2656C59.5447 44.0043 59.353 43.7983 59.1058 43.6477C58.8615 43.4972 58.5746 43.4219 58.245 43.4219C57.8871 43.4219 57.5746 43.5099 57.3075 43.6861C57.0433 43.8594 56.8388 44.0866 56.6939 44.3679C56.5518 44.6463 56.4808 44.9489 56.4808 45.2756V46.0213C56.4808 46.4588 56.5575 46.831 56.7109 47.1378C56.8672 47.4446 57.0845 47.679 57.3629 47.8409C57.6413 48 57.9666 48.0795 58.3388 48.0795C58.5803 48.0795 58.8004 48.0455 58.9993 47.9773C59.1982 47.9062 59.37 47.8011 59.5149 47.6619C59.6598 47.5227 59.7706 47.3509 59.8473 47.1463L61.0533 47.3636C60.9567 47.7187 60.7834 48.0298 60.5334 48.2969C60.2862 48.5611 59.9751 48.767 59.6001 48.9148C59.228 49.0597 58.8033 49.1321 58.326 49.1321ZM67.4528 44.0526L66.2979 44.2571C66.2496 44.1094 66.1729 43.9687 66.0678 43.8352C65.9656 43.7017 65.8263 43.5923 65.6502 43.5071C65.4741 43.4219 65.2539 43.3793 64.9897 43.3793C64.6289 43.3793 64.3278 43.4602 64.0863 43.6222C63.8448 43.7812 63.7241 43.9872 63.7241 44.2401C63.7241 44.4588 63.805 44.6349 63.967 44.7685C64.1289 44.902 64.3903 45.0114 64.7511 45.0966L65.7908 45.3352C66.3931 45.4744 66.842 45.6889 67.1374 45.9787C67.4329 46.2685 67.5806 46.6449 67.5806 47.108C67.5806 47.5 67.467 47.8494 67.2397 48.1562C67.0153 48.4602 66.7013 48.6989 66.2979 48.8722C65.8974 49.0455 65.4329 49.1321 64.9045 49.1321C64.1715 49.1321 63.5735 48.9759 63.1104 48.6634C62.6474 48.348 62.3633 47.9006 62.2582 47.321L63.4897 47.1335C63.5664 47.4545 63.7241 47.6974 63.9627 47.8622C64.2013 48.0241 64.5124 48.1051 64.896 48.1051C65.3136 48.1051 65.6474 48.0185 65.8974 47.8452C66.1474 47.669 66.2724 47.4545 66.2724 47.2017C66.2724 46.9972 66.1957 46.8253 66.0423 46.6861C65.8917 46.5469 65.6602 46.4418 65.3477 46.3707L64.2397 46.1278C63.6289 45.9886 63.1772 45.767 62.8846 45.4631C62.5948 45.1591 62.4499 44.7741 62.4499 44.3082C62.4499 43.9219 62.5579 43.5838 62.7738 43.294C62.9897 43.0043 63.288 42.7784 63.6687 42.6165C64.0494 42.4517 64.4854 42.3693 64.9769 42.3693C65.6843 42.3693 66.2411 42.5227 66.6474 42.8295C67.0536 43.1335 67.3221 43.5412 67.4528 44.0526Z" fill="#528294"/>
<defs>
<clipPath id="clip0_53_1911">
<rect width="24" height="24" fill="white" transform="translate(29.75 4)"/>
</clipPath>
</defs>
</svg>
