<svg width="84" height="54" viewBox="0 0 84 54" fill="none" xmlns="http://www.w3.org/2000/svg">
<g clip-path="url(#clip0_53_1904)">
<path fill-rule="evenodd" clip-rule="evenodd" d="M51.2806 24.4694L46.5866 19.7762C49.4129 16.383 49.0704 11.3669 45.8091 8.38935C42.5478 5.41176 37.5213 5.526 34.3987 8.64867C31.276 11.7713 31.1618 16.7978 34.1393 20.0591C37.1169 23.3204 42.133 23.6629 45.5262 20.8366L50.2194 25.5306C50.5124 25.8237 50.9876 25.8237 51.2806 25.5306C51.5737 25.2376 51.5737 24.7624 51.2806 24.4694ZM33.5 14.5C33.5 10.7721 36.5221 7.75 40.25 7.75C43.9779 7.75 47 10.7721 47 14.5C47 18.2279 43.9779 21.25 40.25 21.25C36.5238 21.2459 33.5041 18.2262 33.5 14.5Z" fill="#528294"/>
</g>
<path d="M21.2088 49V40.2727H26.6804V41.4062H22.5256V44.0653H26.3949V45.1946H22.5256V47.8665H26.7315V49H21.2088ZM29.3427 42.4545L30.7873 45.0028L32.2447 42.4545H33.6381L31.5969 45.7273L33.6552 49H32.2617L30.7873 46.554L29.3171 49H27.9194L29.9563 45.7273L27.945 42.4545H29.3427ZM34.9464 51.4545V42.4545H36.1907V43.5156H36.2972C36.3711 43.3793 36.4776 43.2216 36.6168 43.0426C36.756 42.8636 36.9492 42.7074 37.1964 42.5739C37.4435 42.4375 37.7702 42.3693 38.1765 42.3693C38.7049 42.3693 39.1765 42.5028 39.5913 42.7699C40.006 43.0369 40.3313 43.4219 40.5671 43.9247C40.8058 44.4276 40.9251 45.0327 40.9251 45.7401C40.9251 46.4474 40.8072 47.054 40.5714 47.5597C40.3356 48.0625 40.0117 48.4503 39.5998 48.723C39.1879 48.9929 38.7177 49.1278 38.1893 49.1278C37.7915 49.1278 37.4663 49.0611 37.2134 48.9276C36.9634 48.794 36.7674 48.6378 36.6254 48.4588C36.4833 48.2798 36.3739 48.1207 36.2972 47.9815H36.2205V51.4545H34.9464ZM36.195 45.7273C36.195 46.1875 36.2617 46.5909 36.3952 46.9375C36.5288 47.2841 36.7219 47.5554 36.9748 47.7514C37.2276 47.9446 37.5373 48.0412 37.9038 48.0412C38.2844 48.0412 38.6026 47.9403 38.8583 47.7386C39.114 47.5341 39.3072 47.2571 39.4379 46.9077C39.5714 46.5582 39.6381 46.1648 39.6381 45.7273C39.6381 45.2955 39.5728 44.9077 39.4421 44.5639C39.3143 44.2202 39.1211 43.9489 38.8626 43.75C38.6069 43.5511 38.2873 43.4517 37.9038 43.4517C37.5344 43.4517 37.2219 43.5469 36.9663 43.7372C36.7134 43.9276 36.5217 44.1932 36.391 44.5341C36.2603 44.875 36.195 45.2727 36.195 45.7273ZM43.6268 40.2727V49H42.3526V40.2727H43.6268ZM48.098 49.1321C47.4844 49.1321 46.9489 48.9915 46.4915 48.7102C46.0341 48.429 45.679 48.0355 45.4261 47.5298C45.1733 47.0241 45.0469 46.4332 45.0469 45.7571C45.0469 45.0781 45.1733 44.4844 45.4261 43.9759C45.679 43.4673 46.0341 43.0724 46.4915 42.7912C46.9489 42.5099 47.4844 42.3693 48.098 42.3693C48.7116 42.3693 49.2472 42.5099 49.7045 42.7912C50.1619 43.0724 50.517 43.4673 50.7699 43.9759C51.0227 44.4844 51.1491 45.0781 51.1491 45.7571C51.1491 46.4332 51.0227 47.0241 50.7699 47.5298C50.517 48.0355 50.1619 48.429 49.7045 48.7102C49.2472 48.9915 48.7116 49.1321 48.098 49.1321ZM48.1023 48.0625C48.5 48.0625 48.8295 47.9574 49.0909 47.7472C49.3523 47.5369 49.5455 47.2571 49.6705 46.9077C49.7983 46.5582 49.8622 46.1733 49.8622 45.7528C49.8622 45.3352 49.7983 44.9517 49.6705 44.6023C49.5455 44.25 49.3523 43.9673 49.0909 43.7543C48.8295 43.5412 48.5 43.4347 48.1023 43.4347C47.7017 43.4347 47.3693 43.5412 47.1051 43.7543C46.8438 43.9673 46.6491 44.25 46.5213 44.6023C46.3963 44.9517 46.3338 45.3352 46.3338 45.7528C46.3338 46.1733 46.3963 46.5582 46.5213 46.9077C46.6491 47.2571 46.8438 47.5369 47.1051 47.7472C47.3693 47.9574 47.7017 48.0625 48.1023 48.0625ZM52.5714 49V42.4545H53.8029V43.4943H53.8711C53.9904 43.142 54.2006 42.8651 54.5018 42.6634C54.8058 42.4588 55.1495 42.3565 55.533 42.3565C55.6126 42.3565 55.7063 42.3594 55.8143 42.3651C55.9251 42.3707 56.0117 42.3778 56.0742 42.3864V43.6051C56.0231 43.5909 55.9322 43.5753 55.8015 43.5582C55.6708 43.5384 55.5401 43.5284 55.4094 43.5284C55.1083 43.5284 54.8398 43.5923 54.604 43.7202C54.3711 43.8452 54.1864 44.0199 54.0501 44.2443C53.9137 44.4659 53.8455 44.7187 53.8455 45.0028V49H52.5714ZM59.7635 49.1321C59.1186 49.1321 58.5632 48.9943 58.0973 48.7188C57.6342 48.4403 57.2763 48.0497 57.0234 47.5469C56.7734 47.0412 56.6484 46.4489 56.6484 45.7699C56.6484 45.0994 56.7734 44.5085 57.0234 43.9972C57.2763 43.4858 57.6286 43.0866 58.0803 42.7997C58.5348 42.5128 59.0661 42.3693 59.674 42.3693C60.0433 42.3693 60.4013 42.4304 60.7479 42.5526C61.0945 42.6747 61.4055 42.8665 61.6811 43.1278C61.9567 43.3892 62.174 43.7287 62.3331 44.1463C62.4922 44.5611 62.5717 45.0653 62.5717 45.6591V46.1108H57.3686V45.1562H61.3232C61.3232 44.821 61.255 44.5241 61.1186 44.2656C60.9822 44.0043 60.7905 43.7983 60.5433 43.6477C60.299 43.4972 60.0121 43.4219 59.6825 43.4219C59.3246 43.4219 59.0121 43.5099 58.745 43.6861C58.4808 43.8594 58.2763 44.0866 58.1314 44.3679C57.9893 44.6463 57.9183 44.9489 57.9183 45.2756V46.0213C57.9183 46.4588 57.995 46.831 58.1484 47.1378C58.3047 47.4446 58.522 47.679 58.8004 47.8409C59.0788 48 59.4041 48.0795 59.7763 48.0795C60.0178 48.0795 60.2379 48.0455 60.4368 47.9773C60.6357 47.9062 60.8075 47.8011 60.9524 47.6619C61.0973 47.5227 61.2081 47.3509 61.2848 47.1463L62.4908 47.3636C62.3942 47.7187 62.2209 48.0298 61.9709 48.2969C61.7237 48.5611 61.4126 48.767 61.0376 48.9148C60.6655 49.0597 60.2408 49.1321 59.7635 49.1321Z" fill="#528294"/>
<defs>
<clipPath id="clip0_53_1904">
<rect width="24" height="24" fill="white" transform="translate(29.75 4)"/>
</clipPath>
</defs>
</svg>
