<svg width="84" height="54" viewBox="0 0 84 54" fill="none" xmlns="http://www.w3.org/2000/svg">
<g clip-path="url(#clip0_53_2072)">
<path fill-rule="evenodd" clip-rule="evenodd" d="M49.25 7H47V6.25C47 5.83579 46.6642 5.5 46.25 5.5C45.8358 5.5 45.5 5.83579 45.5 6.25V7H38V6.25C38 5.83579 37.6642 5.5 37.25 5.5C36.8358 5.5 36.5 5.83579 36.5 6.25V7H34.25C33.4216 7 32.75 7.67157 32.75 8.5V23.5C32.75 24.3284 33.4216 25 34.25 25H49.25C50.0784 25 50.75 24.3284 50.75 23.5V8.5C50.75 7.67157 50.0784 7 49.25 7ZM40.25 21.25C40.25 21.6642 39.9142 22 39.5 22C39.0858 22 38.75 21.6642 38.75 21.25V16.4631L38.3356 16.6713C37.9649 16.8566 37.5141 16.7063 37.3288 16.3356C37.1434 15.9649 37.2937 15.5141 37.6644 15.3287L39.1644 14.5787C39.397 14.4624 39.6732 14.4748 39.8944 14.6116C40.1156 14.7483 40.2502 14.9899 40.25 15.25V21.25ZM45.5 20.5C45.9142 20.5 46.25 20.8358 46.25 21.25C46.25 21.6642 45.9142 22 45.5 22H42.5C42.2159 22 41.9562 21.8395 41.8292 21.5854C41.7021 21.3313 41.7296 21.0273 41.9 20.8L44.5981 17.2028C44.7653 16.9802 44.7955 16.6833 44.6764 16.4316C44.5573 16.1799 44.3086 16.0149 44.0304 16.003C43.7523 15.9912 43.4904 16.1344 43.3503 16.375C43.2202 16.6146 42.9703 16.7647 42.6976 16.7671C42.425 16.7694 42.1726 16.6236 42.0384 16.3863C41.9042 16.1489 41.9093 15.8574 42.0519 15.625C42.5612 14.7435 43.599 14.3139 44.5824 14.5774C45.5658 14.8409 46.2497 15.7319 46.25 16.75C46.2516 17.2391 46.0921 17.7152 45.7962 18.1047L44 20.5H45.5ZM34.25 11.5V8.5H36.5V9.25C36.5 9.66421 36.8358 10 37.25 10C37.6642 10 38 9.66421 38 9.25V8.5H45.5V9.25C45.5 9.66421 45.8358 10 46.25 10C46.6642 10 47 9.66421 47 9.25V8.5H49.25V11.5H34.25Z" fill="#121712"/>
</g>
<path d="M23.2088 49V40.2727H28.6804V41.4062H24.5256V44.0653H28.3949V45.1946H24.5256V47.8665H28.7315V49H23.2088ZM35.9364 42.4545L33.5629 49H32.1992L29.8214 42.4545H31.1893L32.8469 47.4915H32.9151L34.5685 42.4545H35.9364ZM39.7322 49.1321C39.0874 49.1321 38.532 48.9943 38.0661 48.7188C37.603 48.4403 37.245 48.0497 36.9922 47.5469C36.7422 47.0412 36.6172 46.4489 36.6172 45.7699C36.6172 45.0994 36.7422 44.5085 36.9922 43.9972C37.245 43.4858 37.5973 43.0866 38.049 42.7997C38.5036 42.5128 39.0348 42.3693 39.6428 42.3693C40.0121 42.3693 40.37 42.4304 40.7166 42.5526C41.0632 42.6747 41.3743 42.8665 41.6499 43.1278C41.9254 43.3892 42.1428 43.7287 42.3018 44.1463C42.4609 44.5611 42.5405 45.0653 42.5405 45.6591V46.1108H37.3374V45.1562H41.2919C41.2919 44.821 41.2237 44.5241 41.0874 44.2656C40.951 44.0043 40.7592 43.7983 40.5121 43.6477C40.2678 43.4972 39.9808 43.4219 39.6513 43.4219C39.2933 43.4219 38.9808 43.5099 38.7138 43.6861C38.4496 43.8594 38.245 44.0866 38.1001 44.3679C37.9581 44.6463 37.8871 44.9489 37.8871 45.2756V46.0213C37.8871 46.4588 37.9638 46.831 38.1172 47.1378C38.2734 47.4446 38.4908 47.679 38.7692 47.8409C39.0476 48 39.3729 48.0795 39.745 48.0795C39.9865 48.0795 40.2067 48.0455 40.4055 47.9773C40.6044 47.9062 40.7763 47.8011 40.9212 47.6619C41.0661 47.5227 41.1768 47.3509 41.2536 47.1463L42.4595 47.3636C42.3629 47.7187 42.1896 48.0298 41.9396 48.2969C41.6925 48.5611 41.3814 48.767 41.0064 48.9148C40.6342 49.0597 40.2095 49.1321 39.7322 49.1321ZM45.2283 45.1136V49H43.9542V42.4545H45.1772V43.5199H45.2582C45.4087 43.1733 45.6445 42.8949 45.9656 42.6847C46.2894 42.4744 46.6971 42.3693 47.1886 42.3693C47.6346 42.3693 48.0252 42.4631 48.3604 42.6506C48.6957 42.8352 48.9556 43.1108 49.1403 43.4773C49.3249 43.8437 49.4173 44.2969 49.4173 44.8366V49H48.1431V44.9901C48.1431 44.5156 48.0195 44.1449 47.7724 43.8778C47.5252 43.608 47.1857 43.473 46.7539 43.473C46.4585 43.473 46.1957 43.5369 45.9656 43.6648C45.7383 43.7926 45.5579 43.9801 45.4244 44.2273C45.2937 44.4716 45.2283 44.767 45.2283 45.1136ZM54.1815 42.4545V43.4773H50.6062V42.4545H54.1815ZM51.565 40.8864H52.8391V47.0781C52.8391 47.3253 52.8761 47.5114 52.9499 47.6364C53.0238 47.7585 53.119 47.8423 53.2354 47.8878C53.3548 47.9304 53.484 47.9517 53.6232 47.9517C53.7255 47.9517 53.815 47.9446 53.8917 47.9304C53.9684 47.9162 54.0281 47.9048 54.0707 47.8963L54.3008 48.9489C54.2269 48.9773 54.1218 49.0057 53.9854 49.0341C53.8491 49.0653 53.6786 49.0824 53.4741 49.0852C53.1388 49.0909 52.8263 49.0312 52.5366 48.9062C52.2468 48.7812 52.0124 48.5881 51.8335 48.3267C51.6545 48.0653 51.565 47.7372 51.565 47.3423V40.8864ZM60.3903 44.0526L59.2354 44.2571C59.1871 44.1094 59.1104 43.9687 59.0053 43.8352C58.9031 43.7017 58.7638 43.5923 58.5877 43.5071C58.4116 43.4219 58.1914 43.3793 57.9272 43.3793C57.5664 43.3793 57.2653 43.4602 57.0238 43.6222C56.7823 43.7812 56.6616 43.9872 56.6616 44.2401C56.6616 44.4588 56.7425 44.6349 56.9045 44.7685C57.0664 44.902 57.3278 45.0114 57.6886 45.0966L58.7283 45.3352C59.3306 45.4744 59.7795 45.6889 60.0749 45.9787C60.3704 46.2685 60.5181 46.6449 60.5181 47.108C60.5181 47.5 60.4045 47.8494 60.1772 48.1562C59.9528 48.4602 59.6388 48.6989 59.2354 48.8722C58.8349 49.0455 58.3704 49.1321 57.842 49.1321C57.109 49.1321 56.511 48.9759 56.0479 48.6634C55.5849 48.348 55.3008 47.9006 55.1957 47.321L56.4272 47.1335C56.5039 47.4545 56.6616 47.6974 56.9002 47.8622C57.1388 48.0241 57.4499 48.1051 57.8335 48.1051C58.2511 48.1051 58.5849 48.0185 58.8349 47.8452C59.0849 47.669 59.2099 47.4545 59.2099 47.2017C59.2099 46.9972 59.1332 46.8253 58.9798 46.6861C58.8292 46.5469 58.5977 46.4418 58.2852 46.3707L57.1772 46.1278C56.5664 45.9886 56.1147 45.767 55.8221 45.4631C55.5323 45.1591 55.3874 44.7741 55.3874 44.3082C55.3874 43.9219 55.4954 43.5838 55.7113 43.294C55.9272 43.0043 56.2255 42.7784 56.6062 42.6165C56.9869 42.4517 57.4229 42.3693 57.9144 42.3693C58.6218 42.3693 59.1786 42.5227 59.5849 42.8295C59.9911 43.1335 60.2596 43.5412 60.3903 44.0526Z" fill="#121712"/>
<defs>
<clipPath id="clip0_53_2072">
<rect width="24" height="24" fill="white" transform="translate(29.75 4)"/>
</clipPath>
</defs>
</svg>
