<svg width="66" height="54" viewBox="0 0 66 54" fill="none" xmlns="http://www.w3.org/2000/svg">
<g clip-path="url(#clip0_1_235)">
<path fill-rule="evenodd" clip-rule="evenodd" d="M41.1153 13.7284L33.6153 6.65219C33.6116 6.64899 33.6082 6.64554 33.605 6.64188C33.0328 6.1215 32.1587 6.1215 31.5865 6.64188L31.5762 6.65219L24.0847 13.7284C23.7757 14.0125 23.5999 14.4131 23.6 14.8328V23.5C23.6 24.3284 24.2715 25 25.1 25H29.6C30.4284 25 31.1 24.3284 31.1 23.5V19H34.1V23.5C34.1 24.3284 34.7715 25 35.6 25H40.1C40.9284 25 41.6 24.3284 41.6 23.5V14.8328C41.6 14.4131 41.4242 14.0125 41.1153 13.7284ZM40.1 23.5H35.6V19C35.6 18.1716 34.9284 17.5 34.1 17.5H31.1C30.2715 17.5 29.6 18.1716 29.6 19V23.5H25.1V14.8328L25.1103 14.8234L32.6 7.75L40.0906 14.8216L40.1009 14.8309L40.1 23.5Z" fill="#5C8C5C"/>
</g>
<path d="M4.88407 49H2.05878V40.2727H4.97356C5.82867 40.2727 6.56304 40.4474 7.17668 40.7969C7.79032 41.1435 8.26049 41.642 8.58719 42.2926C8.91674 42.9403 9.08151 43.7173 9.08151 44.6236C9.08151 45.5327 8.91532 46.3139 8.58293 46.9673C8.25338 47.6207 7.77611 48.1236 7.15111 48.4759C6.52611 48.8253 5.77043 49 4.88407 49ZM3.37554 47.8494H4.81162C5.4764 47.8494 6.02895 47.7244 6.46929 47.4744C6.90963 47.2216 7.23918 46.8565 7.45793 46.3793C7.67668 45.8991 7.78606 45.3139 7.78606 44.6236C7.78606 43.9389 7.67668 43.358 7.45793 42.8807C7.24202 42.4034 6.91958 42.0412 6.4906 41.794C6.06162 41.5469 5.52895 41.4233 4.89259 41.4233H3.37554V47.8494ZM12.5215 49.1449C12.1067 49.1449 11.7317 49.0682 11.3965 48.9148C11.0613 48.7585 10.7956 48.5327 10.5996 48.2372C10.4064 47.9418 10.3098 47.5795 10.3098 47.1506C10.3098 46.7812 10.3809 46.4773 10.5229 46.2386C10.665 46 10.8567 45.8111 11.0982 45.6719C11.3397 45.5327 11.6096 45.4276 11.9079 45.3565C12.2062 45.2855 12.5101 45.2315 12.8198 45.1946C13.2118 45.1491 13.53 45.1122 13.7743 45.0838C14.0187 45.0526 14.1962 45.0028 14.307 44.9347C14.4178 44.8665 14.4732 44.7557 14.4732 44.6023V44.5724C14.4732 44.2003 14.3681 43.9119 14.1579 43.7074C13.9505 43.5028 13.6408 43.4006 13.2289 43.4006C12.7999 43.4006 12.4618 43.4957 12.2147 43.6861C11.9704 43.8736 11.8013 44.0824 11.7076 44.3125L10.5101 44.0398C10.6522 43.642 10.8596 43.321 11.1323 43.0767C11.4079 42.8295 11.7246 42.6506 12.0826 42.5398C12.4405 42.4261 12.817 42.3693 13.2118 42.3693C13.4732 42.3693 13.7502 42.4006 14.0428 42.4631C14.3383 42.5227 14.6138 42.6335 14.8695 42.7955C15.128 42.9574 15.3397 43.1889 15.5045 43.4901C15.6692 43.7884 15.7516 44.1761 15.7516 44.6534V49H14.5073V48.1051H14.4562C14.3738 48.2699 14.2502 48.4318 14.0854 48.5909C13.9206 48.75 13.709 48.8821 13.4505 48.9872C13.1919 49.0923 12.8823 49.1449 12.5215 49.1449ZM12.7985 48.1222C13.1508 48.1222 13.4519 48.0526 13.7019 47.9134C13.9547 47.7741 14.1465 47.5923 14.2772 47.3679C14.4107 47.1406 14.4775 46.8977 14.4775 46.6392V45.7955C14.432 45.8409 14.3439 45.8835 14.2133 45.9233C14.0854 45.9602 13.9391 45.9929 13.7743 46.0213C13.6096 46.0469 13.4491 46.071 13.2928 46.0938C13.1366 46.1136 13.0059 46.1307 12.9008 46.1449C12.6536 46.1761 12.4277 46.2287 12.2232 46.3026C12.0215 46.3764 11.8596 46.483 11.7374 46.6222C11.6181 46.7585 11.5584 46.9403 11.5584 47.1676C11.5584 47.483 11.6749 47.7216 11.9079 47.8835C12.1408 48.0426 12.4377 48.1222 12.7985 48.1222ZM22.3535 44.0526L21.1987 44.2571C21.1504 44.1094 21.0737 43.9687 20.9686 43.8352C20.8663 43.7017 20.7271 43.5923 20.551 43.5071C20.3748 43.4219 20.1547 43.3793 19.8905 43.3793C19.5297 43.3793 19.2285 43.4602 18.987 43.6222C18.7456 43.7812 18.6248 43.9872 18.6248 44.2401C18.6248 44.4588 18.7058 44.6349 18.8677 44.7685C19.0297 44.902 19.291 45.0114 19.6518 45.0966L20.6916 45.3352C21.2939 45.4744 21.7427 45.6889 22.0382 45.9787C22.3336 46.2685 22.4814 46.6449 22.4814 47.108C22.4814 47.5 22.3677 47.8494 22.1405 48.1562C21.916 48.4602 21.6021 48.6989 21.1987 48.8722C20.7981 49.0455 20.3336 49.1321 19.8052 49.1321C19.0723 49.1321 18.4743 48.9759 18.0112 48.6634C17.5481 48.348 17.264 47.9006 17.1589 47.321L18.3905 47.1335C18.4672 47.4545 18.6248 47.6974 18.8635 47.8622C19.1021 48.0241 19.4132 48.1051 19.7967 48.1051C20.2143 48.1051 20.5481 48.0185 20.7981 47.8452C21.0481 47.669 21.1731 47.4545 21.1731 47.2017C21.1731 46.9972 21.0964 46.8253 20.943 46.6861C20.7924 46.5469 20.5609 46.4418 20.2484 46.3707L19.1405 46.1278C18.5297 45.9886 18.078 45.767 17.7853 45.4631C17.4956 45.1591 17.3507 44.7741 17.3507 44.3082C17.3507 43.9219 17.4586 43.5838 17.6745 43.294C17.8905 43.0043 18.1888 42.7784 18.5694 42.6165C18.9501 42.4517 19.3862 42.3693 19.8777 42.3693C20.5851 42.3693 21.1419 42.5227 21.5481 42.8295C21.9544 43.1335 22.2228 43.5412 22.3535 44.0526ZM25.1564 45.1136V49H23.8823V40.2727H25.1394V43.5199H25.2204C25.3738 43.1676 25.6081 42.8878 25.9235 42.6804C26.2388 42.473 26.6508 42.3693 27.1593 42.3693C27.6081 42.3693 28.0002 42.4616 28.3354 42.6463C28.6735 42.831 28.9348 43.1065 29.1195 43.473C29.307 43.8366 29.4008 44.2912 29.4008 44.8366V49H28.1266V44.9901C28.1266 44.5099 28.003 44.1378 27.7559 43.8736C27.5087 43.6065 27.165 43.473 26.7246 43.473C26.4235 43.473 26.1536 43.5369 25.915 43.6648C25.6792 43.7926 25.4931 43.9801 25.3567 44.2273C25.2232 44.4716 25.1564 44.767 25.1564 45.1136ZM31.2033 49V40.2727H32.4775V43.5156H32.5542C32.628 43.3793 32.7346 43.2216 32.8738 43.0426C33.013 42.8636 33.2062 42.7074 33.4533 42.5739C33.7005 42.4375 34.0272 42.3693 34.4334 42.3693C34.9618 42.3693 35.4334 42.5028 35.8482 42.7699C36.263 43.0369 36.5883 43.4219 36.8241 43.9247C37.0627 44.4276 37.182 45.0327 37.182 45.7401C37.182 46.4474 37.0641 47.054 36.8283 47.5597C36.5925 48.0625 36.2687 48.4503 35.8567 48.723C35.4448 48.9929 34.9746 49.1278 34.4462 49.1278C34.0485 49.1278 33.7232 49.0611 33.4704 48.9276C33.2204 48.794 33.0243 48.6378 32.8823 48.4588C32.7402 48.2798 32.6309 48.1207 32.5542 47.9815H32.4476V49H31.2033ZM32.4519 45.7273C32.4519 46.1875 32.5187 46.5909 32.6522 46.9375C32.7857 47.2841 32.9789 47.5554 33.2317 47.7514C33.4846 47.9446 33.7942 48.0412 34.1607 48.0412C34.5414 48.0412 34.8596 47.9403 35.1152 47.7386C35.3709 47.5341 35.5641 47.2571 35.6948 46.9077C35.8283 46.5582 35.8951 46.1648 35.8951 45.7273C35.8951 45.2955 35.8297 44.9077 35.6991 44.5639C35.5712 44.2202 35.378 43.9489 35.1195 43.75C34.8638 43.5511 34.5442 43.4517 34.1607 43.4517C33.7914 43.4517 33.4789 43.5469 33.2232 43.7372C32.9704 43.9276 32.7786 44.1932 32.6479 44.5341C32.5172 44.875 32.4519 45.2727 32.4519 45.7273ZM41.3699 49.1321C40.7562 49.1321 40.2207 48.9915 39.7633 48.7102C39.3059 48.429 38.9508 48.0355 38.698 47.5298C38.4451 47.0241 38.3187 46.4332 38.3187 45.7571C38.3187 45.0781 38.4451 44.4844 38.698 43.9759C38.9508 43.4673 39.3059 43.0724 39.7633 42.7912C40.2207 42.5099 40.7562 42.3693 41.3699 42.3693C41.9835 42.3693 42.519 42.5099 42.9764 42.7912C43.4338 43.0724 43.7889 43.4673 44.0417 43.9759C44.2946 44.4844 44.421 45.0781 44.421 45.7571C44.421 46.4332 44.2946 47.0241 44.0417 47.5298C43.7889 48.0355 43.4338 48.429 42.9764 48.7102C42.519 48.9915 41.9835 49.1321 41.3699 49.1321ZM41.3741 48.0625C41.7719 48.0625 42.1014 47.9574 42.3628 47.7472C42.6241 47.5369 42.8173 47.2571 42.9423 46.9077C43.0701 46.5582 43.1341 46.1733 43.1341 45.7528C43.1341 45.3352 43.0701 44.9517 42.9423 44.6023C42.8173 44.25 42.6241 43.9673 42.3628 43.7543C42.1014 43.5412 41.7719 43.4347 41.3741 43.4347C40.9736 43.4347 40.6412 43.5412 40.377 43.7543C40.1156 43.9673 39.921 44.25 39.7932 44.6023C39.6682 44.9517 39.6057 45.3352 39.6057 45.7528C39.6057 46.1733 39.6682 46.5582 39.7932 46.9077C39.921 47.2571 40.1156 47.5369 40.377 47.7472C40.6412 47.9574 40.9736 48.0625 41.3741 48.0625ZM47.7481 49.1449C47.3333 49.1449 46.9583 49.0682 46.6231 48.9148C46.2878 48.7585 46.0222 48.5327 45.8262 48.2372C45.633 47.9418 45.5364 47.5795 45.5364 47.1506C45.5364 46.7812 45.6074 46.4773 45.7495 46.2386C45.8915 46 46.0833 45.8111 46.3248 45.6719C46.5662 45.5327 46.8361 45.4276 47.1344 45.3565C47.4327 45.2855 47.7367 45.2315 48.0464 45.1946C48.4384 45.1491 48.7566 45.1122 49.0009 45.0838C49.2452 45.0526 49.4228 45.0028 49.5336 44.9347C49.6444 44.8665 49.6998 44.7557 49.6998 44.6023V44.5724C49.6998 44.2003 49.5946 43.9119 49.3844 43.7074C49.177 43.5028 48.8674 43.4006 48.4554 43.4006C48.0265 43.4006 47.6884 43.4957 47.4412 43.6861C47.1969 43.8736 47.0279 44.0824 46.9341 44.3125L45.7367 44.0398C45.8787 43.642 46.0861 43.321 46.3589 43.0767C46.6344 42.8295 46.9512 42.6506 47.3091 42.5398C47.6671 42.4261 48.0435 42.3693 48.4384 42.3693C48.6998 42.3693 48.9768 42.4006 49.2694 42.4631C49.5648 42.5227 49.8404 42.6335 50.0961 42.7955C50.3546 42.9574 50.5662 43.1889 50.731 43.4901C50.8958 43.7884 50.9782 44.1761 50.9782 44.6534V49H49.7339V48.1051H49.6827C49.6003 48.2699 49.4768 48.4318 49.312 48.5909C49.1472 48.75 48.9356 48.8821 48.677 48.9872C48.4185 49.0923 48.1089 49.1449 47.7481 49.1449ZM48.025 48.1222C48.3773 48.1222 48.6785 48.0526 48.9285 47.9134C49.1813 47.7741 49.3731 47.5923 49.5037 47.3679C49.6373 47.1406 49.704 46.8977 49.704 46.6392V45.7955C49.6586 45.8409 49.5705 45.8835 49.4398 45.9233C49.312 45.9602 49.1657 45.9929 49.0009 46.0213C48.8361 46.0469 48.6756 46.071 48.5194 46.0938C48.3631 46.1136 48.2324 46.1307 48.1273 46.1449C47.8802 46.1761 47.6543 46.2287 47.4498 46.3026C47.2481 46.3764 47.0861 46.483 46.964 46.6222C46.8446 46.7585 46.785 46.9403 46.785 47.1676C46.785 47.483 46.9015 47.7216 47.1344 47.8835C47.3674 48.0426 47.6643 48.1222 48.025 48.1222ZM52.6753 49V42.4545H53.9068V43.4943H53.975C54.0943 43.142 54.3045 42.8651 54.6057 42.6634C54.9096 42.4588 55.2534 42.3565 55.6369 42.3565C55.7165 42.3565 55.8102 42.3594 55.9182 42.3651C56.029 42.3707 56.1156 42.3778 56.1781 42.3864V43.6051C56.127 43.5909 56.0361 43.5753 55.9054 43.5582C55.7747 43.5384 55.644 43.5284 55.5133 43.5284C55.2122 43.5284 54.9437 43.5923 54.7079 43.7202C54.475 43.8452 54.2903 44.0199 54.154 44.2443C54.0176 44.4659 53.9494 44.7187 53.9494 45.0028V49H52.6753ZM59.4966 49.1278C58.9682 49.1278 58.4966 48.9929 58.0819 48.723C57.6699 48.4503 57.3461 48.0625 57.1103 47.5597C56.8773 47.054 56.7608 46.4474 56.7608 45.7401C56.7608 45.0327 56.8787 44.4276 57.1145 43.9247C57.3532 43.4219 57.6799 43.0369 58.0946 42.7699C58.5094 42.5028 58.9796 42.3693 59.5052 42.3693C59.9114 42.3693 60.2381 42.4375 60.4853 42.5739C60.7353 42.7074 60.9285 42.8636 61.0648 43.0426C61.204 43.2216 61.312 43.3793 61.3887 43.5156H61.4654V40.2727H62.7395V49H61.4952V47.9815H61.3887C61.312 48.1207 61.2012 48.2798 61.0563 48.4588C60.9143 48.6378 60.7182 48.794 60.4682 48.9276C60.2182 49.0611 59.8944 49.1278 59.4966 49.1278ZM59.7779 48.0412C60.1444 48.0412 60.454 47.9446 60.7069 47.7514C60.9625 47.5554 61.1557 47.2841 61.2864 46.9375C61.4199 46.5909 61.4867 46.1875 61.4867 45.7273C61.4867 45.2727 61.4214 44.875 61.2907 44.5341C61.16 44.1932 60.9682 43.9276 60.7154 43.7372C60.4625 43.5469 60.15 43.4517 59.7779 43.4517C59.3944 43.4517 59.0748 43.5511 58.8191 43.75C58.5634 43.9489 58.3702 44.2202 58.2395 44.5639C58.1117 44.9077 58.0478 45.2955 58.0478 45.7273C58.0478 46.1648 58.1131 46.5582 58.2438 46.9077C58.3745 47.2571 58.5677 47.5341 58.8233 47.7386C59.0819 47.9403 59.4 48.0412 59.7779 48.0412Z" fill="#5C8C5C"/>
<defs>
<clipPath id="clip0_1_235">
<rect width="24" height="24" fill="white" transform="translate(20.6 4)"/>
</clipPath>
</defs>
</svg>
