<svg width="66" height="54" viewBox="0 0 66 54" fill="none" xmlns="http://www.w3.org/2000/svg">
<g clip-path="url(#clip0_1_249)">
<path fill-rule="evenodd" clip-rule="evenodd" d="M31.5922 18.805C33.656 17.431 34.5769 14.8677 33.8591 12.4944C33.1414 10.1211 30.9544 8.49772 28.475 8.49772C25.9956 8.49772 23.8085 10.1211 23.0908 12.4944C22.3731 14.8677 23.2939 17.431 25.3578 18.805C23.5395 19.4752 21.9866 20.7153 20.9309 22.3403C20.7799 22.5647 20.7615 22.8531 20.8826 23.095C21.0038 23.3368 21.2458 23.4947 21.516 23.5081C21.7862 23.5215 22.0426 23.3884 22.1872 23.1597C23.5707 21.0317 25.9367 19.7479 28.475 19.7479C31.0132 19.7479 33.3792 21.0317 34.7628 23.1597C34.9917 23.4999 35.4513 23.5932 35.7948 23.3692C36.1382 23.1452 36.2381 22.6869 36.019 22.3403C34.9633 20.7153 33.4105 19.4752 31.5922 18.805ZM24.35 14.125C24.35 11.8468 26.1968 10 28.475 10C30.7531 10 32.6 11.8468 32.6 14.125C32.6 16.4032 30.7531 18.25 28.475 18.25C26.1979 18.2474 24.3526 16.4021 24.35 14.125ZM44.0506 23.3781C43.7037 23.6043 43.2391 23.5066 43.0128 23.1597C41.6308 21.0303 39.2635 19.7466 36.725 19.75C36.3108 19.75 35.975 19.4142 35.975 19C35.975 18.5858 36.3108 18.25 36.725 18.25C38.3863 18.2484 39.8845 17.2504 40.5261 15.718C41.1676 14.1855 40.8273 12.4178 39.6626 11.2331C38.4979 10.0484 36.7362 9.67805 35.1931 10.2934C34.9426 10.4017 34.6531 10.3654 34.4371 10.1986C34.2212 10.0319 34.1128 9.76096 34.1542 9.49125C34.1956 9.22154 34.3802 8.99558 34.6362 8.90125C37.3109 7.83457 40.3592 8.96001 41.699 11.5088C43.0388 14.0576 42.2374 17.2067 39.8422 18.805C41.6605 19.4752 43.2133 20.7153 44.269 22.3403C44.4953 22.6872 44.3975 23.1518 44.0506 23.3781Z" fill="#5C8C5C"/>
</g>
<path d="M4.296 49H2.89827L6.0389 40.2727H7.5602L10.7008 49H9.3031L6.83577 41.858H6.76759L4.296 49ZM4.53037 45.5824H9.06446V46.6903H4.53037V45.5824ZM14.5041 42.4545V43.4773H10.9288V42.4545H14.5041ZM11.8876 40.8864H13.1618V47.0781C13.1618 47.3253 13.1987 47.5114 13.2726 47.6364C13.3464 47.7585 13.4416 47.8423 13.5581 47.8878C13.6774 47.9304 13.8067 47.9517 13.9459 47.9517C14.0481 47.9517 14.1376 47.9446 14.2143 47.9304C14.291 47.9162 14.3507 47.9048 14.3933 47.8963L14.6234 48.9489C14.5495 48.9773 14.4444 49.0057 14.3081 49.0341C14.1717 49.0653 14.0013 49.0824 13.7967 49.0852C13.4615 49.0909 13.149 49.0312 12.8592 48.9062C12.5694 48.7812 12.3351 48.5881 12.1561 48.3267C11.9771 48.0653 11.8876 47.7372 11.8876 47.3423V40.8864ZM18.9689 42.4545V43.4773H15.3937V42.4545H18.9689ZM16.3525 40.8864H17.6266V47.0781C17.6266 47.3253 17.6635 47.5114 17.7374 47.6364C17.8113 47.7585 17.9064 47.8423 18.0229 47.8878C18.1422 47.9304 18.2715 47.9517 18.4107 47.9517C18.513 47.9517 18.6025 47.9446 18.6792 47.9304C18.7559 47.9162 18.8155 47.9048 18.8581 47.8963L19.0883 48.9489C19.0144 48.9773 18.9093 49.0057 18.7729 49.0341C18.6366 49.0653 18.4661 49.0824 18.2616 49.0852C17.9263 49.0909 17.6138 49.0312 17.3241 48.9062C17.0343 48.7812 16.7999 48.5881 16.6209 48.3267C16.442 48.0653 16.3525 47.7372 16.3525 47.3423V40.8864ZM23.1291 49.1321C22.4842 49.1321 21.9288 48.9943 21.4629 48.7188C20.9998 48.4403 20.6419 48.0497 20.389 47.5469C20.139 47.0412 20.014 46.4489 20.014 45.7699C20.014 45.0994 20.139 44.5085 20.389 43.9972C20.6419 43.4858 20.9942 43.0866 21.4459 42.7997C21.9004 42.5128 22.4317 42.3693 23.0396 42.3693C23.4089 42.3693 23.7669 42.4304 24.1135 42.5526C24.4601 42.6747 24.7711 42.8665 25.0467 43.1278C25.3223 43.3892 25.5396 43.7287 25.6987 44.1463C25.8578 44.5611 25.9373 45.0653 25.9373 45.6591V46.1108H20.7342V45.1562H24.6888C24.6888 44.821 24.6206 44.5241 24.4842 44.2656C24.3478 44.0043 24.1561 43.7983 23.9089 43.6477C23.6646 43.4972 23.3777 43.4219 23.0481 43.4219C22.6902 43.4219 22.3777 43.5099 22.1106 43.6861C21.8464 43.8594 21.6419 44.0866 21.497 44.3679C21.3549 44.6463 21.2839 44.9489 21.2839 45.2756V46.0213C21.2839 46.4588 21.3606 46.831 21.514 47.1378C21.6703 47.4446 21.8876 47.679 22.166 47.8409C22.4444 48 22.7697 48.0795 23.1419 48.0795C23.3834 48.0795 23.6035 48.0455 23.8024 47.9773C24.0013 47.9062 24.1731 47.8011 24.318 47.6619C24.4629 47.5227 24.5737 47.3509 24.6504 47.1463L25.8564 47.3636C25.7598 47.7187 25.5865 48.0298 25.3365 48.2969C25.0893 48.5611 24.7782 48.767 24.4032 48.9148C24.0311 49.0597 23.6064 49.1321 23.1291 49.1321ZM28.6252 45.1136V49H27.351V42.4545H28.5741V43.5199H28.655C28.8056 43.1733 29.0414 42.8949 29.3624 42.6847C29.6863 42.4744 30.0939 42.3693 30.5854 42.3693C31.0314 42.3693 31.4221 42.4631 31.7573 42.6506C32.0925 42.8352 32.3525 43.1108 32.5371 43.4773C32.7218 43.8437 32.8141 44.2969 32.8141 44.8366V49H31.54V44.9901C31.54 44.5156 31.4164 44.1449 31.1692 43.8778C30.9221 43.608 30.5826 43.473 30.1508 43.473C29.8553 43.473 29.5925 43.5369 29.3624 43.6648C29.1351 43.7926 28.9547 43.9801 28.8212 44.2273C28.6905 44.4716 28.6252 44.767 28.6252 45.1136ZM36.9732 49.1278C36.4448 49.1278 35.9732 48.9929 35.5584 48.723C35.1465 48.4503 34.8226 48.0625 34.5868 47.5597C34.3539 47.054 34.2374 46.4474 34.2374 45.7401C34.2374 45.0327 34.3553 44.4276 34.5911 43.9247C34.8297 43.4219 35.1564 43.0369 35.5712 42.7699C35.986 42.5028 36.4562 42.3693 36.9817 42.3693C37.388 42.3693 37.7147 42.4375 37.9618 42.5739C38.2118 42.7074 38.405 42.8636 38.5414 43.0426C38.6806 43.2216 38.7885 43.3793 38.8652 43.5156H38.942V40.2727H40.2161V49H38.9718V47.9815H38.8652C38.7885 48.1207 38.6777 48.2798 38.5329 48.4588C38.3908 48.6378 38.1948 48.794 37.9448 48.9276C37.6948 49.0611 37.3709 49.1278 36.9732 49.1278ZM37.2545 48.0412C37.6209 48.0412 37.9306 47.9446 38.1834 47.7514C38.4391 47.5554 38.6323 47.2841 38.763 46.9375C38.8965 46.5909 38.9633 46.1875 38.9633 45.7273C38.9633 45.2727 38.8979 44.875 38.7672 44.5341C38.6366 44.1932 38.4448 43.9276 38.192 43.7372C37.9391 43.5469 37.6266 43.4517 37.2545 43.4517C36.8709 43.4517 36.5513 43.5511 36.2956 43.75C36.04 43.9489 35.8468 44.2202 35.7161 44.5639C35.5883 44.9077 35.5243 45.2955 35.5243 45.7273C35.5243 46.1648 35.5897 46.5582 35.7204 46.9077C35.851 47.2571 36.0442 47.5341 36.2999 47.7386C36.5584 47.9403 36.8766 48.0412 37.2545 48.0412ZM44.8557 49.1321C44.2108 49.1321 43.6554 48.9943 43.1895 48.7188C42.7264 48.4403 42.3684 48.0497 42.1156 47.5469C41.8656 47.0412 41.7406 46.4489 41.7406 45.7699C41.7406 45.0994 41.8656 44.5085 42.1156 43.9972C42.3684 43.4858 42.7207 43.0866 43.1724 42.7997C43.627 42.5128 44.1582 42.3693 44.7662 42.3693C45.1355 42.3693 45.4934 42.4304 45.84 42.5526C46.1866 42.6747 46.4977 42.8665 46.7733 43.1278C47.0488 43.3892 47.2662 43.7287 47.4253 44.1463C47.5844 44.5611 47.6639 45.0653 47.6639 45.6591V46.1108H42.4608V45.1562H46.4153C46.4153 44.821 46.3471 44.5241 46.2108 44.2656C46.0744 44.0043 45.8826 43.7983 45.6355 43.6477C45.3912 43.4972 45.1042 43.4219 44.7747 43.4219C44.4167 43.4219 44.1042 43.5099 43.8372 43.6861C43.573 43.8594 43.3684 44.0866 43.2236 44.3679C43.0815 44.6463 43.0105 44.9489 43.0105 45.2756V46.0213C43.0105 46.4588 43.0872 46.831 43.2406 47.1378C43.3969 47.4446 43.6142 47.679 43.8926 47.8409C44.171 48 44.4963 48.0795 44.8684 48.0795C45.1099 48.0795 45.3301 48.0455 45.529 47.9773C45.7278 47.9062 45.8997 47.8011 46.0446 47.6619C46.1895 47.5227 46.3003 47.3509 46.377 47.1463L47.5829 47.3636C47.4863 47.7187 47.313 48.0298 47.063 48.2969C46.8159 48.5611 46.5048 48.767 46.1298 48.9148C45.7576 49.0597 45.3329 49.1321 44.8557 49.1321ZM51.8986 49.1321C51.2537 49.1321 50.6983 48.9943 50.2324 48.7188C49.7694 48.4403 49.4114 48.0497 49.1586 47.5469C48.9086 47.0412 48.7836 46.4489 48.7836 45.7699C48.7836 45.0994 48.9086 44.5085 49.1586 43.9972C49.4114 43.4858 49.7637 43.0866 50.2154 42.7997C50.6699 42.5128 51.2012 42.3693 51.8091 42.3693C52.1785 42.3693 52.5364 42.4304 52.883 42.5526C53.2296 42.6747 53.5407 42.8665 53.8162 43.1278C54.0918 43.3892 54.3091 43.7287 54.4682 44.1463C54.6273 44.5611 54.7069 45.0653 54.7069 45.6591V46.1108H49.5037V45.1562H53.4583C53.4583 44.821 53.3901 44.5241 53.2537 44.2656C53.1174 44.0043 52.9256 43.7983 52.6785 43.6477C52.4341 43.4972 52.1472 43.4219 51.8177 43.4219C51.4597 43.4219 51.1472 43.5099 50.8802 43.6861C50.616 43.8594 50.4114 44.0866 50.2665 44.3679C50.1245 44.6463 50.0535 44.9489 50.0535 45.2756V46.0213C50.0535 46.4588 50.1302 46.831 50.2836 47.1378C50.4398 47.4446 50.6571 47.679 50.9356 47.8409C51.214 48 51.5393 48.0795 51.9114 48.0795C52.1529 48.0795 52.3731 48.0455 52.5719 47.9773C52.7708 47.9062 52.9427 47.8011 53.0875 47.6619C53.2324 47.5227 53.3432 47.3509 53.4199 47.1463L54.6259 47.3636C54.5293 47.7187 54.356 48.0298 54.106 48.2969C53.8589 48.5611 53.5478 48.767 53.1728 48.9148C52.8006 49.0597 52.3759 49.1321 51.8986 49.1321ZM61.0254 44.0526L59.8706 44.2571C59.8223 44.1094 59.7456 43.9687 59.6405 43.8352C59.5382 43.7017 59.399 43.5923 59.2228 43.5071C59.0467 43.4219 58.8265 43.3793 58.5623 43.3793C58.2015 43.3793 57.9004 43.4602 57.6589 43.6222C57.4174 43.7812 57.2967 43.9872 57.2967 44.2401C57.2967 44.4588 57.3777 44.6349 57.5396 44.7685C57.7015 44.902 57.9629 45.0114 58.3237 45.0966L59.3635 45.3352C59.9657 45.4744 60.4146 45.6889 60.7101 45.9787C61.0055 46.2685 61.1532 46.6449 61.1532 47.108C61.1532 47.5 61.0396 47.8494 60.8123 48.1562C60.5879 48.4602 60.274 48.6989 59.8706 48.8722C59.47 49.0455 59.0055 49.1321 58.4771 49.1321C57.7442 49.1321 57.1461 48.9759 56.6831 48.6634C56.22 48.348 55.9359 47.9006 55.8308 47.321L57.0623 47.1335C57.139 47.4545 57.2967 47.6974 57.5353 47.8622C57.774 48.0241 58.0851 48.1051 58.4686 48.1051C58.8862 48.1051 59.22 48.0185 59.47 47.8452C59.72 47.669 59.845 47.4545 59.845 47.2017C59.845 46.9972 59.7683 46.8253 59.6149 46.6861C59.4643 46.5469 59.2328 46.4418 58.9203 46.3707L57.8123 46.1278C57.2015 45.9886 56.7498 45.767 56.4572 45.4631C56.1674 45.1591 56.0226 44.7741 56.0226 44.3082C56.0226 43.9219 56.1305 43.5838 56.3464 43.294C56.5623 43.0043 56.8606 42.7784 57.2413 42.6165C57.622 42.4517 58.0581 42.3693 58.5495 42.3693C59.2569 42.3693 59.8138 42.5227 60.22 42.8295C60.6263 43.1335 60.8947 43.5412 61.0254 44.0526Z" fill="#5C8C5C"/>
<defs>
<clipPath id="clip0_1_249">
<rect width="24" height="24" fill="white" transform="translate(20.6 4)"/>
</clipPath>
</defs>
</svg>
