<svg width="66" height="54" viewBox="0 0 66 54" fill="none" xmlns="http://www.w3.org/2000/svg">
<g clip-path="url(#clip0_1_256)">
<path fill-rule="evenodd" clip-rule="evenodd" d="M40.85 7.75H33.35V6.25C33.35 5.83579 33.0142 5.5 32.6 5.5C32.1858 5.5 31.85 5.83579 31.85 6.25V7.75H24.35C23.5215 7.75 22.85 8.42157 22.85 9.25V20.5C22.85 21.3284 23.5215 22 24.35 22H28.04L26.014 24.5312C25.7552 24.8549 25.8076 25.3271 26.1312 25.5859C26.4548 25.8448 26.927 25.7924 27.1859 25.4688L29.96 22H35.24L38.014 25.4688C38.2729 25.7924 38.7451 25.8448 39.0687 25.5859C39.3923 25.3271 39.4448 24.8549 39.1859 24.5312L37.16 22H40.85C41.6784 22 42.35 21.3284 42.35 20.5V9.25C42.35 8.42157 41.6784 7.75 40.85 7.75ZM30.35 17.5C30.35 17.9142 30.0142 18.25 29.6 18.25C29.1858 18.25 28.85 17.9142 28.85 17.5V15.25C28.85 14.8358 29.1858 14.5 29.6 14.5C30.0142 14.5 30.35 14.8358 30.35 15.25V17.5ZM33.35 17.5C33.35 17.9142 33.0142 18.25 32.6 18.25C32.1858 18.25 31.85 17.9142 31.85 17.5V13.75C31.85 13.3358 32.1858 13 32.6 13C33.0142 13 33.35 13.3358 33.35 13.75V17.5ZM36.35 17.5C36.35 17.9142 36.0142 18.25 35.6 18.25C35.1858 18.25 34.85 17.9142 34.85 17.5V12.25C34.85 11.8358 35.1858 11.5 35.6 11.5C36.0142 11.5 36.35 11.8358 36.35 12.25V17.5Z" fill="#0F1A0F"/>
</g>
<path d="M7.796 49H6.39827L9.5389 40.2727H11.0602L14.2008 49H12.8031L10.3358 41.858H10.2676L7.796 49ZM8.03037 45.5824H12.5645V46.6903H8.03037V45.5824ZM16.633 45.1136V49H15.3589V42.4545H16.5819V43.5199H16.6628C16.8134 43.1733 17.0492 42.8949 17.3702 42.6847C17.6941 42.4744 18.1018 42.3693 18.5932 42.3693C19.0393 42.3693 19.4299 42.4631 19.7651 42.6506C20.1003 42.8352 20.3603 43.1108 20.5449 43.4773C20.7296 43.8437 20.8219 44.2969 20.8219 44.8366V49H19.5478V44.9901C19.5478 44.5156 19.4242 44.1449 19.177 43.8778C18.9299 43.608 18.5904 43.473 18.1586 43.473C17.8631 43.473 17.6003 43.5369 17.3702 43.6648C17.1429 43.7926 16.9625 43.9801 16.829 44.2273C16.6983 44.4716 16.633 44.767 16.633 45.1136ZM24.4356 49.1449C24.0208 49.1449 23.6458 49.0682 23.3106 48.9148C22.9753 48.7585 22.7097 48.5327 22.5137 48.2372C22.3205 47.9418 22.2239 47.5795 22.2239 47.1506C22.2239 46.7812 22.2949 46.4773 22.437 46.2386C22.579 46 22.7708 45.8111 23.0123 45.6719C23.2537 45.5327 23.5236 45.4276 23.8219 45.3565C24.1202 45.2855 24.4242 45.2315 24.7339 45.1946C25.1259 45.1491 25.4441 45.1122 25.6884 45.0838C25.9327 45.0526 26.1103 45.0028 26.2211 44.9347C26.3319 44.8665 26.3873 44.7557 26.3873 44.6023V44.5724C26.3873 44.2003 26.2821 43.9119 26.0719 43.7074C25.8645 43.5028 25.5549 43.4006 25.1429 43.4006C24.714 43.4006 24.3759 43.4957 24.1287 43.6861C23.8844 43.8736 23.7154 44.0824 23.6216 44.3125L22.4242 44.0398C22.5662 43.642 22.7736 43.321 23.0464 43.0767C23.3219 42.8295 23.6387 42.6506 23.9966 42.5398C24.3546 42.4261 24.731 42.3693 25.1259 42.3693C25.3873 42.3693 25.6643 42.4006 25.9569 42.4631C26.2523 42.5227 26.5279 42.6335 26.7836 42.7955C27.0421 42.9574 27.2537 43.1889 27.4185 43.4901C27.5833 43.7884 27.6657 44.1761 27.6657 44.6534V49H26.4214V48.1051H26.3702C26.2878 48.2699 26.1643 48.4318 25.9995 48.5909C25.8347 48.75 25.6231 48.8821 25.3645 48.9872C25.106 49.0923 24.7964 49.1449 24.4356 49.1449ZM24.7125 48.1222C25.0648 48.1222 25.366 48.0526 25.616 47.9134C25.8688 47.7741 26.0606 47.5923 26.1912 47.3679C26.3248 47.1406 26.3915 46.8977 26.3915 46.6392V45.7955C26.3461 45.8409 26.258 45.8835 26.1273 45.9233C25.9995 45.9602 25.8532 45.9929 25.6884 46.0213C25.5236 46.0469 25.3631 46.071 25.2069 46.0938C25.0506 46.1136 24.9199 46.1307 24.8148 46.1449C24.5677 46.1761 24.3418 46.2287 24.1373 46.3026C23.9356 46.3764 23.7736 46.483 23.6515 46.6222C23.5321 46.7585 23.4725 46.9403 23.4725 47.1676C23.4725 47.483 23.589 47.7216 23.8219 47.8835C24.0549 48.0426 24.3518 48.1222 24.7125 48.1222ZM30.6369 40.2727V49H29.3628V40.2727H30.6369ZM33.1564 51.4545C32.9661 51.4545 32.7928 51.4389 32.6366 51.4077C32.4803 51.3793 32.3638 51.348 32.2871 51.3139L32.5939 50.2699C32.8269 50.3324 33.0343 50.3594 33.2161 50.3509C33.3979 50.3423 33.5584 50.2741 33.6976 50.1463C33.8397 50.0185 33.9647 49.8097 34.0726 49.5199L34.2303 49.0852L31.8354 42.4545H33.1991L34.8567 47.5341H34.9249L36.5826 42.4545H37.9505L35.253 49.8736C35.128 50.2145 34.9689 50.5028 34.7758 50.7386C34.5826 50.9773 34.3525 51.1563 34.0854 51.2756C33.8184 51.3949 33.5087 51.4545 33.1564 51.4545ZM42.2033 42.4545V43.4773H38.628V42.4545H42.2033ZM39.5868 40.8864H40.861V47.0781C40.861 47.3253 40.8979 47.5114 40.9718 47.6364C41.0456 47.7585 41.1408 47.8423 41.2573 47.8878C41.3766 47.9304 41.5059 47.9517 41.6451 47.9517C41.7473 47.9517 41.8368 47.9446 41.9135 47.9304C41.9902 47.9162 42.0499 47.9048 42.0925 47.8963L42.3226 48.9489C42.2488 48.9773 42.1437 49.0057 42.0073 49.0341C41.8709 49.0653 41.7005 49.0824 41.4959 49.0852C41.1607 49.0909 40.8482 49.0312 40.5584 48.9062C40.2687 48.7812 40.0343 48.5881 39.8553 48.3267C39.6763 48.0653 39.5868 47.7372 39.5868 47.3423V40.8864ZM43.6128 49V42.4545H44.8869V49H43.6128ZM44.2562 41.4446C44.0346 41.4446 43.8443 41.3707 43.6852 41.223C43.529 41.0724 43.4508 40.8935 43.4508 40.6861C43.4508 40.4759 43.529 40.2969 43.6852 40.1491C43.8443 39.9986 44.0346 39.9233 44.2562 39.9233C44.4778 39.9233 44.6667 39.9986 44.823 40.1491C44.9821 40.2969 45.0616 40.4759 45.0616 40.6861C45.0616 40.8935 44.9821 41.0724 44.823 41.223C44.6667 41.3707 44.4778 41.4446 44.2562 41.4446ZM49.3581 49.1321C48.7246 49.1321 48.1792 48.9886 47.7218 48.7017C47.2672 48.4119 46.9178 48.0128 46.6735 47.5043C46.4292 46.9957 46.307 46.4134 46.307 45.7571C46.307 45.0923 46.432 44.5057 46.682 43.9972C46.932 43.4858 47.2843 43.0866 47.7388 42.7997C48.1934 42.5128 48.7289 42.3693 49.3454 42.3693C49.8425 42.3693 50.2857 42.4616 50.6749 42.6463C51.0641 42.8281 51.378 43.0838 51.6167 43.4134C51.8581 43.7429 52.0016 44.1278 52.0471 44.5682H50.807C50.7388 44.2614 50.5826 43.9972 50.3383 43.7756C50.0968 43.554 49.7729 43.4432 49.3667 43.4432C49.0116 43.4432 48.7005 43.5369 48.4334 43.7244C48.1692 43.9091 47.9633 44.1733 47.8155 44.517C47.6678 44.858 47.5939 45.2614 47.5939 45.7273C47.5939 46.2045 47.6664 46.6165 47.8113 46.9631C47.9562 47.3097 48.1607 47.5781 48.4249 47.7685C48.692 47.9588 49.0059 48.054 49.3667 48.054C49.6081 48.054 49.8269 48.0099 50.0229 47.9219C50.2218 47.831 50.388 47.7017 50.5215 47.5341C50.6579 47.3665 50.753 47.1648 50.807 46.929H52.0471C52.0016 47.3523 51.8638 47.7301 51.6337 48.0625C51.4036 48.3949 51.0954 48.6562 50.709 48.8466C50.3255 49.0369 49.8752 49.1321 49.3581 49.1321ZM58.3145 44.0526L57.1596 44.2571C57.1113 44.1094 57.0346 43.9687 56.9295 43.8352C56.8272 43.7017 56.688 43.5923 56.5119 43.5071C56.3358 43.4219 56.1156 43.3793 55.8514 43.3793C55.4906 43.3793 55.1895 43.4602 54.948 43.6222C54.7065 43.7812 54.5858 43.9872 54.5858 44.2401C54.5858 44.4588 54.6667 44.6349 54.8287 44.7685C54.9906 44.902 55.252 45.0114 55.6128 45.0966L56.6525 45.3352C57.2548 45.4744 57.7037 45.6889 57.9991 45.9787C58.2946 46.2685 58.4423 46.6449 58.4423 47.108C58.4423 47.5 58.3287 47.8494 58.1014 48.1562C57.877 48.4602 57.563 48.6989 57.1596 48.8722C56.7591 49.0455 56.2946 49.1321 55.7662 49.1321C55.0332 49.1321 54.4352 48.9759 53.9721 48.6634C53.5091 48.348 53.225 47.9006 53.1199 47.321L54.3514 47.1335C54.4281 47.4545 54.5858 47.6974 54.8244 47.8622C55.063 48.0241 55.3741 48.1051 55.7576 48.1051C56.1753 48.1051 56.5091 48.0185 56.7591 47.8452C57.0091 47.669 57.1341 47.4545 57.1341 47.2017C57.1341 46.9972 57.0574 46.8253 56.904 46.6861C56.7534 46.5469 56.5219 46.4418 56.2094 46.3707L55.1014 46.1278C54.4906 45.9886 54.0389 45.767 53.7463 45.4631C53.4565 45.1591 53.3116 44.7741 53.3116 44.3082C53.3116 43.9219 53.4196 43.5838 53.6355 43.294C53.8514 43.0043 54.1497 42.7784 54.5304 42.6165C54.9111 42.4517 55.3471 42.3693 55.8386 42.3693C56.546 42.3693 57.1028 42.5227 57.5091 42.8295C57.9153 43.1335 58.1838 43.5412 58.3145 44.0526Z" fill="#0F1A0F"/>
<defs>
<clipPath id="clip0_1_256">
<rect width="24" height="24" fill="white" transform="translate(20.6 4)"/>
</clipPath>
</defs>
</svg>
