<svg width="66" height="54" viewBox="0 0 66 54" fill="none" xmlns="http://www.w3.org/2000/svg">
<g clip-path="url(#clip0_40_452)">
<path fill-rule="evenodd" clip-rule="evenodd" d="M40.8501 7.75H33.3501V6.25C33.3501 5.83579 33.0143 5.5 32.6001 5.5C32.1859 5.5 31.8501 5.83579 31.8501 6.25V7.75H24.3501C23.5217 7.75 22.8501 8.42157 22.8501 9.25V20.5C22.8501 21.3284 23.5217 22 24.3501 22H28.0401L26.0142 24.5312C25.7553 24.8549 25.8077 25.3271 26.1313 25.5859C26.455 25.8448 26.9272 25.7924 27.186 25.4688L29.9601 22H35.2401L38.0142 25.4688C38.273 25.7924 38.7452 25.8448 39.0688 25.5859C39.3925 25.3271 39.4449 24.8549 39.186 24.5312L37.1601 22H40.8501C41.6785 22 42.3501 21.3284 42.3501 20.5V9.25C42.3501 8.42157 41.6785 7.75 40.8501 7.75ZM30.3501 17.5C30.3501 17.9142 30.0143 18.25 29.6001 18.25C29.1859 18.25 28.8501 17.9142 28.8501 17.5V15.25C28.8501 14.8358 29.1859 14.5 29.6001 14.5C30.0143 14.5 30.3501 14.8358 30.3501 15.25V17.5ZM33.3501 17.5C33.3501 17.9142 33.0143 18.25 32.6001 18.25C32.1859 18.25 31.8501 17.9142 31.8501 17.5V13.75C31.8501 13.3358 32.1859 13 32.6001 13C33.0143 13 33.3501 13.3358 33.3501 13.75V17.5ZM36.3501 17.5C36.3501 17.9142 36.0143 18.25 35.6001 18.25C35.1859 18.25 34.8501 17.9142 34.8501 17.5V12.25C34.8501 11.8358 35.1859 11.5 35.6001 11.5C36.0143 11.5 36.3501 11.8358 36.3501 12.25V17.5Z" fill="#121712"/>
</g>
<path d="M13.6399 44.6364C13.6399 45.5682 13.4694 46.3693 13.1285 47.0398C12.7876 47.7074 12.3203 48.2216 11.7265 48.5824C11.1356 48.9403 10.4637 49.1193 9.71089 49.1193C8.95521 49.1193 8.2805 48.9403 7.68675 48.5824C7.09584 48.2216 6.62993 47.706 6.28902 47.0355C5.94811 46.3651 5.77765 45.5653 5.77765 44.6364C5.77765 43.7045 5.94811 42.9048 6.28902 42.2372C6.62993 41.5668 7.09584 41.0526 7.68675 40.6946C8.2805 40.3338 8.95521 40.1534 9.71089 40.1534C10.4637 40.1534 11.1356 40.3338 11.7265 40.6946C12.3203 41.0526 12.7876 41.5668 13.1285 42.2372C13.4694 42.9048 13.6399 43.7045 13.6399 44.6364ZM12.3359 44.6364C12.3359 43.9261 12.2208 43.3281 11.9907 42.8423C11.7635 42.3537 11.451 41.9844 11.0532 41.7344C10.6583 41.4815 10.2109 41.3551 9.71089 41.3551C9.20805 41.3551 8.75919 41.4815 8.3643 41.7344C7.96942 41.9844 7.65692 42.3537 7.4268 42.8423C7.19953 43.3281 7.08589 43.9261 7.08589 44.6364C7.08589 45.3466 7.19953 45.946 7.4268 46.4347C7.65692 46.9205 7.96942 47.2898 8.3643 47.5426C8.75919 47.7926 9.20805 47.9176 9.71089 47.9176C10.2109 47.9176 10.6583 47.7926 11.0532 47.5426C11.451 47.2898 11.7635 46.9205 11.9907 46.4347C12.2208 45.946 12.3359 45.3466 12.3359 44.6364ZM20.7787 42.4545L18.4051 49H17.0415L14.6637 42.4545H16.0316L17.6892 47.4915H17.7574L19.4108 42.4545H20.7787ZM24.5745 49.1321C23.9296 49.1321 23.3742 48.9943 22.9083 48.7188C22.4453 48.4403 22.0873 48.0497 21.8345 47.5469C21.5845 47.0412 21.4595 46.4489 21.4595 45.7699C21.4595 45.0994 21.5845 44.5085 21.8345 43.9972C22.0873 43.4858 22.4396 43.0866 22.8913 42.7997C23.3458 42.5128 23.8771 42.3693 24.485 42.3693C24.8544 42.3693 25.2123 42.4304 25.5589 42.5526C25.9055 42.6747 26.2166 42.8665 26.4921 43.1278C26.7677 43.3892 26.985 43.7287 27.1441 44.1463C27.3032 44.5611 27.3828 45.0653 27.3828 45.6591V46.1108H22.1796V45.1562H26.1342C26.1342 44.821 26.066 44.5241 25.9296 44.2656C25.7933 44.0043 25.6015 43.7983 25.3544 43.6477C25.11 43.4972 24.8231 43.4219 24.4936 43.4219C24.1356 43.4219 23.8231 43.5099 23.5561 43.6861C23.2919 43.8594 23.0873 44.0866 22.9424 44.3679C22.8004 44.6463 22.7294 44.9489 22.7294 45.2756V46.0213C22.7294 46.4588 22.8061 46.831 22.9595 47.1378C23.1157 47.4446 23.3331 47.679 23.6115 47.8409C23.8899 48 24.2152 48.0795 24.5873 48.0795C24.8288 48.0795 25.049 48.0455 25.2478 47.9773C25.4467 47.9062 25.6186 47.8011 25.7635 47.6619C25.9083 47.5227 26.0191 47.3509 26.0958 47.1463L27.3018 47.3636C27.2052 47.7187 27.0319 48.0298 26.7819 48.2969C26.5348 48.5611 26.2237 48.767 25.8487 48.9148C25.4765 49.0597 25.0518 49.1321 24.5745 49.1321ZM28.7965 49V42.4545H30.028V43.4943H30.0962C30.2155 43.142 30.4257 42.8651 30.7269 42.6634C31.0309 42.4588 31.3746 42.3565 31.7581 42.3565C31.8377 42.3565 31.9314 42.3594 32.0394 42.3651C32.1502 42.3707 32.2368 42.3778 32.2993 42.3864V43.6051C32.2482 43.5909 32.1573 43.5753 32.0266 43.5582C31.8959 43.5384 31.7652 43.5284 31.6345 43.5284C31.3334 43.5284 31.0649 43.5923 30.8291 43.7202C30.5962 43.8452 30.4115 44.0199 30.2752 44.2443C30.1388 44.4659 30.0706 44.7187 30.0706 45.0028V49H28.7965ZM39.2006 42.4545L36.827 49H35.4634L33.0855 42.4545H34.4534L36.1111 47.4915H36.1793L37.8327 42.4545H39.2006ZM40.398 49V42.4545H41.6722V49H40.398ZM41.0415 41.4446C40.8199 41.4446 40.6296 41.3707 40.4705 41.223C40.3142 41.0724 40.2361 40.8935 40.2361 40.6861C40.2361 40.4759 40.3142 40.2969 40.4705 40.1491C40.6296 39.9986 40.8199 39.9233 41.0415 39.9233C41.2631 39.9233 41.452 39.9986 41.6083 40.1491C41.7674 40.2969 41.8469 40.4759 41.8469 40.6861C41.8469 40.8935 41.7674 41.0724 41.6083 41.223C41.452 41.3707 41.2631 41.4446 41.0415 41.4446ZM46.2073 49.1321C45.5625 49.1321 45.0071 48.9943 44.5411 48.7188C44.0781 48.4403 43.7201 48.0497 43.4673 47.5469C43.2173 47.0412 43.0923 46.4489 43.0923 45.7699C43.0923 45.0994 43.2173 44.5085 43.4673 43.9972C43.7201 43.4858 44.0724 43.0866 44.5241 42.7997C44.9786 42.5128 45.5099 42.3693 46.1179 42.3693C46.4872 42.3693 46.8451 42.4304 47.1917 42.5526C47.5383 42.6747 47.8494 42.8665 48.125 43.1278C48.4005 43.3892 48.6179 43.7287 48.7769 44.1463C48.936 44.5611 49.0156 45.0653 49.0156 45.6591V46.1108H43.8125V45.1562H47.767C47.767 44.821 47.6988 44.5241 47.5625 44.2656C47.4261 44.0043 47.2343 43.7983 46.9872 43.6477C46.7429 43.4972 46.4559 43.4219 46.1264 43.4219C45.7684 43.4219 45.4559 43.5099 45.1889 43.6861C44.9247 43.8594 44.7201 44.0866 44.5752 44.3679C44.4332 44.6463 44.3622 44.9489 44.3622 45.2756V46.0213C44.3622 46.4588 44.4389 46.831 44.5923 47.1378C44.7485 47.4446 44.9659 47.679 45.2443 47.8409C45.5227 48 45.848 48.0795 46.2201 48.0795C46.4616 48.0795 46.6818 48.0455 46.8806 47.9773C47.0795 47.9062 47.2514 47.8011 47.3963 47.6619C47.5411 47.5227 47.6519 47.3509 47.7286 47.1463L48.9346 47.3636C48.838 47.7187 48.6647 48.0298 48.4147 48.2969C48.1676 48.5611 47.8565 48.767 47.4815 48.9148C47.1093 49.0597 46.6846 49.1321 46.2073 49.1321ZM51.8366 49L49.9105 42.4545H51.2272L52.5099 47.2614H52.5738L53.8608 42.4545H55.1775L56.4559 47.2401H56.5198L57.794 42.4545H59.1108L57.1889 49H55.8892L54.5596 44.2741H54.4616L53.1321 49H51.8366Z" fill="#121712"/>
<defs>
<clipPath id="clip0_40_452">
<rect width="24" height="24" fill="white" transform="translate(20.6001 4)"/>
</clipPath>
</defs>
</svg>
