<svg width="66" height="54" viewBox="0 0 66 54" fill="none" xmlns="http://www.w3.org/2000/svg">
<g clip-path="url(#clip0_1_242)">
<path fill-rule="evenodd" clip-rule="evenodd" d="M40.1 7H37.85V6.25C37.85 5.83579 37.5142 5.5 37.1 5.5C36.6858 5.5 36.35 5.83579 36.35 6.25V7H28.85V6.25C28.85 5.83579 28.5142 5.5 28.1 5.5C27.6858 5.5 27.35 5.83579 27.35 6.25V7H25.1C24.2715 7 23.6 7.67157 23.6 8.5V23.5C23.6 24.3284 24.2715 25 25.1 25H40.1C40.9284 25 41.6 24.3284 41.6 23.5V8.5C41.6 7.67157 40.9284 7 40.1 7ZM27.35 8.5V9.25C27.35 9.66421 27.6858 10 28.1 10C28.5142 10 28.85 9.66421 28.85 9.25V8.5H36.35V9.25C36.35 9.66421 36.6858 10 37.1 10C37.5142 10 37.85 9.66421 37.85 9.25V8.5H40.1V11.5H25.1V8.5H27.35ZM40.1 23.5H25.1V13H40.1V23.5ZM31.1 15.25V21.25C31.1 21.6642 30.7642 22 30.35 22C29.9358 22 29.6 21.6642 29.6 21.25V16.4631L29.1856 16.6713C28.8149 16.8566 28.3641 16.7063 28.1787 16.3356C27.9934 15.9649 28.1436 15.5141 28.5144 15.3287L30.0144 14.5787C30.2469 14.4624 30.5232 14.4748 30.7444 14.6116C30.9656 14.7483 31.1002 14.9899 31.1 15.25ZM36.6462 18.1047L34.85 20.5H36.35C36.7642 20.5 37.1 20.8358 37.1 21.25C37.1 21.6642 36.7642 22 36.35 22H33.35C33.0659 22 32.8062 21.8395 32.6792 21.5854C32.5521 21.3313 32.5795 21.0273 32.75 20.8L35.4481 17.2028C35.6153 16.9802 35.6455 16.6833 35.5264 16.4316C35.4073 16.1799 35.1586 16.0149 34.8804 16.003C34.6022 15.9912 34.3404 16.1344 34.2003 16.375C34.0702 16.6146 33.8203 16.7647 33.5476 16.7671C33.275 16.7694 33.0225 16.6236 32.8883 16.3863C32.7541 16.1489 32.7593 15.8574 32.9019 15.625C33.4112 14.7435 34.449 14.3139 35.4324 14.5774C36.4157 14.8409 37.0996 15.7319 37.1 16.75C37.1016 17.2391 36.9421 17.7152 36.6462 18.1047Z" fill="#5C8C5C"/>
</g>
<path d="M14.0588 49V40.2727H19.5304V41.4062H15.3755V44.0653H19.2449V45.1946H15.3755V47.8665H19.5815V49H14.0588ZM26.7864 42.4545L24.4128 49H23.0492L20.6714 42.4545H22.0393L23.6969 47.4915H23.7651L25.4185 42.4545H26.7864ZM30.5822 49.1321C29.9373 49.1321 29.3819 48.9943 28.916 48.7188C28.453 48.4403 28.095 48.0497 27.8422 47.5469C27.5922 47.0412 27.4672 46.4489 27.4672 45.7699C27.4672 45.0994 27.5922 44.5085 27.8422 43.9972C28.095 43.4858 28.4473 43.0866 28.899 42.7997C29.3535 42.5128 29.8848 42.3693 30.4927 42.3693C30.862 42.3693 31.22 42.4304 31.5666 42.5526C31.9132 42.6747 32.2243 42.8665 32.4998 43.1278C32.7754 43.3892 32.9927 43.7287 33.1518 44.1463C33.3109 44.5611 33.3905 45.0653 33.3905 45.6591V46.1108H28.1873V45.1562H32.1419C32.1419 44.821 32.0737 44.5241 31.9373 44.2656C31.801 44.0043 31.6092 43.7983 31.362 43.6477C31.1177 43.4972 30.8308 43.4219 30.5013 43.4219C30.1433 43.4219 29.8308 43.5099 29.5638 43.6861C29.2995 43.8594 29.095 44.0866 28.9501 44.3679C28.8081 44.6463 28.737 44.9489 28.737 45.2756V46.0213C28.737 46.4588 28.8138 46.831 28.9672 47.1378C29.1234 47.4446 29.3407 47.679 29.6192 47.8409C29.8976 48 30.2228 48.0795 30.595 48.0795C30.8365 48.0795 31.0567 48.0455 31.2555 47.9773C31.4544 47.9062 31.6263 47.8011 31.7711 47.6619C31.916 47.5227 32.0268 47.3509 32.1035 47.1463L33.3095 47.3636C33.2129 47.7187 33.0396 48.0298 32.7896 48.2969C32.5424 48.5611 32.2314 48.767 31.8564 48.9148C31.4842 49.0597 31.0595 49.1321 30.5822 49.1321ZM36.0783 45.1136V49H34.8042V42.4545H36.0272V43.5199H36.1081C36.2587 43.1733 36.4945 42.8949 36.8155 42.6847C37.1394 42.4744 37.5471 42.3693 38.0385 42.3693C38.4846 42.3693 38.8752 42.4631 39.2104 42.6506C39.5456 42.8352 39.8056 43.1108 39.9902 43.4773C40.1749 43.8437 40.2672 44.2969 40.2672 44.8366V49H38.9931V44.9901C38.9931 44.5156 38.8695 44.1449 38.6223 43.8778C38.3752 43.608 38.0357 43.473 37.6039 43.473C37.3084 43.473 37.0456 43.5369 36.8155 43.6648C36.5883 43.7926 36.4079 43.9801 36.2743 44.2273C36.1437 44.4716 36.0783 44.767 36.0783 45.1136ZM45.0314 42.4545V43.4773H41.4562V42.4545H45.0314ZM42.415 40.8864H43.6891V47.0781C43.6891 47.3253 43.726 47.5114 43.7999 47.6364C43.8738 47.7585 43.9689 47.8423 44.0854 47.8878C44.2047 47.9304 44.334 47.9517 44.4732 47.9517C44.5755 47.9517 44.665 47.9446 44.7417 47.9304C44.8184 47.9162 44.878 47.9048 44.9206 47.8963L45.1508 48.9489C45.0769 48.9773 44.9718 49.0057 44.8354 49.0341C44.6991 49.0653 44.5286 49.0824 44.3241 49.0852C43.9888 49.0909 43.6763 49.0312 43.3866 48.9062C43.0968 48.7812 42.8624 48.5881 42.6834 48.3267C42.5045 48.0653 42.415 47.7372 42.415 47.3423V40.8864ZM51.2402 44.0526L50.0854 44.2571C50.0371 44.1094 49.9604 43.9687 49.8553 43.8352C49.753 43.7017 49.6138 43.5923 49.4377 43.5071C49.2616 43.4219 49.0414 43.3793 48.7772 43.3793C48.4164 43.3793 48.1152 43.4602 47.8738 43.6222C47.6323 43.7812 47.5116 43.9872 47.5116 44.2401C47.5116 44.4588 47.5925 44.6349 47.7545 44.7685C47.9164 44.902 48.1777 45.0114 48.5385 45.0966L49.5783 45.3352C50.1806 45.4744 50.6295 45.6889 50.9249 45.9787C51.2204 46.2685 51.3681 46.6449 51.3681 47.108C51.3681 47.5 51.2545 47.8494 51.0272 48.1562C50.8027 48.4602 50.4888 48.6989 50.0854 48.8722C49.6848 49.0455 49.2204 49.1321 48.692 49.1321C47.959 49.1321 47.361 48.9759 46.8979 48.6634C46.4348 48.348 46.1508 47.9006 46.0456 47.321L47.2772 47.1335C47.3539 47.4545 47.5116 47.6974 47.7502 47.8622C47.9888 48.0241 48.2999 48.1051 48.6834 48.1051C49.101 48.1051 49.4348 48.0185 49.6848 47.8452C49.9348 47.669 50.0598 47.4545 50.0598 47.2017C50.0598 46.9972 49.9831 46.8253 49.8297 46.6861C49.6792 46.5469 49.4476 46.4418 49.1351 46.3707L48.0272 46.1278C47.4164 45.9886 46.9647 45.767 46.6721 45.4631C46.3823 45.1591 46.2374 44.7741 46.2374 44.3082C46.2374 43.9219 46.3454 43.5838 46.5613 43.294C46.7772 43.0043 47.0755 42.7784 47.4562 42.6165C47.8368 42.4517 48.2729 42.3693 48.7644 42.3693C49.4718 42.3693 50.0286 42.5227 50.4348 42.8295C50.8411 43.1335 51.1096 43.5412 51.2402 44.0526Z" fill="#5C8C5C"/>
<defs>
<clipPath id="clip0_1_242">
<rect width="24" height="24" fill="white" transform="translate(20.6 4)"/>
</clipPath>
</defs>
</svg>
