<svg width="24" height="32" viewBox="0 0 24 32" fill="none" xmlns="http://www.w3.org/2000/svg">
<g clip-path="url(#clip0_37_208)">
<path fill-rule="evenodd" clip-rule="evenodd" d="M21.5306 24.4694L16.8366 19.7762C19.6629 16.383 19.3204 11.3669 16.0591 8.38935C12.7978 5.41176 7.77134 5.526 4.64867 8.64867C1.526 11.7713 1.41176 16.7978 4.38935 20.0591C7.36693 23.3204 12.383 23.6629 15.7762 20.8366L20.4694 25.5306C20.7624 25.8237 21.2376 25.8237 21.5306 25.5306C21.8237 25.2376 21.8237 24.7624 21.5306 24.4694ZM3.75 14.5C3.75 10.7721 6.77208 7.75 10.5 7.75C14.2279 7.75 17.25 10.7721 17.25 14.5C17.25 18.2279 14.2279 21.25 10.5 21.25C6.77379 21.2459 3.75413 18.2262 3.75 14.5Z" fill="#858561"/>
</g>
<defs>
<clipPath id="clip0_37_208">
<rect width="24" height="24" fill="white" transform="translate(0 4)"/>
</clipPath>
</defs>
</svg>
