<svg width="20" height="20" viewBox="0 0 20 20" fill="none" xmlns="http://www.w3.org/2000/svg">
<g clip-path="url(#clip0_47_44)">
<path fill-rule="evenodd" clip-rule="evenodd" d="M19.3273 5.38594C19.2307 5.15237 19.0028 5.00005 18.75 5H16.3727C15.6966 3.84977 14.467 3.13816 13.1328 3.125C12.1456 3.11205 11.195 3.49795 10.4961 4.19531C9.77683 4.90115 9.37264 5.86726 9.375 6.875V7.35078C6.22969 6.52109 3.65703 3.9625 3.62969 3.93516C3.45849 3.76244 3.20265 3.70471 2.97387 3.78717C2.7451 3.86963 2.58492 4.07731 2.56328 4.31953C2.22656 8.05313 3.31094 10.5516 4.28203 11.9898C4.75553 12.7009 5.33155 13.338 5.99141 13.8805C4.80156 15.25 2.92813 15.9695 2.90781 15.9773C2.72915 16.0443 2.59083 16.1891 2.53224 16.3707C2.47364 16.5523 2.50119 16.7506 2.60703 16.9094C2.66563 16.9969 2.9 17.3039 3.47266 17.5906C4.18047 17.9453 5.11562 18.125 6.25 18.125C11.7711 18.125 16.3844 13.8734 16.8555 8.40312L19.1922 6.06719C19.3709 5.88834 19.4242 5.61946 19.3273 5.38594ZM15.8117 7.68359C15.7046 7.79101 15.6401 7.93374 15.6305 8.08516C15.3125 13.0141 11.1938 16.875 6.25 16.875C5.425 16.875 4.84375 16.7656 4.43594 16.6344C5.33516 16.1461 6.58906 15.3063 7.39531 14.0969C7.49096 13.9531 7.52289 13.7762 7.48352 13.6081C7.44416 13.44 7.33702 13.2957 7.1875 13.2094C7.15078 13.1883 3.75703 11.1516 3.75 5.70937C5 6.725 7.28516 8.30078 9.89609 8.73984C10.0772 8.77038 10.2626 8.7197 10.403 8.60128C10.5434 8.48285 10.6246 8.30867 10.625 8.125V6.875C10.6236 6.20146 10.894 5.55585 11.375 5.08437C11.8361 4.62238 12.4645 4.36653 13.1172 4.375C14.1062 4.3875 15.0305 4.99062 15.4172 5.87578C15.5168 6.10319 15.7416 6.25007 15.9898 6.25H17.2398L15.8117 7.68359Z" fill="#121712"/>
</g>
<defs>
<clipPath id="clip0_47_44">
<rect width="20" height="20" fill="white"/>
</clipPath>
</defs>
</svg>
