<svg width="20" height="20" viewBox="0 0 20 20" fill="none" xmlns="http://www.w3.org/2000/svg">
<g clip-path="url(#clip0_48_318)">
<path fill-rule="evenodd" clip-rule="evenodd" d="M14.6547 11.3156L12.1547 10.0656C11.9544 9.96581 11.716 9.98071 11.5297 10.1047L10.382 10.8703C9.8552 10.5807 9.42165 10.1471 9.13203 9.62031L9.89766 8.47266C10.0216 8.28634 10.0365 8.04796 9.93672 7.84766L8.68672 5.34766C8.58102 5.1342 8.36319 4.99938 8.125 5C6.39911 5 5 6.39911 5 8.125C5.00431 11.9202 8.07983 14.9957 11.875 15C13.6009 15 15 13.6009 15 11.875C15.0002 11.6382 14.8665 11.4216 14.6547 11.3156ZM11.875 13.75C8.76983 13.7466 6.25344 11.2302 6.25 8.125C6.24975 7.23112 6.88054 6.46136 7.75703 6.28594L8.65391 8.08281L7.89062 9.21875C7.77479 9.39251 7.75339 9.61265 7.83359 9.80547C8.28077 10.8683 9.12626 11.7138 10.1891 12.1609C10.3825 12.2447 10.6052 12.2253 10.7812 12.1094L11.9227 11.3484L13.7195 12.2453C13.5427 13.1229 12.7702 13.7531 11.875 13.75ZM10 1.875C7.14664 1.87438 4.50207 3.37055 3.03295 5.81664C1.56382 8.26273 1.48548 11.3002 2.82656 13.8188L1.93984 16.4789C1.79004 16.9281 1.90692 17.4234 2.24176 17.7582C2.57659 18.0931 3.07189 18.21 3.52109 18.0602L6.18125 17.1734C9.16615 18.761 12.8222 18.3344 15.3614 16.1021C17.9005 13.8698 18.7919 10.2985 17.5997 7.13486C16.4075 3.97119 13.3808 1.87639 10 1.875ZM10 16.875C8.79139 16.8758 7.60398 16.5575 6.55781 15.9523C6.40287 15.8625 6.21682 15.8434 6.04688 15.9L3.125 16.875L4.09922 13.9531C4.15603 13.7833 4.13725 13.5972 4.04766 13.4422C2.4895 10.7483 2.93527 7.34366 5.13444 5.14171C7.33361 2.93976 10.7377 2.48969 13.4335 4.04444C16.1294 5.59919 17.4447 8.77098 16.6402 11.7773C15.8357 14.7835 13.1121 16.8745 10 16.875Z" fill="#121712"/>
</g>
<defs>
<clipPath id="clip0_48_318">
<rect width="20" height="20" fill="white"/>
</clipPath>
</defs>
</svg>
